<?xml version="1.0" encoding="UTF-8"?>
<svg id="Layer_1" data-name="Layer 1" xmlns="http://www.w3.org/2000/svg" viewBox="0 0 298.5 159.3">
  <defs>
    <style>
      .cls-1 {
        fill: #ffcb05;
      }

      .cls-2 {
        fill: #fff;
      }

      .cls-3 {
        fill: #ee3224;
      }
    </style>
  </defs>
  <path class="cls-1" d="M298.01,56.7c-1.61-.74-3.24-1.41-4.88-2.06-.51-.2-1.05-.35-1.45-.77-.07-.07-.18-.1-.28-.14-.38-.13-.72-.29-.94-.67-.12-.21-.37-.29-.62-.29-.16,0-.32.01-.47,0-.11-.01-.21-.09-.23-.2-.06-.39-.11-.79-.15-1.19-.01-.14.06-.26.16-.35.12-.11.24-.21.36-.31.91-.73,1.81-1.46,2.72-2.18.21-.17.41-.33.56-.56.17-.26.24-.53.07-.82-.06-.09-.11-.19-.16-.28-.11-.19-.07-.36.06-.52.12-.14.24-.28.38-.39.33-.26.67-.52,1.02-.76.58-.4.98-.95,1.36-1.53.08-.12.04-.28-.06-.36l-.06-.05c-.61-.51-1.27-.83-2.1-.59-.15.04-.26-.09-.21-.24.2-.64.15-1.26-.12-1.87-.16-.36-.42-.54-.79-.56-.38-.02-.73.06-1.06.24-.16.09-.32.18-.48.27-.09.05-.16-.03-.17-.1-.02-.1-.01-.21,0-.32.04-.29.11-.58.15-.87.07-.57-.01-1.12-.25-1.64-.08-.17-.17-.33-.33-.44-.19-.12-.37-.17-.59-.05-.22.12-.36.4-.67.31,0-.24-.02-.47-.01-.71.02-.51,0-1.01-.1-1.51-.07-.37-.22-.71-.5-.98-.15-.15-.34-.16-.49-.02-.16.14-.3.29-.46.44l-.07.03-.06-.13c.07-.37.14-.73.23-1.09.11-.45.04-.9,0-1.35l-.04-.15c-.28-.65-.55-.8-1.15-.47-.11.06-.22.15-.32.22-.1.07-.18.25-.32.12-.11-.1-.01-.24.01-.37.08-.45.16-.89.22-1.34.06-.44-.03-.85-.24-1.24-.17-.31-.49-.42-.81-.25-.23.13-.43.3-.64.45h-.14s-.06-.13-.06-.13c.03-.18.06-.37.11-.55.23-.85.36-1.72.49-2.59.06-.4.04-.8-.01-1.19-.04-.3-.23-.49-.54-.47-.67.05-1.36.06-1.99.39-.46.25-.93.49-1.39.75-.31.17-.5.46-.71.74-.19.25-.35.53-.54.79-.18.26-.42.23-.55-.04-.13-.26-.23-.54-.38-.79-.58-.96-1.45-1.35-2.53-1.32-.3,0-.57.11-.8.3-.33.26-.66.53-.87.92-.08.16-.22.29-.35.42-.07.08-.22.05-.27-.04l-.11-.21c-.31-.96-.93-1.59-1.91-1.83-.13-.03-.24-.1-.33-.21-.34-.41-.36-.59-.11-1.08.12-.23.24-.47.36-.71.42-.85.46-1.74.31-2.65-.05-.29-.17-.56-.31-.82-.36-.66-.71-1.31-1.17-1.9-.22-.28-.2-.44.02-.71.17-.21.36-.39.66-.36h.16c.4-.09.61-.3.68-.69l.02-.24c-.02-.29.1-.52.33-.68l.24-.21-.02-.2c-.1-.08-.23-.14-.33-.22l-.12-.18.14-.16c.22-.08.45-.13.68-.2.25-.08.31-.2.24-.41-.17-.48-.34-.95-.52-1.43-.06-.15-.13-.17-.22-.06-.14.16-.26.33-.4.49l-.22.22-.14.04-.08-.12c0-.16.04-.31.05-.47.01-.13.02-.26,0-.39l-.1-.08c-.14.06-.28.15-.42.22-.38.17-.72.11-1-.19-.27-.29-.54-.59-.81-.88-.16-.16-.25-.34-.18-.57.03-.1.03-.21.03-.32,0-.12-.08-.2-.2-.21-.18-.01-.37,0-.55-.02-.18-.01-.25-.2-.15-.35.09-.13.2-.25.3-.37.24-.32.25-.33-.03-.66-.12-.13-.16-.27-.12-.43.07-.23.15-.46.21-.69.14-.49.28-.97.39-1.46.06-.24.14-.45.34-.61l.17-.16c.28-.36.23-.83-.13-1.15-.11-.1-.24-.1-.37-.05-.2.07-.37.2-.53.34-.1.09-.21.16-.31.23l-.17-.12c-.03-.14,0-.27.09-.37.08-.1.2-.17.3-.24.19-.14.21-.14.07-.34-.11-.15-.14-.28,0-.42.14-.16.28-.32.34-.53.03-.1.05-.21.03-.31-.12-.64-.52-.77-1.02-.36-.3.25-.47.55-.53.94-.02.17,0,.32.11.45.07.08.14.16.13.28-.06.58-.05,1.18-.2,1.74-.21.79-.37,1.6-.65,2.38-.1.27-.09.58-.24.84-.11.2-.29.23-.42.02-.1-.15-.18-.32-.27-.48l-.27.03c-.17.25-.18.55-.28.83-.05.14-.12.23-.29.2-.18-.03-.29.1-.41.2-.14.11-.29.22-.44.33l-.06-.02-.03-.07c.03-.1.06-.21.09-.3.07-.18.02-.3-.15-.4l-.18-.15c-.08-.09-.07-.2,0-.29l.21-.24c.43-.29.68-.7.86-1.19.22-.61.62-1.11,1.02-1.61.1-.12.04-.25-.12-.29-.13-.03-.26-.02-.39.02h-.14s.04-.21.04-.21c.49-.49,1.01-.93,1.69-1.13.19-.05.24-.2.15-.38-.06-.12-.12-.24-.2-.35-.31-.43-.77-.58-1.26-.39-.32.12-.64.25-.88.51-.3.33-.64.64-.92.98-.33.4-.74.32-1.12.07-.07-.04-.1-.19-.1-.29.01-.16.07-.31.11-.46.08-.28.17-.56.25-.84.05-.22,0-.35-.21-.46-.66-.34-1.32-.67-1.98-1l-.08-.02-.11.08c0,.16,0,.32.03.47.06.23.15.45.22.68.06.2.12.41.18.61l-.05.21h-.15c-.31-.11-.56-.31-.75-.56-.27-.36-.63-.55-1.05-.66-.14-.04-.23.02-.21.14.13.53-.08,1.06-.01,1.59.02.12-.05.27-.12.37-.28.39-.64.7-1.02.98-.11.08-.26.08-.38,0-.41-.24-.81-.49-1.21-.75-.17-.11-.21-.3-.31-.46-.12-.19-.31-.27-.47-.15-.32.25-.68.26-1.04.3-.18.02-.36.05-.54.09-.15.04-.3.13-.45.12-.17-.02-.18-.24-.27-.36-.07-.09-.15-.16-.26-.11-.32.12-.63.25-.95.39-.17.08-.23.4-.11.56l.11.11c.2.16.55.18.63.44.07.24-.06.52-.04.79.03.53-.04,1.07.21,1.57.1.2.06.42-.07.61-.09.13-.19.26-.27.4-.08.13-.19.16-.33.17-.09.01-.11.1-.09.18.06.23.18.44.32.64.07.1.22.11.25,0,.11-.33.4-.39.66-.51l.14.02v.21c-.44.32-.68.8-1.03,1.2-.08.09-.07.2.02.28.22.19.46.36.68.55.11.09.08.25-.05.32-.2.11-.51.13-.6.35-.11.27.15.49.28.71.31.56.63,1.11.97,1.65.16.24.2.48.14.76-.09.36-.18.72-.27,1.08-.05.18-.17.26-.34.29-.21.04-.42,0-.62-.05-.09-.02-.19.13-.16.23.1.32.33.45.59.31.49-.26.9-.63,1.34-.96.14-.11.17-.29.1-.43-.15-.32-.03-.57.18-.79l.23-.22c.15-.14.39-.27.37-.49-.03-.28-.35-.27-.55-.37l-.23-.05c-.2-.03-.48.06-.55-.2-.1-.34-.05-.69.22-.96l.13-.09c.29-.28.31-.34.08-.66-.15-.22-.3-.44-.32-.72l.06-.14h.14c.24.18.36.45.54.68.01.61.46.92.87,1.25l.21.22c.03.21.07.25.29.2.25-.06.51-.05.68-.3.07-.11.2-.13.33-.14v-.02s.06-.04.06-.04l-.04.05h-.02s-.06.22-.06.22c-.03.17.07.35-.04.52l.07.02c.21-.02.31-.16.42-.32.12-.18.3-.29.52-.33l.07.03v.06s-.24.19-.24.19l-.08.12.15.03.23-.04c.23-.05.46-.13.69-.15.38-.03.72-.16,1.06-.3.09-.04.2-.04.3-.05.09,0,.19.14.17.23-.05.25-.2.43-.41.57-.13.09-.26.18-.37.29-.16.18-.05.54.18.59.18.04.36.04.55.03.32,0,.63-.03.94-.04l.18.12c.03.07-.06.21-.15.24-.1.03-.2.06-.3.07-.26.03-.53.05-.79.06-.55.03-1.09.13-1.62.31-.5.17-1,.32-1.53.32-.29,0-.55.16-.8.31-.41.24-.84.42-1.29.58-.55.19-1.04.52-1.52.84-.82.54-1.53,1.19-2.06,2.06-.47.77-.69,1.6-.7,2.5v.24c.06.57-.04.71-.66.55-.33-.08-.67-.09-1.01-.13-.32-.03-.56.12-.75.36-.23.29-.39.63-.46,1-.16.79-.23,1.58-.14,2.39.04.37.06.74.07,1.12,0,.23-.18.34-.38.24-.26-.13-.52-.26-.77-.4-.48-.27-.85-.02-1.2.26-.27.22-.45.52-.54.86-.12.43-.26.87-.26,1.33,0,.16-.03.32-.08.47-.04.11-.15.17-.26.12-.17-.07-.33-.17-.49-.25-.83-.43-1.65-.17-2.08.66-.08.16-.13.35-.2.52-.12.29-.24.35-.56.25-.15-.05-.3-.1-.44-.17l-2.23,2.93c.02.45,0,.9-.08,1.34-.03.15-.16.23-.29.18-.12-.04-.25-.09-.36-.16l-.19-.15-.76,1,.16-.1c.44,0,.74.3.74.75,0,.1-.04.21-.05.32l.07.13.12-.08c.07-.19.16-.34.4-.25l.16.03c.25.03.45-.1.66-.23.2-.13.1-.34.15-.51.03-.1.04-.21.07-.31.04-.16.07-.31-.02-.46-.16-.31-.08-.62,0-.93.15-.64.19-.69.86-.41l.14.06c.17.09.31.21.32.42l.02.24c.05.33.12.38.39.22.16-.1.32-.18.61-.18,0,0,.1.02.21.04l.09.19c-.09.09-.18.2-.27.28-.86.74-1.72,1.48-2.59,2.22-.63.54-1.29,1.04-1.9,1.61-.03-.1-.07-.2-.1-.3-.06-.16-.12-.33-.18-.49-.16-.46-.34-.95-.51-1.44l.06-.25-.1.13c-.07-.18-.12-.35-.19-.54-.02,0-.13-.24-.26-.57l.81-.82c-.32.04-.6.23-.84.6l-.03.09c-.06-.14-.11-.3-.17-.45-.7-1.75-1.56-4.1-2.33-5.82.23.58.48,1.16.72,1.74.23.58-.54-1.13-.31-.55.12.29.26.61.39.96.13.35.28.71.42,1.07.28.73.57,1.46.8,2.04h-.03c-.34-.86-.62-1.59-.91-2.32-.14-.36-.28-.73-.44-1.11-.16-.38-.33-.77-.51-1.21-.75-1.72-1.04-2.27-.81-1.69.24.58.49,1.19.76,1.83.26.63.55,1.28.79,1.93.26.66.51,1.31.76,1.95.18.46.34.9.5,1.33.03.07.09.21.2.52-.06-.17-.13-.35-.2-.52l-.05-.06c-.23-.58-.68-1.75-.9-2.33.34.88.67,1.71.98,2.54.06.17.12.34.18.51l-.39.39c-.03-.09-.06-.17-.09-.26-.07-.21-.15-.43-.23-.64-.08-.21-.17-.43-.25-.66-.17-.44-.35-.89-.52-1.34-.36-.9-.69-1.82-1.07-2.67-.24-.57-.28-.56-.29-.55-.24-.57-.47-1.11-.69-1.64-.11-.26-.22-.51-.33-.77-.12-.25-.23-.5-.35-.74-.47-.99-.94-1.97-1.48-3.1,1.94,4.07,3.66,8.24,5.19,12.48l-.78.79c.22.08.42.22.63.32.19.1.36.01.4-.22l.02-.17c.07.19.15.37.21.56l-.84,1.1c.08.11.19.19.22.36.03.15-.12.33-.28.3-.13-.02-.23-.08-.35-.13l-2.12,2.78c-.16-.04-.32-.07-.48-.11.14-.16.28-.32.18-.57-.12-.31-.3-.56-.64-.63-.1-.02-.2-.01-.24-.02-.3.03-.45.22-.39.45.06.2.17.38.26.57-13.08-3.34-26.47-5.47-39.96-6.32-17.07-1.08-34.37-.36-51.25,2.48-3.26.55-6.51,1.17-9.72,1.99-1.81.46-3.61.95-5.41,1.45-.35.1-.8.15-1.11.33.27-.15.86-.2,1.13-.27-.35.09-.95.23-.41.11.49-.11.99-.23,1.48-.33,1.85-.4,3.7-.75,5.57-1.08,6.62-1.15,13.31-1.93,20.01-2.43,21.49-1.61,43.26-.29,64.34,4.23,4.58.98,9.11,2.18,13.6,3.48-.64.31-1.39.64-1.27.67.52.1-4.65-.6-4.19-.32.2.12.44.18.67.25.4.12.81.21,1.19.42l.08.03c1.12.2,2.12.78,3.21,1.1,1.06.31,2.09.71,3.14,1.07.45.15.89.32,1.34.47.26.08.5.19.66.42.17.24.39.35.66.4.21.04.39.13.56.28.12.11.17-.02.21-.12l.17-.12.15.16c.05.19.03.38-.08.54-.16.24-.14.5-.07.77.11.47.31.9.61,1.29.91,1.18,1.8,2.37,2.69,3.56h.15c.12-.16.2-.16.27-.04.23.39.42.8.46,1.26l.08.21c.11-.06.08-.17.08-.27,0-.11,0-.21-.03-.32-.1-.39-.21-.77-.24-1.17-.01-.14-.11-.23-.25-.28-.13-.04-.16-.13-.08-.24.11-.15.22-.29.25-.49.02-.13-.07-.3.09-.4.03.13.07.26.09.39.16,1.08.3,2.16.54,3.23l.11.21h.07s.05-.03.05-.03l.03-.15c-.14-.9-.29-1.79-.42-2.68-.06-.37-.08-.74-.12-1.11-.02-.19,0-.38.05-.56.02.08.03.14.05.24.13.61.26,1.23.38,1.85-.16-.61-.07.02.06.63.29,1.38.52,2.83.78,4.27.14.72.23,1.45.35,2.18.11.73.22,1.45.33,2.18.4,2.9.76,5.73,1.02,8.26.05.47.1.95.15,1.43.05.48.08.98.13,1.5.04.52.08,1.05.13,1.62.05.57.07,1.16.11,1.8h-.03s.02.08.03.21c0,.13.02.31.03.51.02.4.05.88.06,1.2h.04s.01.1.01.1c0,.07.01.17.02.29.01.24.02.56.04.88h.03c.04,1.27.1,2.56.1,3.85h.03c0,.64.03,1.93,0,2.58h.03s-.03,0-.03.64c0,.11,0,.17,0,.27-.19.21-.39.41-.62.59-.14.1-.11.24.02.32.2.12.39.15.59.17,0,.26,0,.5,0,.67,0,.41-.02.57-.02.57,0,.17.31-.29.7-.92.02-.15.03-.29.06-.48l.16-.06.11-.08v.11s.11-.18.11-.18l.03-.02h.08c-.01.11-.03.21-.04.31l.14-.21.02.05c0,.19-.02.37-.02.56,0,.18.32-.3.75-.96.17.35.29.54.3.4,0-.22.01-.47.02-.7l-.03-.16.03-.05v.21s.02.15.02.15c-.04.56-.08,1.04-.1,1.38l-.11-.23-.07-.02c-.16.02-.26.25-.22.56l.13.14.19-.09c.06-.1.07-.19.08-.28-.04.55-.03.69.08.08.07-.32.24-1.4.39-2.51.28-.44.56-.86.78-1.16-.19-.28-.13-.48.06-.7l.02-.05c-.21.02-.37.15-.55.25-.23.13-.47.24-.71.35-.19.09-.39.15-.61.07-.1-.04-.17,0-.24.05.02-.39.04-.77.05-1.06.73-.59,1.54-1.05,2.31-1.57,1.03-.7,2.04-1.4,3.06-2.1.54-.37,1.04-.81,1.63-1.11l.12.06-.02.07-.04.07-.05.06c-.61.31-.94.9-1.35,1.42-.21.27-.49.48-.61.82.1.02.22.03.25.13.12.41.14.84.1,1.26l-.11.06c-.23-.11-.28,0-.27.21.1,1.22.08,2.45.36,3.66.08.33-.02.51-.32.64-.14.06-.29.12-.45.15-.85.17-.88.09-1.27-.56-.36-.61-.75-1.2-1.14-1.79-.57,1.52-2,4.83-1.83,4.93.1.06.21.06.29-.02.16-.17.3-.36.46-.54l.13-.06.12.17c0,.18,0,.37-.04.55-.09.56-.04,1.12.04,1.67.06.41.26.75.58,1.01.17.14.42.14.58-.01l.21-.24c.14-.14.1-.43.39-.42.14.2.07.42.04.62-.08.59-.07,1.17-.01,1.76.03.3.11.58.27.83.26.41.58.44.9.09.11-.12.18-.26.29-.38l.19-.11c.1.04.12.16.11.27l-.03.24c-.08.44-.16.89-.26,1.33-.1.44,0,.85.12,1.26.07.23.23.33.49.31,1.09-.08,1.98-.53,2.5-1.54.29-.57.42-.42.65-.03.23.4.51.74.88,1.01.85.6,2.03.46,2.72-.32.21-.24.34-.53.49-.81.05-.09.22-.1.26-.01.07.14.14.29.21.43.14.26.26.53.42.77.42.57.96.9,1.69.81.11-.01.21-.02.32-.03.88-.05,1.45-.55,1.81-1.34.07-.14.12-.3.19-.44l.12-.08c.09-.03.15.04.18.11.12.29.22.6.36.89.52,1.07,1.87,1.63,2.95,1.2.4-.16.72-.44.94-.82.16-.27.31-.56.47-.83.06-.1.21-.11.26,0,.13.26.24.53.37.8.4.85,1.06,1.37,1.94,1.64.44.13.78.02,1.04-.34.37-.5.63-1.05.6-1.7-.02-.43-.05-.85-.07-1.28,0-.13.01-.26.03-.39l.18-.09c.14.12.28.24.4.38.21.25.48.41.75.57.55.33,1.37-.07,1.54-.65.18-.6.33-1.18.15-1.8-.04-.12-.02-.26-.01-.39l.18-.08.23.21c.18.16.34.33.54.46.52.34.97.29,1.44-.12.24-.21.43-.47.52-.79.12-.41.21-.82.19-1.26-.01-.21-.02-.43-.02-.64l.06-.14.14.04c.17.16.32.36.51.5.48.37,1.14.33,1.6-.06.31-.26.54-.58.63-.98.04-.21.08-.42.11-.63v-.16c.07-.33-.02-.68.19-.99.29.15.44.45.65.68.48.54,1.06.76,1.77.58.17-.04.27-.23.16-.36-.56-.72-.83-1.61-1.35-2.35-.14-.2-.2-.43-.28-.66-.09-.28-.1-.51.1-.74.14-.17.18-.38.15-.6-.05-.38.02-.74.08-1.11.39-2.26.66-4.53.98-6.8.38-2.72.78-5.43,1.18-8.14l.04-.16c.05-.19,1.65-13.12,1.99-15.14.19-1.12.06-.86.9-1.56l.19-.14c.15-.12.33-.15.52-.12.29.04.55.14.76.38.17.2.36.39.55.57.27.24.6.39.94.28.37-.12.66,0,.98.13.92.39,1.85.77,2.76,1.17.97.42,1.94.82,2.9,1.27,1.15.53,2.48-2.25,1.26-2.81h0ZM247.31,94.15l-.02.08c-.04.11-.11.18-.22.2-.09.02-.25-.13-.26-.24v-.08c0-.23.13-.39.3-.4.15,0,.25.2.21.44h0ZM249.09,96.73c0,.11.01.25-.09.35l-.13.07-.11-.09c-.06-.18-.07-.36.08-.51l.2.02.05.17h0ZM250.69,93.3l-.09.1-.13-.06c-.21-.27-.42-.54-.63-.82-.11-.15-.2-.31-.23-.5-.01-.09.03-.16.11-.19.1-.04.2-.06.24-.07.39-.05.5,0,.62.29.17.4.18.82.12,1.25h0ZM253.18,6.15c-.17.11-.35.29-.57.15-.17-.11-.16-.32-.18-.51-.03-.33.04-.63.19-.92.07-.13.25-.16.32-.04.14.26.28.51.4.78.11.23.06.39-.17.53h0ZM255.46,9.19c.24-.15.51-.25.76-.37.28.1.57.16.77.38v.21c-.28.2-.56.4-.84.59-.09.06-.2.08-.29,0-.24-.2-.51-.74-.4-.81h0ZM254.91,10.59h.02c0-.1-.04-.21-.02-.31.04-.18.2-.23.36-.23l.21.06c.13.15-.03.21-.11.3-.1.11-.2.24-.3.35l-.07.02-.09-.1v-.08h0ZM254.22,7.36c.19.04.35.12.46.29l.05.22c-.23.35-.47.69-.72,1.04l-.27-.03c-.06-.12-.11-.24-.15-.31-.02-.35.04-.64.12-.92.06-.2.3-.33.5-.29h0ZM257.38,7.92c0,.13.02.27-.07.38-.06.07-.27-.01-.41-.15-.14-.13-.24-.29-.23-.49.03-.55-.25-.96-.62-1.33-.09-.09-.18-.07-.25.04l-.1.21c-.16.24-.37.3-.61.17-.34-.18-.58-.45-.71-.82-.08-.24,0-.49.18-.65.16-.13.35-.13.58.03.54.38,1.08.77,1.62,1.14.39.28.67.61.6,1.04.01.2.03.3.03.41h0ZM285.96,45.3c-.02-.22.11-.4.2-.59.09-.19.16-.4.37-.5.13.23-.08.38-.15.56-.07.2-.19.37-.29.56l-.07.03-.06-.06h0ZM286.09,40.94l-.05.03.04-.04.06-.04-.05.05h0ZM279.14,93.44l.29.04c.21.11.27.33.19.61-.07.23-.23.37-.49.38l-.22-.12c-.26-.27-.13-.79.23-.9h0ZM275.71,96.11l.02-.19c.03-.15.17-.29.32-.31.15-.02.3.06.39.2.12.19.16.39.14.61-.02.16-.1.3-.26.37-.12.06-.29,0-.42-.13-.14-.14-.19-.31-.19-.55h0ZM273.91,92.04c-1.02-.43-2.04-.86-3.05-1.29-.27-.11-.53-.23-.72-.47-.11-.13-.25-.18-.42-.19-.1,0-.21-.01-.31-.03-.14-.03-.24-.12-.27-.26-.03-.16-.05-.32-.05-.48,0-.69.02-1.38.04-2.08,0-.34,0-.69.04-1.03.1-.82.16-1.64.18-2.47,0-.37.06-.75.09-1.12l.07-.22.12-.08.07.04c.25.3.34.73.71.94-.03-.19-.02-.37.18-.47.09-.05.26-.08.27-.13.01-.17-.17-.16-.28-.21-.22-.09-.29-.29-.33-.5-.08-.34.14-.68.5-.78.22-.07.57.17.66.45.03.1.05.21.05.31,0,.35-.1.68-.23.99-.07.18-.22.29-.41.33-.13.02-.26.01-.39.02.19.16.4.12.6.07.8-.23,1.41-.69,1.78-1.46.16-.34.26-.69.36-1.06.05-.19.15-.35.38-.34.29,0,.5-.12.68-.34.17-.2.4-.23.64-.25.3-.02.42.06.54.35.26.64.41,1.32.75,1.93.08.14.1.31-.01.45-.1.13-.08.22,0,.35.91,1.63,1.81,3.25,2.71,4.88.18.32.35.65.51.99v.3c-.06.18-.21.3-.39.35l-.14-.04c-.11-.21-.22-.25-.4-.06-.2.21-.42.41-.65.57-.24.17-.45.34-.51.66-.04.19-.22.29-.37.4-.49.36-.97.72-1.47,1.08-.19.14-.4.25-.6.37-.15-.1-.3-.21-.45-.3-.14-.08-.29-.12-.44-.18h0ZM272.85,98.41c-.01-.16,0-.32.09-.46.08-.14.29-.19.4-.1.19.16.32.35.35.6.02.14-.02.26-.09.38-.14.22-.46.23-.6.02-.09-.14-.14-.29-.15-.45h0ZM270.49,100.43v-.06s.07.01.07.01v.05s-.07,0-.07,0h0ZM269.13,94.65c-.03-.43-.06-.85-.06-1.28,0-.29.02-.59.05-.87.04-.34.18-.45.52-.46.35-.01.68.08,1,.21.81.33,1.61.66,2.41.99l.21.12.02.28c-.08.07-.15.16-.24.2-.77.37-1.4.93-2.06,1.46-.5.39-1.05.71-1.58,1.05l-.26-.1c-.01-.05-.02-.1-.05-.24.07-.39.08-.87.04-1.35h0ZM268.5,88.06l.15.04c.17.11.05.22-.01.32l-.08.13h-.12s-.04-.16-.04-.16c.01-.11-.05-.26.11-.33h0ZM264.51,100.39c-.02-.2.15-.43.35-.46.23-.04.49.17.49.4,0,.21-.17.39-.39.41-.22.02-.42-.14-.45-.35h0ZM259.56,100.12c-.02-.21.15-.4.37-.42.22-.01.41.14.44.36.02.22-.14.39-.37.41-.23.02-.41-.13-.43-.35h0ZM257.77,95.22l.17-.09c1.17.07,2.35.13,3.52.24.41.04.83.05,1.25.1l.08.11-.06.04c-.13,0-.26,0-.39-.01v.03c-1.39-.08-2.77-.17-4.15-.25-.1,0-.21-.04-.3-.08l-.11-.09h0ZM254.71,99.56c0-.19.15-.36.33-.38.23-.02.47.17.5.4.03.19-.16.39-.38.4-.25.02-.45-.18-.45-.43h0ZM254.23,90.84c.18-.04.36-.08.54-.12.69-.17,1.37-.37,2.07-.5,1.45-.26,2.88-.61,4.29-1,.39-.1.75-.2,1.15-.09.19.05.42.02.63-.01.27-.04.51.02.76.13.5.24,1.01.45,1.52.68.39.17.77.35,1.16.5.3.11.49.3.5.64,0,.28.11.52.3.72l.19.26c.27.28.33.66.21.97-.13.34-.1.67-.14,1.01-.03.19-.04.37-.15.53-.06.09-.1.18-.14.28-.1.23-.08.28.15.44.2.14.27.29.21.45-.07.18-.23.19-.39.19-.45-.01-.89-.02-1.33-.05-.24-.01-.47-.06-.7-.1-.14-.02-.17-.1-.08-.22l.04-.14c-.15-.18-.28-.39-.54-.44-.36-.06-.72-.11-1.09-.15l-.21.08c-.22.27-.51.25-.8.22-1.78-.15-3.56-.23-5.34-.43-.39-.05-.79-.04-1.18-.06-.5-.02-1-.03-1.49-.06-.3-.02-.41-.14-.44-.46-.04-.45-.07-.9-.1-1.36h-.01c-.03-.4-.06-.8-.08-1.2-.03-.55,0-.6.51-.7h0ZM267.25,82.02c-.03.8-.06,1.59-.09,2.39,0,.16-.01.32-.02.48-.03.74-.06,1.49-.09,2.23-.02.48-.03.96-.05,1.43l-.03.24c-.03.13-.16.24-.29.21-.25-.07-.51-.14-.75-.23-.32-.12-.62-.3-.95-.39-.57-.16-.95-.54-1.31-.97-.09-.11-.12-.23-.07-.37.05-.15.11-.3.16-.45.34-.95.69-1.9,1.04-2.85.3-.82.61-1.65.9-2.47.11-.3.3-.5.61-.55.18-.03.36-.06.54-.08.18-.02.32.09.35.25.03.15.04.31.06.48,0,.2-.02.42-.02.63h0ZM252.77,82.58c-.02-.2.04-.36.2-.5.46-.39.91-.79,1.37-1.19.1-.09.18-.18.16-.34-.07-.56.17-.97.58-1.31.28-.24.56-.48.83-.73.14-.12.26-.11.38.06.11.13.16.27.12.44-.02.12.01.22.16.17.16-.04.31-.03.46.03.13.05.15.11.03.27l-.04.19.15.02c.23-.06.45-.14.68-.2.32-.08.44-.05.59.22.16.29.39.5.63.71.2.18.43.33.57.55.28.42.7.52,1.14.62.49.12.94.03,1.36-.22.2-.12.36-.34.57-.41.28-.09.44.25.68.33.1.03.21.05.3.1.1.05.15.16.12.27-.06.23-.12.46-.2.69-.16.48-.34.95-.5,1.43-.3.91-.59,1.82-.89,2.73-.04.13-.09.25-.14.38-.1.24-.26.37-.51.44-1.36.41-2.74.72-4.08,1.2-.69.25-1.41.42-2.14.52-.34.05-.66.15-.99.24-.25.07-.48.22-.75.21-.21-.24-.14-.55-.22-.82v-.08c-.16-1.67-.3-3.35-.56-4.92-.03-.42-.05-.77-.08-1.12h0ZM260.19,80.18c.18-.03.36-.03.65-.05.04-.01.19-.05.34-.08l.15.03c.15.11.25.27.26.46l-.06.13c-.21.1-.42.21-.64.27-.29.07-.57-.03-.8-.21-.11-.09-.18-.2-.13-.34.04-.11.12-.18.23-.2h0ZM259.96,78.99l-.07-.11.12-.06.07.11-.11.06h0ZM244.62,86.75l.24-.18c-.02.38-.05.74-.08,1.09l-.05.05-.1.13c0-.37,0-.73-.01-1.09h0ZM243.4,89.4c.03-.37.05-.72.06-1.04.02-.49.05-.98.09-1.63,0,0,0-.06,0-.17,0-.11.01-.27.02-.47,0-.17.37.67.8,1.64v-.05c.01-.12.02-.22.03-.3l.02-.11s.02.2,0,.53v.05s.08.18.08.18l-.09.12c0-.11,0-.22.01-.3l-.05-.11c-.01.14-.02.33-.03.51-.11.14-.21.29-.32.42-.2.25-.4.5-.6.74h0ZM239.73,49.47c.17-.27.37-.53.35-.9l.14-.18c.14-.12.31-.18.5-.23.55-.14.93-.52,1.12-1.02.13-.35.33-.6.58-.83.33-.3.69-.58,1.03-.87.93-.82,1.91-1.59,2.89-2.34l.19-.14c.42-.39.82-.8,1.32-1.11.49-.31.91-.72,1.36-1.08.14-.12.29-.24.44-.34l.28-.09c.34.16.54-.07.77-.25.23-.18.48-.34.49-.68,0-.14.1-.24.18-.34.19-.22.5-.37.6-.28.16.14.14.34.16.52.05.3-.05.58-.14.86-.1.3-.24.59-.38.88s-.27.57-.25.89l.21-.07c.11-.05.2-.22.34-.14.16.09.34.2.37.4.09.63.32,1.24.36,1.88.07,1.01.16,2.02.24,3.03,0,.1.05.2.09.3h.08s.05-.16.05-.16c0-.35,0-.69-.01-1.04-.02-.3.02-.58.11-.87l.09-.1.11.11c.13.21.15.45.16.69.05.59.08,1.17.13,1.76.06.85.13,1.7.29,2.54.11.57.12,1.17.17,1.75.07.88.14,1.76.21,2.63,0,.11,0,.22.03.32.19.67.22,1.36.19,2.06-.01.37.09.74.13,1.11.02.21.08.43.04.64-.13.73,0,1.43.15,2.14.11.52.13,1.05.17,1.58.09,1.41.2,2.82.3,4.23.07.93.12,1.86.18,2.79.02.32.04.64.15.94.05.14.07.32.05.47-.08.67-.06,1.32.14,1.97.04.12.04.26.02.39-.1.78-.04,1.54.16,2.3.05.19.06.37.01.55-.06.24-.04.48,0,.71.04.24.22.41.44.36.49-.1,1-.05,1.49-.1.26-.03.52-.04.78.04.15.04.32.05.46.01.65-.17,1.3-.1,1.94.06.17.04.24-.02.29-.17.06-.18.21-.24.37-.22.23.02.45.08.68.13h0s.06-.04.06-.04l-.04.05h-.02s-.03.06-.03.06l-.1.12.07.09c.31.02.63.04.94.07.24.03.47,0,.7-.05.46-.08.92-.23,1.39-.04h.23c.23-.02.48-.11.69-.06.2.06.4.1.6.13.34.06.68.06,1.02.08.6.02,1.2.07,1.8.12.24.02.47.04.7-.01l.16-.14c.02-.07-.09-.2-.2-.21-.39-.04-.78-.07-1.17-.12-.86-.12-1.72-.14-2.59-.17-.76-.03-1.52-.07-2.27-.1-.65-.02-1.31-.02-1.96-.05-.76-.03-1.52-.06-2.27-.1-.57-.03-1.15-.13-1.69.17-.12.07-.27.03-.38-.04-.23-.14-.46-.22-.73-.21h0s-.02.03-.02.03v.04s-.06.02-.06.02l.06-.06v-.03s.02,0,.02,0c-.05-.42-.1-.84-.13-1.27-.06-.72-.13-1.43-.23-2.15-.11-.76-.16-1.54-.21-2.31-.19-2.64-.37-5.27-.55-7.9-.04-.56-.07-1.12-.11-1.68-.05-.64-.06-1.28-.26-1.9-.06-.2-.06-.42-.08-.63-.07-.8-.12-1.6-.19-2.39-.05-.58-.06-1.17-.23-1.74-.04-.13-.03-.26-.04-.4-.13-1.62-.25-3.25-.39-4.87-.11-1.19-.26-2.38-.37-3.57-.07-.74-.11-1.49-.18-2.24-.12-1.3-.26-2.6-.38-3.9-.04-.42-.05-.85-.06-1.28,0-.12.09-.19.19-.22.1-.02.21-.04.31-.03.39.03.78.06,1.17.11.13.01.27.05.37.12.34.26.75.22,1.13.29.18.04.36.02.54-.04.64-.21,1.29-.21,1.95-.15.63.05,1.26.06,1.89.1.86.05,1.73.08,2.59.18.88.1.83.11,1.03.84.23.85.48,1.69.79,2.51.22.6.69.92,1.15,1.27.07.05.2.05.3.04.1-.01.2-.06.3-.1.44-.18.5-.28.34-.72-.26-.7-.34-1.45-.51-2.18-.08-.36-.14-.73-.24-1.09-.05-.17.08-.33.25-.32,1.15.07,2.31.13,3.46.22.34.02.66.11.99.22.49.17,1.02.29,1.55.21.61-.1,1.21,0,1.81.04.42.02.76.44.75.86-.02.56-.03,1.12-.08,1.68-.07.79.14,1.57.17,2.35.21-.29.21-.63.24-.96.02-.29.19-.48.44-.61.12-.06.29.03.31.16.01.1.04.21.02.32-.13.76-.2,1.53-.17,2.31,0,.13-.05.26-.06.39-.09.9-.14,1.8-.16,2.71-.02.69-.08,1.38-.12,2.07,0,.11-.01.21-.02.32,0,.77.02,1.55-.03,2.31-.07,1.22-.07,2.45-.26,3.66-.02.16-.05.32-.04.48.03,1.33-.1,2.66-.17,3.99-.02.21.01.43.01.64,0,.24-.02.48-.03.72,0,.21-.04.43-.02.64.05.77-.01,1.54-.1,2.31-.01.13-.03.27-.02.4.09.96-.05,1.91-.1,2.87-.04.66-.11,1.32-.07,2,.03.55-.03,1.12-.09,1.67-.08.82-.14,1.64-.08,2.47.02.37.04.74-.02,1.11-.08.46.03.9.25,1.31.06.11.01.22-.11.26-.13.04-.25.06-.36.15-.15.13-.33.16-.52.11-.62-.15-1.25-.08-1.88-.13-1.17-.11-2.35-.13-3.52-.32-.46-.07-.94-.12-1.41-.12-.87,0-1.73-.1-2.6-.03-.6.05-1.2.03-1.8.02-.65-.02-1.32-.02-1.96.14-.17.04-.31.04-.44-.08-.12-.12-.26-.18-.42-.19-.66-.02-1.31-.08-1.97-.05-.58.03-1.15.02-1.73-.02-.16-.01-.32-.02-.46-.07-.23-.07-.41-.05-.53.19-.06.12-.17.21-.3.24-.43.09-.74.39-1.05.67-.08.07-.15.15-.25.19l-.22-.02-.04-.2c.13-.2.27-.39.39-.59l-.03-.14-.14-.04c-.86.5-1.71,1.04-2.49,1.67l-.21.24c-.14.15-.2.3-.12.51.11.26.03.46-.2.62-.41.29-.78.62-1.27.79-.23.07-.42.21-.58.4-.29.35-.66.61-1.02.87-.11.08-.22.15-.32.23-.39.31-.76.66-1.23.85-.78.67-1.7,1.15-2.45,1.86l-.09.06c-.04-1.81-.09-3.58-.18-5.2-.04-.64-.16-1.92-.21-2.56-.36-5.12-.96-10.51-1.83-15.91-.69-4.29-1.61-8.54-2.65-12.7h0ZM268.81,37.56c-.16-.07-.33-.14-.49-.21l-.06-.04.08-.09.22-.05.15-.04c.12-.02.23.07.26.22.02.11-.08.24-.16.2h0ZM268.2,35.25l.04.21-.11.08c-.24-.01-.44-.09-.56-.32l.07-.13c.2-.02.41.02.57.15h0ZM267.65,28.38l-.05-.02.09-.02-.04.04h0ZM257.59,23.3c.72-.39,1.45-.31,2.18-.05l.03.2-.22.22c-.53.18-.85.59-1.15,1.03l-.12.12-.17-.12c-.18-.39-.39-.74-.66-1.08-.09-.11-.03-.24.11-.32h0ZM257.31,23v-.06s.14,0,.14,0v.05s-.14.02-.14.02h0ZM260.27,24.63c.49,0,.93.17,1.19.63.07.11.1.24.13.37.05.19-.07.38-.24.44-.1.03-.2.05-.27.07-.48-.02-.92-.02-1.37-.05-.38-.02-.55-.29-.42-.67.15-.44.56-.81.97-.8h0ZM262.29,28c-.49-.15-1.03-.05-1.57-.05-.1,0-.21,0-.31-.04-.09-.03-.19-.08-.27-.14l-.04-.14.11-.09c.1-.01.21-.03.31-.01.59.09,1.17.2,1.76.3l.23.04.05.05-.05.05s-.1.02-.21.04h0ZM262.46,36.78l.04.04-.02.05-.04-.04.02-.05h0ZM261.43,23.51l.17-.13.13-.02c.08,0,.21.01.34.03.65.07,1.29.17,1.95.16.34,0,.67.06,1.01.1.08,0,.15.06.15.15l-.07.13-.07.04c-.66.21-1.12.66-1.43,1.27-.07.14-.18.26-.29.37-.11.12-.31.08-.38-.09-.07-.17-.12-.35-.18-.52-.18-.49-.44-.9-.94-1.12-.12-.05-.22-.15-.31-.23l-.07-.13h0ZM262.86,35.1l-.11-.18.04-.07.07.02c.04.08.18.17,0,.22h0ZM262.9,30.3l-.11-.08c-.02-.14.08-.28.2-.26l.11.09c.04.12-.07.26-.21.26h0ZM264.81,27.95c.44.06.89.05,1.33.1.31.03.62.09.93.13l.07.02.07.12-.11.1c-.21.07-.41.03-.62-.01-.64-.12-1.27-.36-1.92-.11h-.15c-.38-.13-.75-.26-1.15-.24l-.06-.04.05-.05c.15-.02.31-.04.38-.05.46-.02.82-.02,1.19.03h0ZM263.57,34.92l.05.06-.09.1-.04-.05.09-.1h0ZM264.95,36.45l.06.04c.03.13-.07.34-.18.38l-.11-.08c-.02-.15.11-.34.24-.34h0ZM264.83,35.12l-.11-.06.09-.09.08.11-.05.05h0ZM265.43,35.2l-.03-.07.08-.11.07-.02c.54.04,1.09.08,1.63.12l.02.07-.05.06c-.35-.05-.66.11-.93.17-.33.02-.58-.05-.8-.22h0ZM265.92,36.82c.08,0,.15.05.14.15l-.12.07c-.08,0-.15-.05-.14-.15l.12-.07h0ZM266.43,35.73l.03.05-.04-.04-.03-.05.04.04h0ZM267.02,37.18c.07-.02.16-.02.18.07l-.14.15-.13-.05.09-.17h0ZM251.74,33.8l.22.06c.28.05.57.09.85.14.14.03.25.25.2.38-.05.12-.16.1-.26.09-.18-.02-.37,0-.51-.15h.01c-.23.03-.47.07-.67-.12-.08-.08-.17-.12-.21.06-.1.47-.2.93-.31,1.4l-.1.21-.2-.02c-.1-.14-.1-.28-.11-.45,0-.4-.1-.79-.29-1.13-.11-.21-.19-.37-.04-.58.12-.16.11-.35.03-.53-.1-.24-.18-.49-.32-.72-.2-.33-.35-.71-.51-1.07l.05-.14h.21c.29.23.42.59.59.92.13.26.24.53.36.8.05.1.14.17.25.17.24,0,.51-.13.67.2l.21.03c.13-.01.25-.06.38-.06.11,0,.2.08.2.2l-.15.15c-.1.01-.21.01-.31.04-.09.03-.22,0-.27.13h0ZM252.01,35.8l.09.07-.2.07-.05-.05c.01-.09.09-.1.16-.09h0ZM252.54,36.23h.03s.09-.17.09-.17l.11-.02-.04.11-.17.07v.02s-.06.03-.06.03l.04-.04h0ZM249.09,33.7l-.14-.04c-.35-.4-.6-.85-.77-1.35l.08-.13.21-.02c.38.38.61.84.73,1.37l-.11.18h0ZM242.62,43.06c-.06.12-.15.21-.27.26h-.07s-.03-.07-.03-.07c.06-.14.15-.27.31-.3l.06.04v.08h0ZM237.35,47.57l.05-.12.15-.03.14.04-.08.11-.14.06-.13-.06h0ZM232.81,45.05l.05-.13.13.04-.05.13-.13-.04h0ZM234.23,40.26c-.19.18-.4.35-.59.53-.53.48-1.08.92-1.54,1.48-.37.45-.73.91-1.23,1.22-.12.08-.17.2-.12.34v.08c-.06.48-.18.56-.61.4l-.3-.5c.28-.39.61-.85,1.02-1.39h.05c.17-.13.3-.3.38-.5.1-.25.24-.4.54-.32l.21-.09c.12-.13.24-.28.34-.43.13-.2.41-.11.53-.3l.1-.13c.28-.31.62-.54.99-.73.11-.06.24-.12.37,0,.07.06.03.2-.12.34h0ZM235.37,36.32l-.36.47c-.09-.23-.17-.48-.26-.72.02-.14.05-.28.06-.43,0-.17.11-.31.16-.46.14.38.27.76.4,1.14h0ZM235.61,39.04c-.13.09-.24.2-.37.29-.09.06-.21.03-.28-.07-.17-.26-.12-.62.12-.78.1-.06.21-.1.3-.16.08.24.15.48.23.72h0ZM236.16,38.61l-.11.1c-.08.08-.19.14-.28.21-.08-.22-.16-.46-.26-.73.09-.1.18-.2.24-.33.08-.2-.08-.29-.15-.42l-.06-.23c0-.11.02-.22.02-.33l.07.18c.14.41.28.81.43,1.22.04.11.07.22.11.33h0ZM236.8,43.23c.09.14.15.21.22.24.04.12.08.24.11.36-.22.19-.44.39-.67.57-.35.28-.7.59-1.14.74v.03s-.12.11-.12.11l-.04.06-.15.14-.19-.05.11-.08.22-.02.05-.05.09-.12.03-.02c.2-.27.27-.54.02-.83-.1-.12-.18-.26-.29-.38-.2-.24-.41-.48-.62-.72l.03-.21h.15c.2.1.32.28.44.45.22.3.43.61.65.9.07.09.18.12.28.05.17-.12.34-.25.49-.39.13-.11.15-.3.05-.43-.26-.37-.53-.73-.79-1.09-.09-.13-.19-.25-.29-.38l.04-.14.14-.02c.09.04.19.1.26.17.35.32.65.7.9,1.1h0ZM236.83,40.95h-.03c.05.17.11.38.17.55l-.02-.03c-.12-.12-.22-.24-.33-.36l-.04-.11v-.08s.15-.04.15-.04l.11.07h0ZM237.16,41.74l-.05-.07-.04-.14c-.08-.26-.16-.48-.17-.55l.04.03c.08.24.15.48.23.73h0ZM237.55,43.47l-.16.14-.08-.26.04-.02.12-.12.07.26h0ZM243.3,30.87c.01.15-.06.32-.15.33-.48.04-.94-.05-1.34-.33-.09-.06-.13-.17-.09-.28.04-.13.08-.26.15-.36.26-.37.57-.43.95-.22.33.19.46.49.49.85h0ZM244.02,37.07c.13.2.14.2.45.1l.2-.05v-.02s.16-.17.16-.17h.02c.11-.25.14-.49-.03-.73-.11-.17-.2-.37-.28-.56l.07-.12.07-.02c.18.04.34.12.46.28.14.18.17.46.45.52v.13c-.22.2-.41.46-.74.51v.02s-.15.17-.15.17h-.03c-.26.38-.57.7-1.02.86h0c-.09.04-.14.09-.15.19h-.02c-.1.29-.33.47-.54.65-1.23,1.07-2.47,2.13-3.72,3.19-.09.08-.22.1-.33.15v.02c-.13.02-.24.06-.31.18l-.15.18h-.01c-.07.22-.23.37-.4.52-.06-.21-.12-.38-.15-.48-.07-.22-.15-.46-.23-.7l-.08-.22c.17.21.36.4.49.64.08.15.21.21.37.23h0s.15-.18.15-.18c.12-.02.23-.06.31-.18h.02c.1-.26.12-.49-.04-.74-.26-.4-.53-.8-.86-1.14-.11-.11-.23-.23-.24-.4l.06-.14.14-.03c.13.08.27.17.38.28.34.37.64.77.89,1.21.15.27.22.27.49.07.1-.08.21-.16.3-.25.17-.16.19-.3.09-.5-.2-.41-.47-.77-.76-1.11-.1-.12-.2-.24-.29-.37l.04-.21.21-.03c.11.06.21.15.3.25.34.37.62.79.87,1.23.06.1.18.13.27.05.72-.6.68-.54.23-1.27-.1-.16-.23-.29-.34-.44-.11-.15-.23-.3-.32-.45v-.22s.2-.07.2-.07c.23.06.43.17.55.41.16.31.34.6.52.89.13.21.24.22.45.06.11-.08.21-.16.31-.25.17-.15.19-.22.11-.41-.15-.37-.36-.71-.6-1.03-.1-.13-.19-.25-.27-.39l.06-.2.21-.02c.13.09.24.21.34.33.23.29.46.58.68.88.09.13.2.14.34.08.09-.04.19-.05.28-.07v-.02c.09-.02.15-.08.16-.17h.01c.06-.21.11-.38-.02-.6-.2-.32-.37-.64-.61-.93-.1-.12-.23-.24-.09-.42.1-.13.28-.09.46.12l.19.25c.15.22.29.44.43.67h0ZM251.15,24.75l-.2.24-.27-.04c-.04-.12-.08-.25-.11-.34v-.19c.03-.13.16-.22.3-.18.29.06.41.28.27.52h0ZM252.24,27.19c.26.03.53.08.78-.02.24-.09.46-.04.7-.02.63.07,1.25.13,1.88.17.68.05,1.36.08,2.04.1.47.02.92.2,1.41.15.17-.02.36-.08.51.08.07.08-.17.21-.51.27-.11.02-.2.04-.3-.03-.17-.12-.36-.12-.53-.06-.34.13-.68.05-1.01,0-.57-.08-1.16-.07-1.71-.26-.09-.03-.21,0-.31,0-.18,0-.37.01-.54-.03-.44-.1-.89-.1-1.33-.06-.58.04-1.15.05-1.73-.02-.28-.03-.57-.03-.86-.01-.29.02-.56-.05-.75.26-.05.08-.17.12-.27.15-.85.26-1.53.8-2.19,1.37-.14.12-.27.26-.43.35-.66.35-1.16.91-1.77,1.33-.08.06-.16.14-.2.24-.15.39-.46.48-.82.51-.21.02-.36-.05-.4-.18-.05-.15.02-.26.11-.36.16-.17.34-.33.5-.5.19-.2.21-.36.1-.58-.05-.09-.11-.18-.16-.27-.07-.11-.21-.24-.19-.33.03-.17.22-.05.33-.08.14-.04.23-.11.3-.24.09-.17.15-.34.16-.53.03-.24.06-.48.13-.7.07-.23.22-.44.47-.5.36-.09.73-.15,1.01.22l.17.16c.15.12.29.13.43.01.16-.14.31-.29.48-.42.31-.23.43-.52.34-.9l-.02-.16c-.01-.11-.02-.21-.04-.32-.04-.3-.01-.59.12-.86.07-.15.31-.2.39-.07.28.44.46.9.27,1.43-.04.1-.1.19-.14.29-.05.14.09.34.24.34.1,0,.23,0,.3-.07.18-.16.38-.14.59-.14.21,0,.42.05.62.11.12.04.27.1.38.07.51-.13.99.02,1.48.09h0ZM256.39,25.71c-.13.02-.26.02-.46.03-.26-.01-.6.03-.93-.08-.16-.05-.26-.19-.25-.35.04-.57.56-1,1.07-.86.4.11.67.38.82.77.08.21-.05.45-.26.48h0ZM253.52,20.24l-.04.04-.05.03.03-.04.05-.03h0ZM261.45,19.69c.11-.02.16-.15.08-.24-.14-.16-.31-.3-.35-.52l.04-.22h.2c.36.44.75.55,1.24.23.14-.09.29,0,.25.15-.07.31.03.52.26.7l.08.19-.13.07c-.55.04-1.1.11-1.65.1-.32,0-.63.02-.92.14-.35.14-.71.2-1.08.19-.32,0-.62.04-.9.23-.15.1-.34.15-.51.19-1.02.24-2.05.45-2.97,1.01l-.22.09c-.42.17-.8.39-1.19.63-.3.18-.55.4-.81.62-.09.08-.2.05-.28-.03-.22-.21-.22-.39,0-.61.18-.19.41-.59.5-.74.12-.19.13-.4.19-.6.24.02.4.19.61.29.16.08.3.03.39-.14.07-.13.13-.27.2-.4-.09-.54.12-1.06.09-1.59l.04-.07.13-.04.14.19c.34.33.66.67.8,1.14l.13.05.17-.14.02-.23c-.04-.3-.01-.58.1-.86.09-.22.17-.45.07-.7-.05-.11.02-.21.1-.28.11-.11.22-.24.35-.32.15-.09.33-.21.51-.11.13.06.14.22.16.35.03.16.15.28.24.4.23.29.31.61.15.97-.04.09-.06.2-.07.3l.09.11c.28-.06.56-.13.83-.22v-.2c-.23-.28-.21-.58-.08-.9.27-.67.46-.8,1.19-.82h.16c.44.02.73.37.67.81-.02.15-.1.3-.15.45-.06.18.01.3.19.36.31.11.62.07.93.01h0ZM262.29,13.79c-.22.04-.4-.03-.57-.15l-.04-.06.06-.12.24-.05c.09,0,.19,0,.29,0,.1,0,.2.04.26.14.04.08-.1.21-.24.24h0ZM261.17,13.06l-.05-.05.06-.11.09.08-.1.08h0ZM260.54,11.94l.09-.13c.33-.03.66,0,.97.15l.05.2c-.04.13-.15.23-.28.22-.26-.01-.52-.06-.71-.26l-.12-.18h0ZM260.13,11.38l.13-.07c.15-.04.3-.07.45-.1l.06.04-.04.12-.15.03c-.16.01-.23.02-.31.02l-.14-.04h0ZM260.4,6.41l-.06-.02.1-.02-.05.04h0ZM260.35,5.79c-.1.01-.21.01-.31,0-.19-.02-.28-.19-.17-.34.12-.17.24-.33.43-.42v-.02s.05-.03.05-.03l-.04.05h-.01c.04.21,0,.42.15.59.13.15,0,.16-.1.17h0ZM260.6,4.29v.07s-.07.04-.07.04l.04-.05.02-.05h0ZM260.82,3.93l-.1.09h0s-.02.04-.02.04v-.03s.02,0,.02,0v-.14s.05-.06.05-.06l.06.11h0ZM265.28,10.38c.01.14-.11.23-.22.3-.13.09-.26.18-.4.25-.21.11-.4.25-.5.48-.07.17-.2.23-.38.19-.46-.08-.92-.17-1.39-.26-.17-.03-.32-.12-.34-.28-.05-.35-.26-.56-.53-.75-.17-.12-.3-.29-.44-.44l-.12-.21.08-.21c.14-.19.34-.27.55-.17.7.31,1.45.43,2.19.6.38.09.77.16,1.15.24.15.03.33.07.34.26h0ZM265.32,12.96v.07s-.1.12-.1.12l-.12.06.03-.19.12-.08.06.03h0ZM266.85,25.68c.12.23.1.39-.11.54-.13.09-.27.16-.38.18-.48-.04-.92-.07-1.37-.11-.13-.01-.25-.04-.38-.08l-.09-.12c0-.3.05-.58.28-.79.2-.18.43-.3.68-.37.09-.03.21-.03.3,0,.44.12.82.32,1.05.76h0ZM266.28,12.99l-.04-.03h-.02s-.18-.01-.18-.01l-.1-.06.13-.04.16.09h.04s.03.05.03.05h0ZM267.31,14.76l-.07.02c-.42-.1-.83-.22-1.17-.52h-.05s-.04-.04-.04-.04l-.14-.04.06-.02.08.05h.05s.04.04.04.04c.45-.03.83.18,1.21.38l.03.11h0ZM269.2,13.46l-.1.2-.22.02c-.29-.17-.44-.44-.47-.79l.14-.18.21.02c.22.2.36.45.43.74h0ZM269.47,24.67c-.24.37-.49.75-.73,1.12l-.21.23-.27-.03c-.1-.21-.21-.43-.29-.65-.23-.64-.68-1.06-1.28-1.31-.1-.04-.2-.07-.28-.13l-.07-.13.06-.05c.27-.09.54-.17.85-.26.06.02.17.03.27.07.55.24,1.11.47,1.69.62l.14.07c.22.1.26.24.14.44h0ZM269.07,28.33l.16.08-.11.07-.19-.05.14-.1h0ZM269.44,28.83l.02.04-.06.02-.02-.04.06-.02h0ZM272.23,26.36v.16c-.03.11-.09.2-.2.22-.08.02-.16.01-.33.03-.4.05-.89-.1-1.38-.14-.4-.03-.52-.29-.35-.68.1-.23.25-.4.46-.52.7-.39,1.7.12,1.81.93h0ZM271.25,31.87l.04-.07.2-.04c.09.06.15.15.14.26-.04.58-.07,1.16-.11,1.74l-.09.21-.13.06-.13-.07-.08-.13c0-.67.05-1.33.14-1.98h0ZM271.77,28.5h.14s-.03.09-.03.09l-.14-.03.02-.06h0ZM273.54,33.46l.08.14c.05.22,0,.43-.14.49h-.07c-.19-.07-.17-.24-.19-.39v-.16s.13-.17.13-.17l.2.09h0ZM273.7,28.75h-.06s.05-.05.05-.05v.05h0ZM273.77,30.87l-.03.22-.14.11-.06-.15.06-.19.12-.03.05.05h0ZM275.64,35.58c.7.06,1.41.12,2.11.19.13.01.07.1.04.17-.05.11-.04.24-.24.23-.3-.01-.35.02-.38.27-.04.3-.37.62.05.92.07.05.03.25.04.38,0,.21-.06.3-.31.39l-.14-.04v-.14s.06-.21.06-.21c-.08-.12-.19-.07-.27.01-.19.17-.42.2-.82.22.06,0-.05.02-.15,0-.57-.13-1.15-.04-1.72-.06-.34-.01-.69-.16-1.01-.11-.39.07-.69-.23-1.06-.18l-.12-.18c0-.2.33-.43.5-.33.28.17.51.13.7-.09.19-.21.41-.31.66-.4.09-.03.03-.14-.02-.19-.07-.07-.16-.16-.27-.05-.19.2-.45.26-.63.08-.23-.23-.45-.16-.7-.17-.33-.02-.68.07-.98-.15-.11-.08-.26-.05-.38.02-.27.13-.51.06-.75-.07-.21-.12-.41-.23-.66-.25-.25-.01-.42-.2-.59-.37l-.03-.14.11-.1c.1-.03.21-.05.31-.04.65.08,1.3.16,1.96.08h.16c.51.17,1.04.04,1.56.16.36.08.73.12,1.09.1.63-.04,1.26,0,1.88.06h0ZM276.99,29.01c-.28.05-.48.3-.77.33l-.08-.12.04-.14c.11-.13.28-.12.46-.14.08,0,.18,0,.29,0l.07.02v.05h0ZM275.75,32.37c-.02.13-.09.24-.15.36h-.13c-.11-.1-.09-.24-.12-.39-.02-.44.06-.88.2-1.31l.16-.16.13.03.07.22c-.04.42-.09.84-.16,1.25h0ZM275.21,29.2l.1.07-.13.06c-.13.01-.26.02-.38.01l-.11-.06.14-.06h.07s0,0,0,0c.1,0,.21-.02.31-.02h0ZM277.13,27.17c-.1.04-.19.07-.25.09h-.13c-.49-.05-.98-.1-1.47-.17-.11-.02-.16-.13-.16-.24,0-.64.66-1.14,1.24-.93.4.15.72.42.94.8.1.17.03.37-.17.45h0ZM277.85,31.43c-.1.87-.2,1.73-.31,2.6l-.07.14h-.13s-.15-.26-.15-.26c.03-.55.05-1.08.11-1.6.03-.34.12-.68.18-1.01l.11-.2.07-.03.13.06c.03.1.06.21.05.31h0ZM281.55,26.74c-.05.28-.12.56-.2.84-.03.11-.12.18-.23.16-.25-.05-.51-.12-.75-.21-.13-.05-.19-.18-.17-.32.06-.46.51-.85.97-.86.24,0,.42.17.38.39h0ZM282.13,29.39l-.03.06c-.15.03-.3.05-.45.08-.29.02-.57.01-.86-.04-.3-.05-.63-.08-.93-.05-.37.04-.72-.07-1.07-.1l-.08-.12.1-.09h.15c.28.06.57.12.85.02.27-.09.52-.07.76.02.21.07.41.07.62.05.23,0,.47,0,.7.01l.21.09.03.07h0ZM280.08,34.14l-.15.17h-.01s0-.01,0-.01l.15-.17.14-.16.15-.17.15-.18.04-.03c.06-.45.4-.66.75-.86l.06.04v.14c-.27.23-.54.45-.8.68l-.02.04-.15.18-.15.17-.14.17h0ZM280.2,36.04c.1-.09.13-.21.13-.33.11-.08.13-.2.13-.33l.15-.17.02-.02c0-.16.05-.3.14-.41.18-.22.37-.45.57-.65.15-.15.33-.26.5-.38h.14s-.03.15-.03.15c-.37.5-.89.85-1.32,1.29v.03s-.16.18-.16.18c-.11.08-.13.2-.13.32-.12.08-.14.2-.13.33l-.05.03.03-.04h0ZM279.77,34.67v-.04s.03-.02.03-.02v.03s-.03.03-.03.03c0,.12-.02.23-.1.32l-.06.04-.05-.12c.03-.11.11-.2.22-.24h0ZM282.71,34.87l-.03.07c-.08.11-.19.15-.32.16h-.01s-.02.02-.02.02c-.1.27-.3.44-.57.52l-.13.13-.02.03-.15.17h0c0,.35-.27.55-.42.81l-.07.04-.05-.13c.09-.31.24-.57.54-.71h0s.15-.18.15-.18l.03-.03.1-.15c.1-.29.32-.44.6-.5h.01s.01-.02.01-.02c.03-.13.11-.22.22-.27l.12.05h0ZM282.01,37.24v-.04s.04-.03.04-.03c.01-.15.07-.28.15-.4.25-.35.59-.61.92-.86l.14.02-.04.14c-.39.37-.78.74-1.17,1.1v.04s-.04.03-.04.03c0,.11,0,.23-.08.31h-.12s0-.06,0-.06c.03-.11.11-.19.21-.25h0ZM283.31,28.51c-.07.11-.25.11-.33,0-.08-.11-.17-.22-.14-.36.05-.26.14-.51.3-.73l.13-.07.12.08c.13.37.13.73-.08,1.07h0ZM284.03,37.24v.07c-.21.18-.39.39-.68.44v.02s-.16.17-.16.17l-.15.17-.06.04.04-.05.15-.17.15-.17h.02c.1-.29.32-.44.57-.57l.11.05h0ZM284.63,42.82h0s0-.02,0-.02v-.05s.06-.02.06-.02l-.06.06h0s0,.02,0,.02c0,.09,0,.18,0,.28l-.04.05-.08-.1c-.01-.1.04-.18.12-.23h0ZM283.92,39.15l-.02.02-.06.04.05-.04h.02c.14-.43.48-.64.85-.81l.07.03.02.06c-.26.31-.52.61-.93.71h0ZM284.95,30.74c-.05.41-.19.67-.35.64-.26-.05-.34-.3-.44-.51-.05-.11-.09-.25-.1-.38-.03-.32.22-.66.5-.71.11-.02.25.07.32.19.14.25.11.51.07.77h0ZM285.52,39.78c-.12.12-.24.21-.41.24l-.02.03-.06.03.05-.04.03-.02c.05-.17.16-.28.3-.38l.14-.05-.02.18h0ZM285.59,43.61l-.1.09h0s0,.02,0,.02c.02.13.02.25-.13.32v.14s-.06.05-.06.05l-.04-.1.09-.09c-.02-.14,0-.25.14-.32h0s0-.02,0-.02v-.14s.05-.06.05-.06l.05.11h0ZM285.72,53.47c-.09.52-.15,1.05-.22,1.58-.17,1.24-.33,2.48-.5,3.72-.2,1.42-.45,2.84-.57,4.28-.04.51-.08,1.01-.14,1.51-.05.44-.26.87-.14,1.33-.12.79-.23,1.58-.34,2.37-.06.42-.15.84-.2,1.26-.3,2.24-.58,4.49-.89,6.74-.19,1.42-.41,2.85-.63,4.27-.07.47-.17.94-.24,1.42-.18,1.21-.36,2.42-.54,3.64-.04.29-.11.58-.18.86l-.13.18-.11-.11c-.29-.45-.58-.89-.85-1.35-.96-1.66-1.9-3.32-2.85-4.99-.21-.37-.39-.75-.59-1.13-.16-.31-.26-.64-.24-.93,0-.18-.01-.28,0-.39.04-1.14.09-2.29.14-3.43.02-.37.04-.74.06-1.12.03-.64.07-1.28.1-1.92.04-.75.07-1.49.11-2.23.05-1.01.12-2.02.16-3.03.04-1.01.05-2.02.09-3.04.05-1.54.11-3.09.16-4.63.04-1.22.05-2.45.08-3.68.01-.64.02-1.28.05-1.92.06-1.23.13-2.45.2-3.67.03-.56.05-1.12.1-1.67.05-.61.13-1.21.16-1.83.03-.64.12-1.27.19-1.91.04-.35.25-.58.52-.76.27-.17.56-.12.76.13.21.27.43.54.62.83.41.59.8,1.19,1.19,1.79.43.67.88,1.33,1.25,2.04.35.67.78,1.26,1.19,1.88.08.11.15.22.22.33l.12.21c.12.25.11.52.08.78-.02.2-.21.29-.34.42-.17.17-.33.34-.48.52-.11.13-.16.29-.09.45.16.35.14.73.2,1.1.02.14.11.19.22.12.38-.29.77-.55,1.02-.98.06-.11.17-.2.27-.29.14-.12.37-.12.51.01.1.09.18.19.27.29.25.27.34.58.27.95h0ZM286.65,33.09c.02.35-.05.66-.18.92-.05.09-.2.13-.27.06-.22-.2-.37-.45-.49-.72v-.31c.05-.14.14-.28.23-.4.17-.21.47-.18.58.07.06.14.1.3.12.38h0ZM287.28,45.34c.1-.12.23-.34.34-.26.19.13-.06.25-.12.37-.18.37-.39.74-.59,1.1l-.12.04-.06-.07c.02-.09.02-.2.06-.29.11-.32.27-.62.49-.88h0ZM288.18,36.31c0,.08,0,.21-.02.34-.01.11-.05.22-.17.23l-.19-.1c-.1-.12-.19-.25-.27-.38-.21-.34-.18-.59.08-.93h.28c.22.22.26.5.29.84h0ZM288.7,46.02c-.4.46-.66,1-.94,1.53l-.12.09h-.06s-.05-.06-.05-.06v-.08c.18-.63.53-1.13,1.01-1.56h.14s.02.07.02.07h0ZM292.53,44.19c.09-.17.23-.28.41-.3.22,0,.41.25.36.45-.04.19-.15.33-.28.47-.12.13-.29.11-.4-.03-.14-.18-.2-.38-.09-.59h0ZM291.09,41.58c.11-.11.24-.21.37-.29.34-.21.69-.01.73.42.04.35-.08.65-.33.92-.18.2-.38.21-.52,0-.12-.17-.23-.36-.32-.54-.1-.19-.08-.35.08-.5h0ZM289.34,38.26c.09-.12.31-.1.41.03.18.23.17.49.19.64.01.17.02.23.02.28,0,.21,0,.43-.19.57-.11.08-.29-.06-.45-.36l-.1-.21c-.21-.35-.11-.66.13-.95h0ZM254.48,21v.02s-.01,0-.01,0v-.02h.01ZM276.22,44.52v-.03s-.01.02-.01.02h.01ZM251.37,41.94v-.02s-.02,0-.02,0h.02ZM236.88,34.34l.92-1.21v-.17c0-.21-.1-.35-.29-.43l-1.53,1.54c.26-.03.54.03.85.23l.05.04h0ZM235.78,35.56c-.04.1-.04.21-.07.31l.41-.54c-.13.05-.28.07-.34.22h0ZM244.26,90.41c-.11.18-.22.35-.32.51-.01.1-.03.23-.03.3-.01.08.12-.1.32-.39l.02-.25v-.17h.01ZM246.84,87.66h0c.08.12.15.24.23.36.15-.41.26-.72.24-.77-.04-.12-.23.07-.47.4h0ZM249.92,84.28h0s-.02-.01-.02-.01h.02ZM246.93,86.89v.02s.01,0,.01,0h-.01ZM244.45,90.5c-.08.11-.15.23-.22.32-.03.39-.06.75-.08,1.02-.02.65.1,0,.19-.67,0,0,.04-.25.11-.67h0ZM233.69,38.53l.4-.53c-.19-.25-.45-.4-.81-.32-.09.02-.21.13-.22.2l.03.15c.14.25.36.39.59.49h0Z"/>
  <path class="cls-2" d="M110.33,137.2c0-.52.38-.92.94-.92.79,0,1.29,1,1.4,1.8.19.06.44.13.79.13,1.25,0,2.51-1.25,2.51-3.03,0-2.05-1.79-3.46-4.49-3.84l1.44-5.64h4.9l-.42,1.61h-4.66l-.63,2.53c3.46.61,5.28,2.23,5.28,4.44s-2.03,4.26-4.7,4.26c-1.59,0-2.34-.52-2.34-1.34h0Z"/>
  <path class="cls-2" d="M118.84,130.19c0-2.82,2.05-4.8,4.66-4.8s4.63,1.96,4.63,4.76-2.03,4.74-4.66,4.74-4.63-1.9-4.63-4.7h0ZM126.21,130.31c0-2.57-.98-4.72-2.76-4.72-1.65,0-2.69,2.09-2.69,4.32,0,2.78.88,4.84,2.76,4.84,1.67,0,2.69-2.09,2.69-4.43h0Z"/>
  <path class="cls-2" d="M135.38,134.57l.96-.08c.67-.06.92-.19.92-.31v-4.88l-2.82-5.03c-.61-1.11-.92-1.38-1.73-1.44l-.56-.04-.06-.12h5.39l-.06.12-.44.02c-1.17.06-1.13.44-.52,1.57l2.44,4.42h.04l1.65-3.15c1.09-2.11,1.15-2.61-.27-2.8l-.44-.06-.06-.12h4.11l-.06.12-.52.06c-.77.08-1.31.5-2.44,2.67l-1.84,3.47v5.24c0,.13.11.19,1.11.27l.75.06.06.11h-5.68l.06-.11h0Z"/>
  <path class="cls-2" d="M142.43,130.8c0-2.48,1.69-4.51,4.17-4.51,1.96,0,3.11,1.06,3.11,2.63,0,.1-.02.13-.04.27l-5.43-.02c-.04.27-.06.77-.06,1.04,0,2.21,1.29,3.59,2.96,3.59,1.09,0,1.9-.31,2.63-1.52l.13.08c-.92,1.63-2.03,2.57-3.61,2.57-2.25,0-3.86-1.79-3.86-4.13h0ZM147.96,128.96c0-1.23-.38-2.48-1.52-2.48-1.06,0-1.94,1.23-2.17,2.51l3.69-.04h0Z"/>
  <path class="cls-2" d="M155.12,133.45v-.02c-.67.71-1.48,1.42-2.44,1.42-1.11,0-1.98-.83-1.98-1.82,0-1.21.86-2.21,4.53-3.03l.02-.6c.06-1.9-.73-2.63-1.9-2.63-.69,0-1.44.38-1.44.58,0,.13.5.54.5,1.06,0,.42-.36.82-.92.82s-.92-.35-.92-.79c0-1.02,2.34-2.15,3.88-2.15,1.82,0,2.59.61,2.46,3.03l-.19,3.67c-.04.67.21,1.02.67,1.02.31,0,.56-.25.81-.48l.1.06c-.33.44-.98,1.29-1.82,1.29s-1.25-.5-1.34-1.42h0ZM155.12,133.22l.11-3.03c-2.46.54-2.92,1.36-2.92,2.3,0,.85.63,1.44,1.25,1.44.54,0,1-.13,1.55-.71h0Z"/>
  <path class="cls-2" d="M158.43,134.57l.35-.02c.6-.04.81-.06.81-.29v-5.47c0-1.19-.13-1.38-.79-1.52l-.44-.09.02-.08,2.84-.75-.06,3.03h.04c.52-1.94,1.32-3.07,2.57-3.07.67,0,1.25.5,1.25,1.06s-.4,1.07-1.06,1.07c-.54,0-1.11-.36-1.15-1.21-.73.15-1.11,1.04-1.61,2.8v4.26c0,.15.13.23.98.25l.59.02.06.11h-4.45l.06-.11h0Z"/>
  <path class="cls-2" d="M165.69,134.49l-.17-2.4.11-.02.4.87c.48,1.09,1.25,1.82,2.3,1.82,1.13,0,1.81-.73,1.81-1.61,0-.96-.79-1.52-2.04-1.96-1.17-.42-2.3-.96-2.3-2.48s1.21-2.4,2.8-2.4c.67,0,1.25.11,1.75.33l.61-.21.1,2.3-.11.02-1.06-1.69c-.27-.25-.73-.58-1.33-.58-1.02,0-1.53.6-1.53,1.44,0,.96.75,1.29,1.96,1.73,1.36.5,2.48,1.06,2.48,2.61,0,1.38-1.15,2.67-3.26,2.67-1.06,0-1.8-.17-2.51-.44h0Z"/>
  <path class="cls-2" d="M175.76,130.65c0-2.42,1.86-4.36,4.42-4.36s4.42,1.86,4.42,4.28-1.86,4.36-4.42,4.36-4.42-1.86-4.42-4.28h0ZM182.65,130.75c0-1.5-.33-2.94-1.04-3.65-.36-.35-.81-.65-1.48-.65-1.69,0-2.44,2.07-2.44,3.95,0,1.58.27,2.98,1,3.71.42.42.88.67,1.5.67,1.57,0,2.46-2,2.46-4.03h0Z"/>
  <path class="cls-2" d="M185.42,134.57l.33-.02c.58-.04.81-.04.81-.27v-6.95l-1.5-.02.36-.73h1.11l.04-.56c.25-2.8,2.17-4.05,3.78-4.05.96,0,1.34.44,1.34.92s-.42.88-.96.88-1.07-.56-1.21-1.25l-.04-.11-.25-.04c-.92.4-1.08,1.44-1.08,3.26v.94h2.28l-.35.75h-1.94v6.97c0,.15.14.23.98.25l.63.02.06.11h-4.47l.06-.11h0Z"/>
  <path class="cls-2" d="M194.54,128.71c0-3.69,2.78-6.33,6.97-6.33,1.27,0,2.69.5,3.32.84l1.13-.56.06,3.76h-.11l-1.79-3.15c-.5-.4-1.5-.69-2.67-.69-3.19,0-4.9,2.78-4.9,5.97,0,3.71,2.23,6.2,4.92,6.2,2.25,0,3.28-1.07,4.38-2.92l.48-.83h.12l-.69,3.05-.63.13c-.69.33-2.4.77-3.78.77-3.94,0-6.8-2.46-6.8-6.26h0Z"/>
  <path class="cls-2" d="M207.51,130.65c0-2.42,1.86-4.36,4.41-4.36s4.42,1.86,4.42,4.28-1.86,4.36-4.42,4.36-4.41-1.86-4.41-4.28h0ZM214.4,130.75c0-1.5-.33-2.94-1.04-3.65-.36-.35-.81-.65-1.48-.65-1.69,0-2.44,2.07-2.44,3.95,0,1.58.27,2.98,1,3.71.42.42.88.67,1.5.67,1.57,0,2.46-2,2.46-4.03h0Z"/>
  <path class="cls-2" d="M217.08,130.8c0-2.48,1.69-4.51,4.16-4.51,1.96,0,3.11,1.06,3.11,2.63,0,.1-.02.13-.04.27l-5.43-.02c-.04.27-.06.77-.06,1.04,0,2.21,1.29,3.59,2.96,3.59,1.09,0,1.9-.31,2.63-1.52l.13.08c-.92,1.63-2.03,2.57-3.61,2.57-2.25,0-3.86-1.79-3.86-4.13h0ZM222.6,128.96c0-1.23-.38-2.48-1.52-2.48-1.06,0-1.94,1.23-2.17,2.51l3.69-.04h0Z"/>
  <path class="cls-2" d="M231.61,133.24l-.04-.02c-.83,1-1.77,1.71-3,1.71-1.9,0-3.38-1.63-3.38-3.99,0-3.11,2.4-4.53,4.34-4.53.83,0,1.44.1,2.04.38h.04v-3.28c0-.52-.13-.73-.77-.84l-.63-.12.02-.08,2.99-.73v11.83c0,.44.08.5.31.56l.92.19-.02.08-2.8.59-.02-1.75h0ZM231.61,132.9v-4.34c-.4-1.09-1.38-1.92-2.38-1.92-1.46,0-2.25,1.73-2.25,3.8,0,1.88,1,3.46,2.61,3.46.9,0,1.54-.44,2.01-1h0Z"/>
  <path class="cls-2" d="M240.83,133.3h-.02c-.73.69-1.8,1.63-3.17,1.63-.61,0-1.11-.17-1.5-.56-.42-.42-.57-1.09-.57-1.92v-5.51c0-.11,0-.17-.98-.25l-.27-.02-.06-.11h2.94l-.02,5.64c0,1.13.56,1.61,1.71,1.61.85,0,1.44-.31,1.9-.73v-5.45c0-.75-.17-.88-.96-.94l-.27-.02-.06-.11h2.92v6.78c0,.44.08.5.29.56l.94.19-.02.1-2.8.81v-1.69h0Z"/>
  <path class="cls-2" d="M243.91,130.8c0-2.46,1.69-4.51,4.3-4.51,1.54,0,2.88.63,2.88,1.75,0,.54-.44,1-.96,1-.56,0-.98-.44-.98-.92,0-.63.38-.88.38-1.04,0-.25-.63-.63-1.23-.63-1.5,0-2.65,1.55-2.65,3.74s1.29,3.61,2.96,3.61c1.09,0,1.77-.31,2.49-1.52l.15.08c-.9,1.63-1.94,2.57-3.51,2.57-2.23,0-3.84-1.79-3.84-4.13h0Z"/>
  <path class="cls-2" d="M256.3,133.45v-.02c-.67.71-1.48,1.42-2.44,1.42-1.11,0-1.98-.83-1.98-1.82,0-1.21.87-2.21,4.53-3.03l.02-.6c.06-1.9-.73-2.63-1.9-2.63-.69,0-1.44.38-1.44.58,0,.13.5.54.5,1.06,0,.42-.37.82-.92.82s-.92-.35-.92-.79c0-1.02,2.34-2.15,3.88-2.15,1.83,0,2.59.61,2.46,3.03l-.19,3.67c-.04.67.21,1.02.67,1.02.31,0,.56-.25.81-.48l.1.06c-.33.44-.98,1.29-1.82,1.29s-1.25-.5-1.34-1.42h0ZM256.3,133.22l.11-3.03c-2.46.54-2.92,1.36-2.92,2.3,0,.85.63,1.44,1.25,1.44.54,0,1-.13,1.55-.71h0Z"/>
  <path class="cls-2" d="M260.76,132.94l.1-5.57-1.52-.02.08-.21.94-.71,2.09-1.65.06.02-.02,1.75,2.9.02-.34.73h-2.55l-.13,5.55c0,.67.4,1.15,1.32,1.15.71,0,1.23-.25,1.63-.61l.09.08c-.77.77-1.71,1.48-2.69,1.48-1.29,0-1.98-.63-1.96-1.99h0Z"/>
  <path class="cls-2" d="M265.77,134.57l.35-.02c.59-.04.81-.06.81-.29v-5.49c0-1.17-.13-1.36-.79-1.5l-.44-.09.02-.08,2.82-.75v7.95c0,.15.11.19.96.25l.27.02.06.11h-4.11l.06-.11h0ZM266.46,123.66c0-.44.33-1.1,1.09-1.1s1.1.65,1.1,1.1-.35,1.06-1.1,1.06-1.09-.63-1.09-1.06h0Z"/>
  <path class="cls-2" d="M270.29,130.65c0-2.42,1.86-4.36,4.41-4.36s4.42,1.86,4.42,4.28-1.86,4.36-4.42,4.36-4.41-1.86-4.41-4.28h0ZM277.18,130.75c0-1.5-.33-2.94-1.04-3.65-.36-.35-.81-.65-1.48-.65-1.69,0-2.44,2.07-2.44,3.95,0,1.58.27,2.98,1,3.71.42.42.88.67,1.5.67,1.57,0,2.46-2,2.46-4.03h0Z"/>
  <path class="cls-2" d="M279.8,134.57l.35-.02c.59-.04.8-.06.8-.29v-5.47c0-1.19-.13-1.38-.79-1.52l-.44-.09.02-.08,2.84-.75-.06,1.59.06.02c.75-.64,1.86-1.65,3.23-1.65.61,0,1.13.17,1.5.56.44.42.6,1.1.6,1.92v5.49c0,.11,0,.19.98.27l.25.02.06.11h-4.09l.06-.11.35-.02c.67-.04.77-.14.77-.29v-5.2c0-1.13-.54-1.63-1.69-1.63-.86,0-1.54.35-2.02.79v6.09c0,.15.11.19.94.25l.29.02.04.11h-4.09l.06-.11h0Z"/>
  <path class="cls-2" d="M258.09,152.28c-.44,0-.75.02-.82.9h-.1c.14-1.31.41-1.81,1.23-1.81.99,0,2.29,1.04,2.97,1.04.44,0,.75-.05.84-.9h.1c-.14,1.3-.43,1.81-1.24,1.81-1.02,0-2.29-1.04-2.97-1.04h0Z"/>
  <path class="cls-2" d="M263.87,155.77l.58-.02c.55-.02.74-.07.74-.27v-7.01l-1.78-.27.05-.09,3.12-.41v7.81c0,.14.12.2.92.24l.51.02.05.1h-4.25l.05-.1h0Z"/>
  <path class="cls-2" d="M268.71,158.11c0-.46.36-.82.84-.82.7,0,1.23.72,1.08,1.59,0,0,.56.14.87.14,1.11,0,2.27-1.07,2.27-2.57,0-1.71-1.06-2.81-2.64-2.81-.49,0-.97.12-1.4.25l-.05-.1c1.99-1.33,3.28-1.86,3.28-3.34,0-1.06-.7-1.81-1.74-1.81s-1.76.44-2.32,1.57l-.12-.07c.72-1.48,1.76-2.49,3.09-2.49s2.39.97,2.39,2.15c0,1.43-1.33,2.12-2.49,2.82v.03c2.03-.1,3.22,1.3,3.22,2.93,0,1.91-1.81,3.73-4.18,3.73-1.31,0-2.08-.61-2.08-1.19h0Z"/>
  <path class="cls-2" d="M275.18,158.11c0-.46.34-.82.84-.82.7,0,1.14.89,1.25,1.6.17.05.39.12.7.12,1.11,0,2.23-1.11,2.23-2.69,0-1.82-1.59-3.07-3.99-3.41l1.28-5.01h4.35l-.38,1.43h-4.14l-.56,2.25c3.07.55,4.69,1.98,4.69,3.94s-1.81,3.79-4.18,3.79c-1.42,0-2.08-.46-2.08-1.19h0Z"/>
  <path class="cls-2" d="M283.74,152.28c-.44,0-.75.02-.82.9h-.1c.14-1.31.41-1.81,1.23-1.81.99,0,2.29,1.04,2.97,1.04.44,0,.75-.05.84-.9h.1c-.13,1.3-.43,1.81-1.24,1.81-1.02,0-2.29-1.04-2.97-1.04h0Z"/>
  <path class="cls-3" d="M127.58,110.37l2.9-.36c3.17-.27,4.72-.91,4.72-1.45v-52.24c0-.64-.54-.91-5.26-1.27l-2.27-.27-.27-.55h43.53l1.27,17.59-.54.09-.45-1.18c-3.35-9.61-5.44-15.69-18.23-15.69h-9.16v26.21l4.17-.09c9.52-.45,12.61-1.45,14.69-7.71l.45-1.27.64.09-1.91,19.23-.63-.09-.09-1.27c-.45-6.89-3.54-7.35-13.79-7.89l-3.54-.18v27.48l11.16.45c12.79-.18,16.33-7.98,19.86-16.41l.55-1.18.54.09-3.27,18.41h-45.35l.27-.54h0Z"/>
  <path class="cls-3" d="M177.61,110.65l3.27-.36c3.17-.27,4.35-.91,4.35-1.45v-52.24c0-.64-.54-.91-5.26-1.27l-2.27-.27-.27-.54,22.94-.27c22.4-.36,32.92,11.52,32.92,27.39s-11.79,29.57-35.55,29.57h-20.41l.27-.54h0ZM224.04,83.71c0-14.78-7.07-28.39-25.03-28.39h-5.17v52.88l6.08,1.99c16.24-.27,24.13-12.88,24.13-26.48h0Z"/>
  <path class="cls-2" d="M51.03,68.33c-15.53,1.49-24.35,9.32-28.15,13.57l12.32-42.8,42.14-.3c13.05-.09,20.44-2.8,21.1-19.73l-3.43.02c-.5,7.86-1.82,9.19-11.33,9.26l-47.75.34-14.86,57.97.86.99c2.23-3.78,11.86-15.1,31.08-15.87l-1.98-3.46h0Z"/>
  <path class="cls-2" d="M58.79,68.14v3.8c17.13,1.91,27.52,16.7,27.68,39.38.02,2.75-.12,5.38-.39,7.91,5.47.21,10.3-1.7,12.56-2.78.29-2.14.45-4.32.43-6.54-.17-23.94-18.34-40.54-40.28-41.76h0Z"/>
  <path class="cls-2" d="M128.46,69.52c-7.28-21-30.2-32.12-51.19-24.85-2.54.88-4.93,1.99-7.16,3.3.3-.11.6-.24.9-.34,16.89-5.85,33.74,6.26,40.59,26.03,6.85,19.77,1.1,39.71-15.79,45.56-13.11,4.54-27.63-1.24-36.68-13.29l-.33,1.62c10.31,13.12,28.16,18.94,44.82,13.17,21-7.27,32.12-30.19,24.85-51.19h0Z"/>
  <path class="cls-2" d="M85.39,123.98c-3.64,19.35-16.47,31.15-36.88,31.29-19.91.14-40.4-18.77-40.4-18.77,0,0,18.33,21.51,41.76,22.75,20.8,1.1,40.91-14.27,47.19-35.36-6.44.61-10.05.33-11.67.09h0Z"/>
  <path class="cls-3" d="M0,85.74c0-18.34,13.85-31.52,34.67-31.52,6.3,0,13.37,2.48,16.53,4.2l5.64-2.77.29,18.72h-.57l-8.88-15.66c-2.48-2-7.45-3.44-13.28-3.44-15.85,0-24.36,13.85-24.36,29.71,0,18.44,11.08,30.85,24.45,30.85,11.17,0,16.33-5.35,21.78-14.52l2.39-4.11h.57l-3.44,15.19-3.15.67c-3.44,1.62-11.94,3.82-18.82,3.82C14.23,116.88,0,104.66,0,85.74h0Z"/>
</svg>