<svg width="257" height="96" viewBox="0 0 257 96" fill="none" xmlns="http://www.w3.org/2000/svg">
<g clip-path="url(#clip0_153_280)">
<path d="M96.4058 22.0308H112.255C119.254 22.0308 123.766 25.9775 123.766 32.1316C123.766 36.2532 121.74 39.2119 118.269 40.3748C117.172 40.7812 116.301 40.9561 115.147 41.0128V41.2444C116.418 41.2444 117.172 41.3626 118.387 41.6509C123.361 42.6955 126.135 46.1789 126.135 51.4019C126.135 58.3122 121.161 62.6654 113.352 62.6654H96.4058V22.0308ZM105.195 38.5172H110.404C114.162 38.5172 116.301 36.6029 116.301 33.351C116.301 30.274 114.337 28.5913 110.691 28.5913H105.195C104.446 28.5913 104.041 28.5346 103.692 28.303L103.579 28.4164C103.692 28.7047 103.81 29.2862 103.81 29.9857V37.0661C103.81 37.761 103.692 38.3423 103.579 38.6354L103.692 38.7488C104.041 38.5739 104.446 38.5172 105.195 38.5172ZM105.256 56.1049H111.906C116.244 56.1049 118.444 54.2473 118.444 50.5936C118.444 46.8785 116.07 44.9596 111.445 44.9596H105.195C104.446 44.9596 104.041 44.9029 103.692 44.728L103.579 44.8462C103.692 45.1344 103.81 45.6591 103.81 46.4107V54.6537C103.81 55.4101 103.692 55.9915 103.579 56.2797L103.692 56.3979C104.041 56.2797 104.389 56.1049 105.256 56.1049Z" fill="white"/>
<path d="M154.729 45.7726V62.6655H147.56C147.56 60.7512 147.791 59.4136 148.427 57.9058L148.196 57.7877C146.227 61.621 143.104 63.5353 138.997 63.5353C133.27 63.5353 129.455 59.7634 129.455 54.134C129.455 48.4431 133.27 44.8463 139.11 44.8463C143.104 44.8463 146.227 46.4721 148.078 49.4877L148.309 49.3743C147.965 48.3297 147.847 46.9354 147.847 45.4228C147.673 42.6389 145.591 41.1311 141.946 41.1311C139.864 41.1311 137.608 41.4194 134.024 42.2892L132.634 36.31C136.049 35.4402 139.633 34.9771 142.699 34.9771C151.144 34.9771 154.729 38.1675 154.729 45.7726ZM137.029 53.9024C137.029 56.398 138.941 58.024 141.772 58.024C144.725 58.024 146.75 56.2798 146.75 53.8409C146.75 51.402 144.725 49.7193 141.833 49.7193C138.941 49.7193 137.029 51.4635 137.029 53.9024Z" fill="white"/>
<path d="M178.057 35.0904V42.6389C176.903 42.5207 176.437 42.5207 175.862 42.5207C171.001 42.5207 168.284 45.2527 168.284 51.2886V62.6654H161.224V35.8468H168.11C168.11 38.2288 167.818 40.9562 167.356 43.7401L167.587 43.8016C168.976 37.8224 172.042 35.0337 176.554 35.0337C177.134 35.0337 177.595 35.0337 178.057 35.0904Z" fill="white"/>
<path d="M189.177 41.769C189.177 44.3215 188.946 46.2358 188.48 47.63L188.654 47.6867L198.837 35.8467H207.687L198.371 45.8292C196.986 47.3418 196.232 47.8049 195.596 48.0365V48.2681C196.232 48.4998 196.812 48.9678 198.027 50.1872L208.784 62.6654H199.586L188.654 49.1993L188.48 49.3127C188.946 50.6503 189.177 52.4465 189.177 54.8855V62.6654H182.117V21.1611H189.177V41.769Z" fill="white"/>
<path d="M235.235 49.1995V50.8821H218.689C216.956 50.8821 216.09 50.764 215.336 50.3007L215.218 50.4755L215.449 51.1137C216.09 55.1172 218.746 57.2677 222.971 57.2677C226.037 57.2677 228.641 56.1617 230.898 54.0725L234.133 59.1819C230.954 62.0841 227.365 63.5353 222.971 63.5353C214.177 63.5353 208.394 58.024 208.394 49.3128C208.394 40.5498 214.003 34.9771 222.217 34.9771C230.318 34.9771 235.235 40.2567 235.235 49.1995ZM215.336 46.5288L215.449 46.6424C215.972 46.2972 217.13 46.1224 218.346 46.1224H224.648C226.616 46.1224 227.483 46.179 227.944 46.5857L228.062 46.4721C227.831 42.8138 225.514 40.7813 221.986 40.7813C218.346 40.7813 215.798 42.9272 215.336 46.5288Z" fill="white"/>
<path d="M257 35.0904V42.6389C255.841 42.5207 255.38 42.5207 254.8 42.5207C249.94 42.5207 247.222 45.2527 247.222 51.2886V62.6654H240.167V35.8468H247.048C247.048 38.2288 246.76 40.9562 246.299 43.7401L246.53 43.8016C247.919 37.8224 250.981 35.0337 255.493 35.0337C256.072 35.0337 256.533 35.0337 257 35.0904Z" fill="white"/>
<path d="M95.606 82.1053C95.606 77.106 99.0944 73.6968 104.214 73.6968C106.371 73.6968 108.23 74.2733 109.883 75.4713L108.414 77.5669C107.152 76.6451 105.636 76.1392 104.121 76.1392C100.632 76.1392 98.2223 78.5803 98.2223 82.1053C98.2223 85.6285 100.632 88.0711 104.121 88.0711C105.636 88.0711 107.152 87.5636 108.414 86.6417L109.883 88.739C108.23 89.9373 106.371 90.5121 104.214 90.5121C99.0944 90.5121 95.606 87.1027 95.606 82.1053Z" fill="white"/>
<path d="M122.291 84.8466C122.291 88.0936 119.835 90.5121 116.484 90.5121C113.133 90.5121 110.677 88.0936 110.677 84.8466C110.677 81.5977 113.133 79.1792 116.484 79.1792C119.835 79.1792 122.291 81.5977 122.291 84.8466ZM113.064 84.8466C113.064 86.9196 114.442 88.3006 116.484 88.3006C118.527 88.3006 119.904 86.9196 119.904 84.8466C119.904 82.7732 118.527 81.3905 116.484 81.3905C114.442 81.3905 113.064 82.7732 113.064 84.8466Z" fill="white"/>
<path d="M126.714 90.1667H124.464V73.6968H126.714V90.1667Z" fill="white"/>
<path d="M131.945 90.1667H129.695V73.6968H131.945V90.1667Z" fill="white"/>
<path d="M144.59 84.8466V85.2832H137.773C136.992 85.2832 136.626 85.2367 136.373 85.0986L136.327 85.1451L136.419 85.4214C136.648 87.3099 137.82 88.3698 139.701 88.3698C140.94 88.3698 141.859 87.933 142.915 86.804L144.293 88.3006C143.053 89.7975 141.561 90.5121 139.655 90.5121C136.351 90.5121 134.123 88.2782 134.123 84.9154C134.123 81.4596 136.258 79.1792 139.517 79.1792C142.662 79.1792 144.59 81.3215 144.59 84.8466ZM136.442 83.7624L136.488 83.809C136.741 83.6709 137.245 83.5792 137.796 83.5792H140.482C141.583 83.5792 141.951 83.6243 142.18 83.7865L142.227 83.74C142.089 82.1501 141.078 81.2299 139.449 81.2299C137.796 81.2299 136.671 82.1742 136.442 83.7624Z" fill="white"/>
<path d="M154.981 81.5977L155.074 81.5752C154.912 81.1368 154.867 80.631 154.867 79.5245H157.116V89.6835C157.116 93.2999 155.189 95.1193 151.332 95.1193C149.495 95.1193 148.004 94.7275 146.65 93.8522L147.751 91.8257C148.967 92.6077 150.092 92.9545 151.355 92.9545C153.443 92.9545 154.936 91.7791 154.936 90.1201V89.6592C154.936 88.8996 154.958 88.5769 155.074 88.1159L154.981 88.0936C154.224 89.6367 152.846 90.4895 151.08 90.4895C148.073 90.4895 145.96 88.1627 145.96 84.8466C145.96 81.5287 148.073 79.1792 151.08 79.1792C152.87 79.1792 154.246 80.0319 154.981 81.5977ZM148.348 84.8466C148.348 87.0577 149.542 88.3939 151.515 88.3939C153.558 88.3939 154.981 86.9422 154.981 84.8466C154.981 82.7492 153.558 81.299 151.515 81.299C149.542 81.299 148.348 82.635 148.348 84.8466Z" fill="white"/>
<path d="M169.64 84.8466V85.2832H162.823C162.042 85.2832 161.676 85.2367 161.423 85.0986L161.377 85.1451L161.47 85.4214C161.699 87.3099 162.87 88.3698 164.752 88.3698C165.99 88.3698 166.909 87.933 167.965 86.804L169.343 88.3006C168.103 89.7975 166.611 90.5121 164.705 90.5121C161.401 90.5121 159.173 88.2782 159.173 84.9154C159.173 81.4596 161.308 79.1792 164.568 79.1792C167.712 79.1792 169.64 81.3215 169.64 84.8466ZM161.492 83.7624L161.538 83.809C161.791 83.6709 162.295 83.5792 162.846 83.5792H165.533C166.633 83.5792 167.002 83.6243 167.23 83.7865L167.277 83.74C167.139 82.1501 166.128 81.2299 164.499 81.2299C162.846 81.2299 161.721 82.1742 161.492 83.7624Z" fill="white"/>
<path d="M48.6197 28.6559H48.6169C47.807 28.6559 46.9772 28.5044 46.1531 28.2112C43.3958 27.2199 42.2386 25.321 41.7941 24.2786L41.6121 23.8495L41.4301 24.2786C40.9856 25.321 39.8284 27.2199 37.071 28.2112C36.2469 28.5044 35.4186 28.6559 34.6071 28.6559C32.1829 28.6531 30.2426 27.3304 29.0417 26.2172C27.924 25.1778 27.2298 24.147 27.045 23.8538L26.9405 23.6895L26.7726 23.7914C26.5496 23.9246 26.3267 24.0818 26.0854 24.2687C26.0289 24.3197 25.9683 24.3721 25.8992 24.433C25.2105 25.0292 23.6046 26.4284 21.7193 26.4354C20.4663 26.4354 19.3147 25.8109 18.2945 24.5788L18.2324 24.5066L18.3184 24.5448C18.3228 24.5463 18.3481 24.5561 18.4102 24.576C18.4681 24.5959 18.5569 24.6213 18.6713 24.651C18.9804 24.7233 19.3049 24.7601 19.6422 24.7601C20.8825 24.7601 22.1059 24.2914 23.2786 23.3624C24.4654 22.4292 25.5647 21.9718 26.6343 21.9718C27.934 21.9718 29.1433 22.6615 30.2426 24.0138C30.426 24.2403 31.4039 25.4186 32.705 26.5303L32.7713 26.5841L32.856 26.577C34.6735 26.3759 35.9816 25.8307 36.7422 24.9598C37.3053 24.3168 37.4153 23.6569 37.4308 23.3228L37.4408 23.1146H37.2348H36.4375L33.2637 12.8463L33.2681 12.8391C35.9717 7.90678 39.8594 4.69217 40.6116 4.09587L40.6878 4.0379V3.94299V3.17829V2.97859H40.4873H39.7776V1.19844H40.5156H40.7118V1.00029V0.200195H42.5124V1.00029V1.19844H42.7128H43.4479V2.97859H42.7368H42.5378V3.17829V3.94299V4.0379L42.6126 4.09587C43.3661 4.69217 47.2482 7.89959 49.9532 12.8362L49.9589 12.8463L46.7895 23.1146H45.9908H45.7805L45.7918 23.3228C45.8074 23.6569 45.9188 24.3168 46.4846 24.9598C47.2438 25.8307 48.5535 26.3759 50.3695 26.577L50.4529 26.5841L50.5178 26.5303C51.8187 25.4157 52.7981 24.2403 52.9801 24.0181C54.078 22.6615 55.2901 21.9718 56.58 21.9718C57.6595 21.9718 58.7587 22.4292 59.9454 23.3624C61.1181 24.2914 62.3402 24.7601 63.582 24.7601C63.9207 24.7601 64.2466 24.7233 64.5514 24.6525C64.6686 24.6213 64.7574 24.5959 64.8139 24.576C64.876 24.5561 64.9013 24.5463 64.9013 24.5463L64.9917 24.5066L64.931 24.5788C63.9122 25.8109 62.7579 26.4354 61.5119 26.4354C59.6125 26.4284 58.008 25.0249 57.325 24.4302C57.2558 24.3693 57.1967 24.3168 57.143 24.2743C56.8961 24.0776 56.6716 23.9246 56.4501 23.7914L56.285 23.6895L56.182 23.8538C55.9944 24.147 55.3014 25.1806 54.1824 26.2172C52.434 27.8345 50.5643 28.6559 48.6197 28.6559Z" fill="#1C205C"/>
<path d="M27.1897 27.6143C27.1699 27.668 24.8542 33.0494 15.1246 38.2551C14.4979 38.6602 14.086 39.3965 14.0577 40.1584C14.0239 40.9415 14.4049 41.668 15.126 42.2046C15.7779 42.6238 16.506 41.8563 17.1538 41.1823C17.1538 41.1823 17.2144 41.1157 17.2582 41.0717C18.3433 42.9382 18.7822 44.7127 18.7822 46.4743C18.7822 48.8789 18.0202 51.2566 17.1905 53.8382C16.2858 56.7017 15.3404 59.6472 15.3404 63.0104C15.3404 63.2343 15.3446 63.465 15.3559 63.6916C16.2097 76.0346 23.8736 77.8331 31.2946 79.5664C34.8226 80.3822 38.4703 81.2375 41.4337 83.1974L41.6045 83.3136L41.7836 83.1974C44.7442 81.2375 48.3948 80.3822 51.924 79.5664C59.3282 77.8331 67.0005 76.0346 67.8599 63.6987C67.8655 63.465 67.8741 63.2427 67.8741 63.0104C67.8741 59.6472 66.9328 56.7017 66.0199 53.8382C65.1944 51.2566 64.4338 48.8789 64.4338 46.4743C64.4338 44.7127 64.8641 42.9382 65.9563 41.0717C65.9986 41.1157 66.0636 41.1823 66.0636 41.1823C66.7057 41.8563 67.4282 42.6238 68.073 42.2189C68.8083 41.668 69.1879 40.9415 69.1554 40.1584C69.1271 39.3965 68.7081 38.6602 68.1097 38.2692C58.3503 33.0494 56.0445 27.668 56.0205 27.6143L55.888 27.2929L55.5746 27.4727C55.5068 27.5123 48.6686 31.5001 41.6045 31.527C34.5502 31.5001 27.6991 27.5123 27.63 27.4727L27.3308 27.29L27.1897 27.6143Z" fill="#1C205C"/>
<path d="M64.8137 24.3617C64.8137 24.3617 64.7925 24.3688 64.7375 24.3901C64.6852 24.4056 64.602 24.4339 64.4948 24.4594C64.2774 24.5089 63.9627 24.5614 63.5691 24.5614C62.6983 24.5585 61.4523 24.3107 60.0568 23.2103C59.2199 22.5476 57.9979 21.773 56.5769 21.7716C55.3817 21.7674 54.0735 22.3338 52.8133 23.8887C52.373 24.4311 51.446 25.4649 50.3792 26.3782C48.2795 26.1431 47.1886 25.4776 46.6213 24.829C46.0949 24.2286 45.9905 23.6196 45.9779 23.3123H46.9205L50.159 12.8245L50.1139 12.7422C47.3608 7.71223 43.3644 4.44515 42.7251 3.9425V3.1778H43.634V0.999794H42.6983V0H40.5013V0.999794H39.5657V3.1778H40.473V3.9425C39.8351 4.44515 35.836 7.71223 33.0857 12.7422L33.0406 12.8245L36.2763 23.3123H37.2231C37.2062 23.6196 37.1032 24.2286 36.5783 24.829C36.0096 25.4776 34.9203 26.1431 32.8219 26.3782C31.7537 25.4649 30.8251 24.4311 30.3848 23.8887C29.1232 22.3338 27.8165 21.7674 26.6228 21.7716C25.1989 21.773 23.9797 22.5476 23.1416 23.2103C21.7459 24.3107 20.5013 24.5585 19.6292 24.5614C19.2369 24.5614 18.9208 24.5089 18.7035 24.4594C18.5963 24.4339 18.5144 24.4056 18.4622 24.3901C18.4057 24.3688 18.3859 24.3617 18.3859 24.3617L17.5337 23.9963L18.1263 24.7044C19.3004 26.1177 20.5548 26.6375 21.7064 26.6332C23.8555 26.6274 25.5983 24.9295 26.198 24.4269C26.3701 24.2909 26.6002 24.1224 26.8613 23.9609C27.0433 24.2455 27.7474 25.3006 28.8961 26.3641C30.2324 27.6003 32.1742 28.8565 34.5928 28.8565C35.3915 28.8565 36.2382 28.7163 37.1259 28.3963C39.9255 27.3907 41.1348 25.4464 41.5978 24.3561C42.0634 25.4464 43.2727 27.3907 46.0753 28.3963C46.96 28.7163 47.8081 28.8565 48.6054 28.8565H48.6082C51.024 28.8565 52.9686 27.6003 54.3006 26.3641C55.4522 25.3006 56.1549 24.2455 56.3341 23.9609C56.5994 24.1224 56.8295 24.2909 57.0044 24.4269C57.5999 24.9295 59.3441 26.6274 61.4904 26.6332C62.642 26.6375 63.8978 26.1177 65.0718 24.7044L65.6617 23.9963L64.8137 24.3617ZM25.9186 24.0785L25.9144 24.0842L25.9087 24.087C25.3047 24.6137 23.6184 26.1956 21.7064 26.1899C20.8372 26.1871 19.9058 25.8742 18.9617 24.9579C19.1537 24.9848 19.3766 25.0045 19.6292 25.0045C20.5873 25.006 21.9463 24.7199 23.4152 23.5544C24.2224 22.9186 25.364 22.2135 26.6228 22.2163C27.3213 22.2177 28.0678 22.4244 28.8424 22.9993C28.7268 22.9796 28.6124 22.9739 28.4981 22.9739C27.3876 22.9796 26.4224 23.696 25.9186 24.0785ZM34.5928 28.4104C32.3351 28.4118 30.485 27.235 29.1952 26.0369C28.5518 25.4422 28.0508 24.8432 27.7079 24.3985C27.5385 24.1733 27.4102 23.985 27.3255 23.8575C27.293 23.8136 27.2718 23.7782 27.2521 23.7485C27.6373 23.5572 28.0678 23.4142 28.4981 23.4185C29.0132 23.4214 29.5339 23.6055 30.0476 24.1761C30.5203 24.7568 31.4968 25.843 32.6299 26.7974C33.4356 27.4687 34.3078 28.0776 35.1658 28.3863C34.9696 28.4019 34.779 28.4104 34.5928 28.4104ZM46.7116 28.1357C46.5479 28.089 46.3871 28.0393 46.2234 27.9798C42.8466 26.7704 41.9321 24.1252 41.798 23.5884L41.6146 22.8619V22.7686L41.6118 22.7658L41.5978 22.8139L41.5864 22.7658V22.7686V22.8619L41.4016 23.5884C41.2647 24.1252 40.353 26.7704 36.9748 27.9798C36.814 28.0393 36.6489 28.089 36.4866 28.1357C36.4062 28.1484 36.3158 28.1526 36.2326 28.1526C35.3901 28.1598 34.2994 27.5522 33.2903 26.7648C35.1997 26.4858 36.2947 25.8231 36.9113 25.1222C37.5858 24.3503 37.6648 23.5502 37.6648 23.2231C37.6648 23.1296 37.6564 23.0715 37.6564 23.0645L37.6352 22.8705H36.6008L33.5162 12.874C34.9808 10.2201 36.7984 8.06763 38.259 6.56942C38.9942 5.81601 39.6391 5.22549 40.0977 4.8289C40.5604 4.43104 40.8314 4.22711 40.8314 4.22711L40.919 4.15913V2.73735H40.0045V1.44448H40.94V0.441722H42.2595V1.44448H43.1937V2.73735H42.2792V4.15913L42.3682 4.22711C42.3696 4.22711 42.6405 4.43104 43.1005 4.8289C43.5606 5.22549 44.204 5.81601 44.9407 6.56942C46.3998 8.06763 48.2187 10.2201 49.682 12.874L46.5974 22.8705H45.5644L45.5418 23.0645C45.5418 23.0715 45.5348 23.1296 45.5348 23.2231C45.5348 23.5502 45.6137 24.3503 46.2883 25.1222C46.9022 25.8231 47.9985 26.4858 49.9093 26.7648C48.8975 27.5522 47.8109 28.1598 46.9656 28.1526C46.8824 28.1526 46.7934 28.1484 46.7116 28.1357ZM55.8755 23.8575C55.7895 23.985 55.6596 24.1733 55.4889 24.3985C55.1488 24.8432 54.6479 25.4422 54.0016 26.0369C52.7131 27.235 50.8646 28.4118 48.6082 28.4104C48.4192 28.4104 48.2286 28.4019 48.0338 28.3863C48.8904 28.0776 49.764 27.4687 50.5668 26.7974C51.7014 25.843 52.6793 24.7568 53.1492 24.1761C53.6643 23.6055 54.185 23.4214 54.7015 23.4185C55.1319 23.4142 55.5608 23.5572 55.9446 23.7485C55.9264 23.7782 55.9052 23.8136 55.8755 23.8575ZM61.4904 26.1899C59.5812 26.1956 57.8921 24.6137 57.2909 24.087L57.2866 24.0842L57.2838 24.0785C56.7744 23.696 55.812 22.9796 54.7015 22.9739C54.5872 22.9739 54.47 22.9796 54.3571 22.9993C55.1319 22.4244 55.8769 22.2177 56.5769 22.2163C57.8328 22.2135 58.9758 22.9186 59.7844 23.5544C61.2519 24.7199 62.6109 25.006 63.5691 25.0045C63.823 25.0045 64.0459 24.9848 64.2379 24.9579C63.2911 25.8742 62.3612 26.1871 61.4904 26.1899Z" fill="#FFCB00"/>
<path d="M82.8243 74.4967C80.5834 73.3567 77.2489 72.2634 77.2489 72.2634C77.2489 71.9051 76.4077 67.3862 76.4077 67.3862C76.4077 67.3862 71.9895 70.2284 70.8381 71.4279C69.6767 72.6274 68.4532 74.0138 68.1118 75.1819C67.694 76.5812 69.8234 77.4394 69.8234 77.4394C69.8234 77.4394 66.7204 81.3762 56.6915 81.7175C46.6668 82.0573 41.6234 84.7154 41.6234 84.7154L41.6177 84.7083C41.6177 84.7083 36.6167 82.0645 26.5878 81.7232C16.5644 81.3762 13.4543 77.4422 13.4543 77.4422C13.4543 77.4422 15.5838 76.5812 15.1787 75.1835C14.8316 74.0194 13.6139 72.6302 12.451 71.4279C11.2911 70.234 6.87846 67.3862 6.87846 67.3862C6.87846 67.3862 6.03889 71.9108 6.03889 72.2704C6.03889 72.2704 2.70718 73.3637 0.466309 74.4967C0.466309 74.4967 3.76135 76.3985 6.73174 79.1713C6.73174 79.1713 6.28301 79.6952 6.36199 80.5407C6.5059 82.155 9.5356 88.0136 22.8723 89.0927C22.8723 89.0927 35.9704 90.3063 41.6362 93.6922L41.6418 93.6894C47.3116 90.3049 60.407 89.0828 60.407 89.0828C73.7464 88.0094 76.8975 82.4794 76.913 80.5378C76.9214 79.6882 76.5446 79.1684 76.5446 79.1684C79.5278 76.3985 82.8243 74.4967 82.8243 74.4967Z" fill="#1C205C"/>
<path d="M41.5212 93.8823C38.7414 92.2154 34.0592 91.0641 30.0896 90.3419C26.1145 89.614 22.859 89.3123 22.8519 89.3123C9.45746 88.2276 6.3149 82.3436 6.13853 80.5621C6.1315 80.4884 6.12996 80.4148 6.12996 80.3483C6.1315 79.8115 6.31209 79.4178 6.4404 79.2054C5.00678 77.887 3.5095 76.7696 2.36089 75.9781C1.16702 75.1624 0.357105 74.695 0.354294 74.6894L0 74.4868L0.364132 74.3014C2.36089 73.2903 5.18035 72.3231 5.82949 72.1049C5.94515 71.1803 6.65922 67.3651 6.65922 67.3496L6.71993 67.0238L6.9951 67.201C7.00635 67.2094 11.3991 70.036 12.61 71.2722C13.7756 72.4858 15.0116 73.868 15.3926 75.1256C15.4337 75.2629 15.4519 75.4017 15.4519 75.5349C15.4124 76.6083 14.3428 77.2511 13.8193 77.5118C13.9181 77.6109 14.055 77.7383 14.2356 77.8927C14.6745 78.2509 15.3603 78.7481 16.3622 79.2521C18.3604 80.2634 21.6115 81.3268 26.5957 81.4995C35.8965 81.8167 40.9017 84.1067 41.6314 84.4663C42.4229 84.0784 47.4607 81.8097 56.6853 81.4925C65.1986 81.2008 68.6502 78.3133 69.4575 77.5089C68.9352 77.2483 67.8714 76.6111 67.8375 75.5405C67.8375 75.4017 67.853 75.2615 67.8995 75.1199C68.2706 73.8666 69.5124 72.4802 70.6795 71.2722C71.8789 70.0331 76.2831 67.2052 76.2915 67.198L76.5681 67.021L76.626 67.3454C76.6274 67.3623 77.3415 71.1746 77.4557 72.0978C78.1063 72.316 80.9257 73.2847 82.9239 74.2971L83.2893 74.484L82.9323 74.6894C82.9323 74.6894 82.1195 75.1596 80.9257 75.9781C79.7728 76.7696 78.2686 77.8927 76.8278 79.2097C76.9477 79.442 77.1326 79.8951 77.1354 80.5154C77.1354 80.5154 77.1354 80.5238 77.1354 80.5409C77.1002 82.6777 73.8136 88.2177 60.4319 89.3053C60.4233 89.3081 57.1651 89.6126 53.1913 90.3362C49.219 91.0585 44.5382 92.214 41.74 93.8879L41.6256 93.9445L41.5212 93.8823ZM6.88352 79.01L7.03881 79.1558L6.90052 79.3173C6.90052 79.3173 6.88633 79.3315 6.85682 79.3782C6.82576 79.4235 6.78331 79.4929 6.74101 79.5836C6.65922 79.762 6.57167 80.024 6.57167 80.3483C6.57167 80.405 6.57588 80.4615 6.57869 80.521C6.70293 81.9669 9.60994 87.8014 22.8914 88.8706C22.9084 88.8776 35.8203 90.0558 41.6356 93.4334C47.4523 90.0544 60.3726 88.8678 60.3894 88.8634C73.6795 87.7972 76.698 82.2799 76.6909 80.5351V80.5154C76.6909 79.9376 76.5004 79.5325 76.4087 79.3726C76.3805 79.3187 76.3663 79.299 76.3663 79.299L76.2506 79.1389L76.3959 79.0043C78.8146 76.7569 81.4294 75.0845 82.358 74.5138C80.1623 73.453 77.1834 72.476 77.1792 72.4731L77.0282 72.425V72.2636C77.0338 72.1503 76.8192 70.8913 76.6104 69.7287C76.4665 68.9427 76.3282 68.1752 76.2506 67.7547C75.8484 68.0194 75.0483 68.5433 74.1819 69.1396C72.9387 69.9949 71.5416 71.0103 70.9969 71.5781C69.8399 72.7706 68.632 74.1626 68.3229 75.2445C68.2933 75.3521 68.2791 75.4484 68.2791 75.5405C68.272 76.015 68.6502 76.4454 69.0707 76.7541C69.487 77.0642 69.9034 77.2286 69.9062 77.2286L70.1828 77.3446L69.9978 77.5755C69.964 77.6222 66.7833 81.5987 56.6994 81.9372C49.2077 82.192 44.5184 83.7483 42.6501 84.5017C42.0278 84.7524 41.833 84.8643 41.833 84.8657L41.7258 84.9124L41.6298 84.9804L41.4352 84.8615C41.3081 84.7992 41.0316 84.6703 40.5998 84.4947C39.9817 84.2427 39.0504 83.907 37.8043 83.5558C35.3165 82.8577 31.5785 82.1142 26.5815 81.94C16.4991 81.5987 13.3113 77.6278 13.2788 77.5783L13.0912 77.3475L13.3692 77.2342C13.3692 77.2328 13.7897 77.0657 14.213 76.7541C14.6349 76.4454 15.013 76.0106 15.0074 75.5349C15.0074 75.4456 14.9934 75.3464 14.9679 75.2487C14.6505 74.1626 13.4496 72.7734 12.2938 71.5809C11.7434 71.0145 10.3451 69.9977 9.1033 69.1453C8.23549 68.5461 7.43808 68.0194 7.03319 67.7575C6.95547 68.178 6.81578 68.9427 6.67608 69.7344C6.46584 70.8941 6.25419 72.1545 6.257 72.2706V72.4321L6.10747 72.4802C6.10185 72.483 3.1271 73.4602 0.931341 74.5194C1.86128 75.0874 4.4719 76.7612 6.88352 79.01Z" fill="#FFCB00"/>
<path d="M11.6325 80.9834C11.7412 80.8418 11.9387 80.5699 12.0277 80.4099C12.0658 80.3377 12.0516 80.2655 12.0235 80.2144L11.8089 79.8307L11.8527 79.7712C12.1025 79.9893 12.348 80.2144 12.6077 80.4127C12.856 80.6096 13.1354 80.7979 13.3979 80.9891L13.3499 81.0429L12.9406 80.931C12.7629 80.8814 12.6825 80.9834 12.2845 81.4932L11.4731 82.5397C11.0639 83.0481 10.9862 83.1473 11.0794 83.3059L11.291 83.684L11.2417 83.7477C11.0018 83.531 10.7492 83.3059 10.498 83.1062C10.237 82.9051 9.96743 82.7139 9.70069 82.534L9.7458 82.4789L10.1622 82.5865C10.2186 82.6034 10.2991 82.5978 10.3526 82.5397C10.4909 82.4208 10.7068 82.1602 10.8184 82.0243L11.1739 81.5711L9.92232 80.5883L9.57083 81.0401C9.46642 81.1831 9.2632 81.4564 9.17719 81.6165C9.1377 81.673 9.15175 81.7595 9.18141 81.8118L9.38884 82.1899L9.34232 82.2551C9.09821 82.0272 8.85409 81.8118 8.59719 81.6122C8.34184 81.4069 8.06666 81.2199 7.80273 81.033L7.85066 80.9735L8.26271 81.0896C8.44063 81.1392 8.51962 81.033 8.92324 80.5232L9.73597 79.488C10.1396 78.9711 10.2172 78.879 10.1226 78.7162L9.91093 78.3325L9.959 78.2729C10.2059 78.498 10.4472 78.7162 10.7068 78.913C10.9581 79.1141 11.2375 79.3096 11.4998 79.4922L11.459 79.5475L11.0413 79.4385C10.982 79.4256 10.9044 79.427 10.8465 79.4823C10.711 79.6012 10.4966 79.8661 10.3935 79.9964L10.1438 80.3037L11.394 81.2822L11.6325 80.9834Z" fill="white"/>
<path d="M15.4575 81.812C16.4397 82.2949 16.8518 83.2707 16.3692 84.2676C15.8443 85.3454 14.7929 85.5875 13.7459 85.0692C12.7482 84.5891 12.3953 83.6318 12.8809 82.6207C13.386 81.6024 14.4825 81.3263 15.4575 81.812ZM13.9279 84.8341C14.7929 85.2575 15.2995 84.2676 15.4264 84.0057C15.7906 83.2635 16.0107 82.4069 15.2995 82.057C14.5798 81.71 14.0958 82.3233 13.8079 82.9266C13.4044 83.7478 13.3056 84.5268 13.9279 84.8341Z" fill="white"/>
<path d="M19.947 86.6145C19.3204 85.561 18.6543 84.5598 18.0123 83.5316L17.754 85.0214C17.6849 85.3683 17.6722 85.6034 17.6722 85.7082C17.6722 85.806 17.6849 85.8343 17.8105 85.915L18.1492 86.133L18.1294 86.2054C17.8782 86.1344 17.6256 86.068 17.3618 86.0212C17.1205 85.9759 16.872 85.9546 16.6152 85.932L16.6351 85.8554L17.0541 85.7564C17.1656 85.7351 17.1896 85.6997 17.2079 85.6275C17.2417 85.5397 17.2855 85.3315 17.3618 84.9576L17.5903 83.6477C17.6398 83.3816 17.6622 83.2555 17.6778 83.0091C17.6778 82.8987 17.6622 82.8377 17.5592 82.781L17.2079 82.5489L17.2193 82.4795C17.4704 82.5389 17.7328 82.6126 17.9516 82.6509C18.1801 82.6877 18.3679 82.7004 18.5555 82.7074C19.0678 83.6152 19.587 84.4876 20.153 85.3429L20.3604 84.1915C20.4239 83.8389 20.4564 83.5231 20.4506 83.4027C20.4506 83.3447 20.4168 83.3234 20.3703 83.288L19.9977 83.0417L20.0075 82.9666C20.2616 83.0346 20.5255 83.0984 20.7851 83.1464C21.018 83.1917 21.2649 83.2088 21.4992 83.2285L21.4864 83.3065L21.018 83.4268C20.9699 83.4467 20.9234 83.4665 20.898 83.5698C20.8797 83.6378 20.7202 84.3969 20.668 84.7155C20.6116 85.0298 20.4676 85.8526 20.3462 86.6811L19.947 86.6145Z" fill="white"/>
<path d="M23.6775 83.2706C24.7698 83.3527 25.5035 84.1089 25.4217 85.2163C25.3356 86.4172 24.4479 87.0303 23.2853 86.9398C22.1818 86.8561 21.4988 86.1099 21.5792 84.9883C21.6653 83.8497 22.5867 83.1912 23.6775 83.2706ZM23.3769 86.6566C24.3281 86.726 24.4311 85.6071 24.4607 85.3183C24.5157 84.4955 24.4042 83.6246 23.614 83.5679C22.8223 83.5056 22.6037 84.2547 22.5542 84.9259C22.4822 85.8408 22.6798 86.6027 23.3769 86.6566Z" fill="white"/>
<path d="M29.8604 87.7184C29.6586 87.6632 29.4526 87.6108 29.2324 87.5768C29.0504 87.5456 28.8571 87.5414 28.6778 87.5371L27.9737 85.8265L27.4953 85.7485L27.4163 86.2457C27.3627 86.6761 27.333 86.8786 27.333 86.9764C27.3414 87.0444 27.4163 87.1009 27.508 87.1463L27.834 87.3318L27.8184 87.4111C27.508 87.3388 27.1863 87.2723 26.8618 87.2185C26.5386 87.1717 26.2084 87.1463 25.8838 87.1166L25.8922 87.0444L26.3594 86.9267C26.4808 86.8885 26.4977 86.8588 26.6091 86.1252L26.7969 84.8111C26.9041 84.0945 26.9027 84.0124 26.7784 83.943L26.3876 83.7207L26.4003 83.647C26.7221 83.7193 27.0368 83.7915 27.3655 83.8396C27.714 83.8891 28.1529 83.9147 28.3363 83.936C28.9742 84.0279 29.8434 84.2135 29.7164 85.0617C29.6472 85.5192 29.2959 85.7741 28.8542 85.8265L29.2155 86.6918C29.5104 87.3742 29.55 87.4408 29.6769 87.5216L29.8745 87.6433L29.8604 87.7184ZM27.5433 85.4597L27.8467 85.5092C28.3068 85.5729 28.692 85.4498 28.7654 84.9372C28.8443 84.4514 28.5071 84.2588 28.1036 84.2007C27.9793 84.1838 27.8623 84.1711 27.7493 84.1568C27.7226 84.3026 27.7 84.4315 27.6773 84.5675L27.5433 85.4597Z" fill="white"/>
<path d="M34.6502 88.8454C34.0914 87.7692 33.4789 86.7439 32.8833 85.6775L32.5476 87.1461C32.4771 87.4931 32.4304 87.7252 32.4304 87.8286C32.4234 87.9305 32.4474 87.9603 32.5603 88.0439L32.8833 88.2761L32.8721 88.3484C32.6196 88.2718 32.374 88.1855 32.1143 88.1274C31.8744 88.0737 31.6177 88.0325 31.3706 87.9971L31.3904 87.9235L31.8109 87.8456C31.938 87.8243 31.9564 87.8018 31.9859 87.7352C32.0297 87.6431 32.0847 87.4307 32.1623 87.0639L32.4629 85.7696C32.5208 85.509 32.5476 85.383 32.5857 85.1409C32.6012 85.0218 32.5673 84.9709 32.4855 84.9058L32.1412 84.6594L32.1552 84.5771C32.4037 84.6594 32.6633 84.74 32.8777 84.7925C33.0979 84.8406 33.287 84.8619 33.4789 84.8816C33.9319 85.8191 34.4145 86.7113 34.9408 87.5936L35.2047 86.4621C35.2865 86.1109 35.3346 85.8036 35.3346 85.6789C35.3346 85.6181 35.3078 85.5884 35.2641 85.5586L34.8985 85.2909L34.914 85.2173C35.1567 85.2966 35.4178 85.3758 35.6775 85.4353C35.9188 85.4892 36.1529 85.5218 36.3886 85.553L36.3718 85.628L35.9018 85.7342C35.8567 85.7413 35.8072 85.7569 35.7791 85.8603C35.7495 85.9395 35.5589 86.6886 35.4771 87.0031C35.4136 87.3089 35.2188 88.1204 35.0552 88.9418L34.6502 88.8454Z" fill="white"/>
<path d="M38.7114 86.0797C39.7852 86.3006 40.4188 87.1461 40.1973 88.2252C39.963 89.4062 39.002 89.9033 37.8576 89.6739C36.7782 89.4573 36.1925 88.626 36.4126 87.517C36.6413 86.4026 37.6346 85.8603 38.7114 86.0797ZM37.9931 89.3991C38.9287 89.5846 39.1615 88.4928 39.2222 88.2053C39.3886 87.408 39.3788 86.5258 38.6098 86.3658C37.8392 86.2072 37.5161 86.9265 37.3863 87.5765C37.2029 88.4772 37.3045 89.259 37.9931 89.3991Z" fill="white"/>
<path d="M44.2143 89.8221C43.3633 88.954 42.4771 88.1426 41.6107 87.2901L41.7095 88.7983C41.7306 89.1551 41.7673 89.3902 41.7899 89.495C41.8167 89.5799 41.8408 89.6026 41.9762 89.6493L42.3572 89.7824L42.3657 89.8546C42.0961 89.8476 41.8379 89.8448 41.5754 89.8645C41.3285 89.8802 41.0716 89.9113 40.8247 89.958L40.8219 89.8802L41.2057 89.6932C41.3143 89.6238 41.3313 89.5941 41.3369 89.5176C41.3468 89.4214 41.3369 89.206 41.3143 88.8223L41.2353 87.5025C41.2185 87.2362 41.2 87.1074 41.1634 86.8624C41.1464 86.7605 41.0998 86.7052 41.0067 86.6768L40.6018 86.5282L40.5918 86.4489C40.8585 86.4588 41.1253 86.4644 41.3538 86.4475C41.5754 86.4333 41.7673 86.3979 41.9438 86.3653C42.645 87.1243 43.3633 87.8409 44.1309 88.5419L44.0449 87.3735C44.0322 87.0181 43.9856 86.7052 43.9475 86.5877C43.9277 86.5324 43.9009 86.5183 43.8544 86.4984L43.4297 86.3484L43.4269 86.269C43.6836 86.2704 43.9461 86.2762 44.2143 86.2591C44.4598 86.2464 44.6883 86.2068 44.9282 86.167L44.941 86.2464L44.5119 86.4771C44.4739 86.4984 44.4245 86.5282 44.4316 86.6414C44.4316 86.7136 44.447 87.4898 44.4739 87.814C44.4951 88.1284 44.5472 88.9624 44.6192 89.7923L44.2143 89.8221Z" fill="white"/>
<path d="M49.312 86.0751C49.2737 85.9094 49.1679 85.5837 49.0917 85.4124C49.0649 85.343 48.9915 85.3032 48.945 85.2962L48.5117 85.2338L48.4921 85.163C48.8095 85.0908 49.127 85.0314 49.4517 84.9577C49.7663 84.8657 50.0754 84.7694 50.3999 84.666L50.4155 84.7354L50.0668 85.0003C49.9215 85.1135 49.9596 85.2338 50.1163 85.8627L50.4535 87.1457C50.6157 87.7688 50.6496 87.8947 50.8261 87.9174L51.2536 87.9868L51.2748 88.0562C50.9488 88.12 50.6257 88.1851 50.3096 88.2714C49.9906 88.3508 49.683 88.457 49.3683 88.5604L49.3529 88.481L49.7014 88.2121C49.7451 88.1851 49.7874 88.1157 49.7818 88.0379C49.7535 87.8565 49.6916 87.5224 49.6477 87.3539L49.501 86.803L47.9728 87.2037L48.1181 87.7489C48.159 87.9231 48.2564 88.2517 48.3227 88.4174C48.3608 88.4838 48.4243 88.5236 48.4878 88.5363L48.9182 88.5958L48.9338 88.6765C48.6105 88.736 48.2931 88.7954 47.9728 88.8748C47.6609 88.9611 47.3419 89.0631 47.0343 89.1636L47.016 89.0971L47.3645 88.8251C47.5098 88.7218 47.4718 88.5958 47.3108 87.9699L46.9793 86.6882C46.8128 86.058 46.7831 85.9349 46.6039 85.9122L46.1749 85.847L46.1538 85.7678C46.4783 85.7069 46.8001 85.6431 47.1176 85.561C47.4323 85.4746 47.7483 85.3754 48.063 85.2792L48.08 85.3458L47.7329 85.6077C47.689 85.6431 47.6411 85.7167 47.6467 85.7933C47.6708 85.976 47.7427 86.3072 47.7794 86.4758L47.8768 86.8497L49.4092 86.449L49.312 86.0751Z" fill="white"/>
<path d="M53.1067 84.0935C54.1833 83.9137 55.0921 84.4674 55.2798 85.5465C55.4732 86.7431 54.7661 87.5517 53.6189 87.7472C52.5309 87.937 51.6885 87.3733 51.4965 86.2687C51.3075 85.1458 52.0399 84.2819 53.1067 84.0935ZM53.64 87.4427C54.5671 87.2842 54.4078 86.1838 54.3597 85.895C54.2214 85.0764 53.9011 84.2578 53.1123 84.3938C52.3447 84.5269 52.3051 85.3115 52.4166 85.9658C52.5732 86.8664 52.9542 87.5645 53.64 87.4427Z" fill="white"/>
<path d="M59.2701 86.9925C58.3951 86.1669 57.485 85.3923 56.5791 84.5709L56.7427 86.0806C56.7751 86.4289 56.8132 86.6612 56.8514 86.7632C56.8881 86.8566 56.9064 86.8764 57.0334 86.9133L57.4299 87.0293L57.4355 87.1059C57.1689 87.1059 56.9064 87.1158 56.6524 87.1455C56.3941 87.1709 56.1472 87.2177 55.8961 87.2715L55.8904 87.195L56.2799 86.9784C56.3759 86.926 56.3885 86.8821 56.3941 86.8197C56.3941 86.7136 56.3787 86.4983 56.3448 86.1244L56.2009 84.8075C56.1698 84.5341 56.1584 84.4066 56.1091 84.1659C56.0823 84.0541 56.0456 84.013 55.9482 83.9847L55.5305 83.8587L55.5249 83.7807C55.7874 83.7723 56.0598 83.7652 56.2841 83.7383C56.5014 83.7185 56.6849 83.6759 56.8767 83.6321C57.6134 84.3614 58.3514 85.0482 59.1402 85.7166L59.0218 84.5568C58.9849 84.1999 58.9244 83.8983 58.8777 83.7723C58.8651 83.7213 58.8298 83.7029 58.7805 83.6845L58.3514 83.5528L58.343 83.4778C58.5955 83.4692 58.8651 83.4664 59.1234 83.4338C59.3773 83.4012 59.613 83.3517 59.8415 83.3135L59.8571 83.3913L59.4437 83.6363C59.4013 83.6647 59.3561 83.6986 59.3661 83.8048C59.3661 83.8869 59.421 84.6488 59.4577 84.9802C59.493 85.2918 59.5777 86.1174 59.6878 86.9529L59.2701 86.9925Z" fill="white"/>
<path d="M61.9633 83.0156C63.0484 82.8698 63.9332 83.4575 64.0815 84.555C64.2409 85.7445 63.5057 86.5277 62.3471 86.692C61.2493 86.8378 60.4351 86.2501 60.2742 85.1357C60.1317 84.0098 60.8811 83.1644 61.9633 83.0156ZM62.3726 86.3847C63.3208 86.2586 63.1967 85.1469 63.1628 84.8537C63.0428 84.0395 62.7409 83.2097 61.9633 83.3159C61.1843 83.4221 61.1138 84.2053 61.2041 84.8609C61.3312 85.7743 61.6853 86.478 62.3726 86.3847Z" fill="white"/>
<path d="M68.8038 85.2089C68.602 85.2443 68.3988 85.2783 68.1801 85.3335C67.9994 85.3745 67.8216 85.4439 67.6551 85.5119L66.3301 84.2134L65.8743 84.3365L65.9956 84.8208C66.1056 85.2471 66.1635 85.4368 66.196 85.5289C66.2327 85.5884 66.3301 85.6068 66.4233 85.6182L66.8028 85.6578L66.8183 85.7385C66.5008 85.798 66.1848 85.8604 65.8601 85.9424C65.5483 86.0231 65.2322 86.1321 64.9274 86.2355L64.9105 86.1591L65.2759 85.8702C65.3817 85.7938 65.3874 85.754 65.1885 85.0319L64.8554 83.756C64.6734 83.0478 64.6296 82.9742 64.4899 82.9643L64.0454 82.9175L64.0327 82.8383C64.3558 82.7717 64.6734 82.7136 64.9895 82.6371C65.3268 82.538 65.7431 82.3936 65.9236 82.3427C66.5431 82.1798 67.4095 81.9901 67.6396 82.8256C67.7525 83.2717 67.5268 83.6468 67.1386 83.8763L67.8104 84.5164C68.3551 85.0418 68.42 85.0758 68.5667 85.1055L68.791 85.1381L68.8038 85.2089ZM65.798 84.0547L66.1 83.9811C66.5347 83.8622 66.8451 83.5931 66.7139 83.0875C66.5939 82.6132 66.2058 82.5678 65.8192 82.6754C65.6992 82.7065 65.5864 82.7391 65.4623 82.7717C65.506 82.9189 65.5272 83.0478 65.5723 83.1796L65.798 84.0547Z" fill="white"/>
<path d="M68.9252 82.5858C68.547 81.9627 68.4821 81.9102 68.3396 81.9372L67.9093 82.0164L67.8584 81.9556C68.2494 81.7445 68.6246 81.5349 68.9958 81.3056C69.508 80.9884 70.0175 80.6513 70.5452 80.293L71.0362 81.0818L70.97 81.1242L70.5382 80.8496C70.4464 80.7859 70.3758 80.8269 69.7535 81.2079L69.2611 81.5109C69.4459 81.8436 69.659 82.1978 69.8327 82.481L70.6257 81.9796C70.8542 81.8507 70.8599 81.7941 70.8332 81.6355L70.7682 81.3014L70.8388 81.266C70.9418 81.4655 71.0434 81.661 71.1703 81.8678C71.2889 82.0632 71.43 82.2558 71.5655 82.4667L71.5048 82.5093L71.1703 82.2714C71.0969 82.2232 70.9925 82.1821 70.8218 82.2869L70.0104 82.7811C70.2193 83.1083 70.4746 83.5232 70.7188 83.8772C70.929 83.7598 71.1506 83.6238 71.3567 83.4935C71.9267 83.1423 71.9338 83.1083 71.914 82.9213L71.8603 82.4299L71.9507 82.3776L72.4333 83.2527C71.8012 83.6294 71.1859 83.9806 70.5777 84.346C70.2828 84.5301 69.9991 84.7354 69.7042 84.9436L69.6689 84.8756L69.9371 84.4876C70.0104 84.3843 70.0062 84.346 69.6153 83.7101L68.9252 82.5858Z" fill="white"/>
<path d="M73.5641 79.0099L73.4963 79.0765L72.8811 78.7734C72.8246 78.7508 72.5989 78.857 72.4069 79.0369C72.16 79.2607 72.0527 79.6018 72.3011 79.8738C72.8584 80.4685 73.938 79.129 74.7227 79.9715C75.3167 80.5974 74.8313 81.4061 74.4714 81.736C73.9958 82.1905 73.6657 82.3534 73.4681 82.4369L72.8458 81.7247L72.9163 81.661L73.5062 81.9556C73.622 82.0093 73.9437 81.8238 74.0649 81.7177C74.3627 81.4357 74.487 81.0676 74.2174 80.7929C73.6825 80.2108 72.5692 81.5051 71.8213 80.7164C71.2667 80.1159 71.5461 79.4405 72.1896 78.8371C72.3646 78.6658 72.6426 78.4705 72.9474 78.3062L73.5641 79.0099Z" fill="white"/>
<path d="M18.7822 38.8792C18.8682 39.0392 19.1674 39.525 19.1674 39.525C20.539 41.7312 21.2022 43.9928 21.2022 46.4653C21.2022 49.2636 20.3513 51.9317 19.5287 54.5174C18.6679 57.2137 17.7803 59.9951 17.7803 63.0242L17.7859 63.6077C18.5267 74.1705 24.4097 75.5527 31.869 77.2888C35.1428 78.0508 38.5196 78.8566 41.6044 80.5531C44.6905 78.8566 48.0731 78.0508 51.3455 77.2888C58.8004 75.5527 64.6807 74.1705 65.4272 63.551L65.4314 62.9888C65.4314 60.0064 64.541 57.2137 63.6788 54.5232C62.8561 51.9359 62.0107 49.2679 62.0107 46.4653C62.0107 43.9928 62.6769 41.7312 64.0399 39.525C64.0399 39.525 64.3137 39.0944 64.4422 38.8848C58.9317 35.5087 56.1391 32.2078 54.9198 30.4702C52.2472 31.756 47.0796 33.8377 41.6143 33.8632H41.5959C36.1363 33.8377 30.9645 31.756 28.2833 30.4702C27.0768 32.2021 24.277 35.5073 18.7822 38.8792Z" fill="white"/>
<path d="M16.5817 40.1711C16.5817 40.1711 15.6306 41.3211 15.4274 41.2757C15.2087 41.2375 14.7134 40.1457 15.3626 39.5168C15.9961 38.9122 16.5817 40.1711 16.5817 40.1711Z" fill="#FFCB00"/>
<path d="M66.6372 40.1711C66.6372 40.1711 67.5784 41.3211 67.7802 41.2757C67.9947 41.2375 68.5013 40.1457 67.8395 39.5168C67.2128 38.9122 66.6372 40.1711 66.6372 40.1711Z" fill="#FFCB00"/>
<path d="M40.4807 9.39453C40.4807 9.39453 39.2574 9.88449 38.2116 10.8885C37.1731 11.894 36.2954 13.439 36.2954 13.439L37.6994 19.0044L40.4807 19.0086V9.39453Z" fill="white"/>
<path d="M42.7129 9.39453C42.7129 9.39453 43.9306 9.88449 44.9736 10.8885C46.022 11.894 46.8884 13.439 46.8884 13.439L45.4971 19.0044L42.7129 19.0086V9.39453Z" fill="white"/>
<path d="M39.7659 15.297L39.7053 14.6697L38.7429 14.7773L38.5509 13.2153L37.9513 13.2861L38.1403 14.8396L37.2612 14.9317L37.3332 15.5661L38.2122 15.467L38.6511 19.0993L39.241 19.0285L38.8121 15.4018L39.7659 15.297Z" fill="#1C205C"/>
<path d="M45.948 14.9327L45.0788 14.8406L45.265 13.2871L44.6639 13.2163L44.4734 14.7769L43.5166 14.6693L43.4517 15.298L44.3958 15.4028L43.9695 19.0295L44.5623 19.1003L45.0039 15.4665L45.8704 15.5671L45.948 14.9327Z" fill="#1C205C"/>
<path d="M41.6071 16.0493L40.9312 17.1696L41.6071 18.2812L42.293 17.1696L41.6071 16.0493Z" fill="#FFCB00"/>
<path d="M41.5884 19.7256L42.2036 20.6432L41.6068 21.6289L41.0098 20.6234L41.5884 19.7256Z" fill="#FFCB00"/>
<path d="M35.1787 14.1328L34.8047 15.3776L35.7572 16.2937L36.1256 15.0476L35.1787 14.1328Z" fill="#FFCB00"/>
<path d="M36.0042 17.1807L35.6387 18.4212L36.5884 19.343L36.9582 18.094L36.0042 17.1807Z" fill="#FFCB00"/>
<path d="M37.3403 19.7256L37.9514 20.6432L37.36 21.6289L36.7617 20.6234L37.3403 19.7256Z" fill="#FFCB00"/>
<path d="M39.4607 19.7378L40.2214 20.8792L39.4833 22.0956L38.751 20.8508L39.4607 19.7378Z" fill="#FFCB00"/>
<path d="M47.9997 14.1328L48.3568 15.3776L47.4028 16.2937L47.0444 15.0476L47.9997 14.1328Z" fill="#FFCB00"/>
<path d="M47.1258 17.1807L47.4955 18.4212L46.5402 19.343L46.1704 18.094L47.1258 17.1807Z" fill="#FFCB00"/>
<path d="M45.8701 19.7256L45.2534 20.6432L45.8531 21.6289L46.4514 20.6234L45.8701 19.7256Z" fill="#FFCB00"/>
<path d="M43.6521 19.7378L42.8901 20.8792L43.6239 22.0956L44.3606 20.8508L43.6521 19.7378Z" fill="#FFCB00"/>
<path d="M12.5514 73.9323C13.3727 73.8884 14.2038 75.129 14.0711 75.5368C13.9244 75.9475 12.7051 76.7362 12.7051 76.7362C11.5367 75.2507 11.723 73.9749 12.5514 73.9323Z" fill="#FFCB00"/>
<path d="M70.4582 76.6606C70.4582 76.6606 69.2403 75.8647 69.0922 75.4598C68.9539 75.0576 69.7921 73.817 70.612 73.8595C71.4431 73.9005 71.6238 75.1722 70.4582 76.6606Z" fill="#FFCB00"/>
<path d="M41.4753 83.4954L41.3102 83.3793C38.3948 81.4519 34.771 80.5966 31.2418 79.781C23.8404 78.0773 15.9775 76.1754 15.1351 63.7021C15.1224 63.4728 15.1139 63.2377 15.1139 63.0096C15.1139 59.6053 16.0749 56.6314 16.9795 53.7694C17.812 51.1878 18.5628 48.8299 18.5612 46.4735C18.5612 44.8322 18.1732 43.1823 17.2094 41.4377C16.7113 41.9462 16.1807 42.5238 15.5217 42.5494C15.3453 42.5494 15.1661 42.497 14.994 42.3836C14.2559 41.8386 13.834 41.0795 13.834 40.2553C13.834 40.2199 13.834 40.1803 13.8368 40.1533C13.8679 39.3135 14.311 38.5191 15.0166 38.0574C24.704 32.8786 26.9829 27.5312 26.9829 27.5312L27.189 27.6135L26.9843 27.527L27.227 26.9648L27.7407 27.2778C27.7972 27.3132 34.6284 31.2812 41.6023 31.3053C48.5903 31.2812 55.4089 27.3132 55.4638 27.2792L55.9931 26.9719L56.0917 27.2042L56.2244 27.5284C56.2286 27.5342 58.5019 32.8772 68.2275 38.0829C68.8935 38.5191 69.3437 39.312 69.3776 40.1547V40.2539C69.379 41.0795 68.9543 41.8414 68.188 42.4078C68.0285 42.5055 67.8564 42.555 67.6912 42.5536C67.0295 42.531 66.4975 41.9462 66.0007 41.4349C65.0369 43.1809 64.6545 44.8307 64.6545 46.4735C64.6531 48.8299 65.4053 51.1878 66.228 53.7722C67.1437 56.6314 68.0977 59.6053 68.1005 63.0096C68.1005 63.249 68.0893 63.4728 68.0822 63.7163C67.2327 76.1754 59.3599 78.0773 51.9727 79.781C48.442 80.5966 44.8196 81.4519 41.9056 83.3765L41.5995 83.5847L41.4753 83.4954ZM17.4479 40.9562C18.5528 42.8567 19.0044 44.675 19.0015 46.4735C19.0001 48.9277 18.2311 51.3251 17.4014 53.9054C16.4925 56.7688 15.5584 59.6902 15.5598 63.0096C15.5598 63.232 15.5684 63.4571 15.5768 63.6767C16.4432 75.8978 23.9053 77.5859 31.3434 79.3461C34.8712 80.1675 38.5472 81.0229 41.5585 83.0125L41.6051 83.0451L41.6601 83.0083C44.6673 81.0229 48.3432 80.1675 51.8711 79.3461C59.2965 77.5859 66.7655 75.8978 67.6391 63.6951C67.6433 63.4571 67.6518 63.2349 67.6518 63.0096C67.6518 59.6902 66.7246 56.7688 65.8075 53.9054C64.9862 51.3251 64.2114 48.9277 64.2114 46.4735C64.21 44.675 64.6517 42.8567 65.7622 40.9562L65.9119 40.7014L66.1151 40.9166C66.1532 40.9562 66.2152 41.0186 66.221 41.0256C66.7346 41.5779 67.3188 42.1316 67.6912 42.1075C67.7774 42.1075 67.8592 42.0863 67.9383 42.0395C68.6029 41.5453 68.933 40.9237 68.933 40.2539V40.1688C68.9091 39.4806 68.521 38.8009 68.0017 38.4653C58.1987 33.2241 55.8576 27.7989 55.8195 27.6998L55.7799 27.6092L55.684 27.6644C55.6021 27.7084 48.7482 31.7203 41.6023 31.75C34.4689 31.7203 27.601 27.7084 27.515 27.6616L27.4317 27.6092L27.3922 27.7026C27.292 27.9433 24.8775 33.2921 15.2437 38.4426C14.6821 38.8038 14.3025 39.4778 14.2771 40.1717C14.2757 40.1986 14.2757 40.2298 14.2757 40.2553C14.2771 40.9237 14.6102 41.5453 15.2465 42.017C15.3425 42.0793 15.4271 42.099 15.5217 42.1005C15.8985 42.1217 16.4813 41.5737 16.9964 41.0228C16.9964 41.0228 17.0557 40.9605 17.0966 40.9166L17.2984 40.7L17.4479 40.9562Z" fill="#FFCB00"/>
<path d="M41.597 5.15674L40.7559 6.53606L41.597 7.92385L42.4394 6.53606L41.597 5.15674Z" fill="#FFCB00"/>
<path d="M41.5969 8.99365L40.9209 10.1053L41.5969 11.2198L42.2741 10.1053L41.5969 8.99365Z" fill="#FFCB00"/>
<path d="M41.5969 12.5288L40.9209 13.6376L41.5969 14.7565L42.2741 13.6376L41.5969 12.5288Z" fill="#FFCB00"/>
<path d="M35.9354 11.5977L34.7148 12.1288L34.5962 13.4174L35.8211 12.8822L35.9354 11.5977Z" fill="#FFCB00"/>
<path d="M37.7539 9.10498L36.5023 9.5766L36.3159 10.8554L37.5675 10.3823L37.7539 9.10498Z" fill="#FFCB00"/>
<path d="M40.0142 7.00146L39.6811 8.31422L38.2573 8.64424L38.6891 7.27761L40.0142 7.00146Z" fill="#FFCB00"/>
<path d="M47.2515 11.5977L48.472 12.1288L48.5963 13.4174L47.3713 12.8822L47.2515 11.5977Z" fill="#FFCB00"/>
<path d="M45.4365 9.10498L46.6882 9.5766L46.8745 10.8554L45.6213 10.3823L45.4365 9.10498Z" fill="#FFCB00"/>
<path d="M43.1777 7.00146L43.5066 8.31422L44.9318 8.64424L44.5015 7.27761L43.1777 7.00146Z" fill="#FFCB00"/>
<path d="M18.791 38.8668C18.8898 39.0366 19.1776 39.5209 19.1776 39.5209C20.5549 41.7188 21.2196 43.9875 21.2196 46.46C21.2196 49.2568 20.3659 51.9262 19.539 54.5149C18.6796 57.2084 17.7905 59.9897 17.7905 63.0203L17.8018 63.6008C18.5399 74.1652 24.4285 75.5431 31.8835 77.2807C35.1545 78.0425 38.5313 78.8412 41.6189 80.5534C44.7051 78.8412 48.0833 78.0425 51.3558 77.2807C58.8079 75.5431 64.6979 74.1652 65.4389 63.5428L65.4445 62.9834C65.4445 59.9982 64.5554 57.2084 63.6961 54.5177C62.8691 51.9277 62.0169 49.2596 62.0169 46.46C62.0169 43.9875 62.6857 41.7188 64.0588 39.5181C64.0588 39.5181 64.3269 39.0876 64.4566 38.8766C58.9462 35.5048 56.1493 32.2024 54.9372 30.4619C52.2631 31.7507 47.0899 33.8394 41.6301 33.8579H41.6119C36.1465 33.8394 30.9719 31.7507 28.3006 30.4619C27.0913 32.201 24.2916 35.5005 18.791 38.8668Z" fill="white"/>
<path d="M63.8373 61.4862C63.606 59.2473 62.9173 57.0693 62.2399 54.9438C61.9592 54.0685 61.6798 53.1764 61.4229 52.2758L41.6275 45.2573L21.8096 52.2786C21.5555 53.1793 21.2775 54.0685 20.9967 54.9438C20.3265 57.0439 19.6435 59.202 19.4106 61.4396L41.6275 53.944L63.8373 61.4862Z" fill="#1C205C"/>
<path d="M20.1948 68.2963C21.9643 73.4582 26.1328 74.4367 32.2445 75.8613C35.2219 76.5566 38.5536 77.3808 41.6186 78.9188C44.6808 77.3808 48.0139 76.5566 50.9941 75.8613C57.0663 74.4424 61.2236 73.4681 63.0171 68.3289L41.627 61.0698L20.1948 68.2963Z" fill="#1C205C"/>
<path d="M61.4225 52.2761C60.9018 50.4125 60.4925 48.4921 60.4925 46.4614C60.4925 43.9336 61.1473 41.6027 62.4386 39.3425C58.4972 36.7666 55.9897 34.2714 54.4417 32.3101C51.4233 33.6426 46.6663 35.3008 41.6329 35.3193H41.6032C36.5697 35.3008 31.8141 33.6426 28.7958 32.3101C27.2449 34.2714 24.7401 36.7666 20.7974 39.3425C22.0816 41.5857 22.7434 43.9237 22.7434 46.4614C22.7434 48.495 22.3355 50.4153 21.8106 52.2803L41.6271 45.2576L61.4225 52.2761Z" fill="#E20613"/>
<path d="M40.1288 49.6827L39.0536 48.115L40.8768 48.3388L41.6288 46.5771L42.3556 48.3501L44.1887 48.1462L43.0922 49.7025L44.166 51.2673L42.3414 51.0436L41.5921 52.8024L40.864 51.0351L39.0352 51.2347L40.1288 49.6827Z" fill="#FFCB00"/>
<path d="M53.0674 54.0229L51.9863 52.4567L53.8123 52.6733L54.5603 50.9116L55.294 52.6775L57.1228 52.4722L56.0349 54.0271L57.113 55.5906L55.2856 55.3738L54.5419 57.1397L53.8039 55.3724L51.9751 55.575L53.0674 54.0229Z" fill="#FFCB00"/>
<path d="M27.3189 54.0285L26.2337 55.5891L28.0655 55.3738L28.8076 57.1383L29.55 55.3738L31.3718 55.575L30.2837 54.0243L31.3674 52.4595L29.5428 52.6747L28.7964 50.9116L28.0555 52.6775L26.2295 52.4722L27.3189 54.0285Z" fill="#FFCB00"/>
<path d="M63.9144 63.439C63.9144 63.3739 63.9242 62.9859 63.9242 62.9859C63.9242 62.4831 63.8875 61.9847 63.8381 61.4861L41.6269 53.9438L19.4114 61.4394C19.3565 61.962 19.3154 62.4887 19.3154 63.0199L19.3282 63.5467C19.4581 65.4457 19.7543 67.002 20.1946 68.2963L41.6269 61.0698L63.0169 68.3289C63.4741 67.0062 63.7761 65.4061 63.9144 63.4461V63.439Z" fill="#E20613"/>
<path d="M19.0635 61.9773L41.7503 54.319H41.4991L64.0405 61.9773L64.2931 61.2226L41.7545 53.5698L41.6274 53.5273L41.4991 53.5698L18.8081 61.2226L19.0635 61.9773Z" fill="white"/>
<path d="M19.311 69.0386L41.7537 61.4453L41.4998 61.4439L63.6629 68.9918L63.9142 68.247L41.7551 60.6933L41.6267 60.6494L41.4998 60.6933L19.0557 68.2866L19.311 69.0386Z" fill="white"/>
<path d="M20.7194 53.0992L41.7579 45.6305H41.4926L62.558 53.0992L62.8205 52.3515L41.7579 44.8857L41.6267 44.8389L41.4926 44.8857L20.4556 52.3515L20.7194 53.0992Z" fill="white"/>
<path d="M42.5473 63.9243C41.8346 63.9243 41.8502 65.3135 41.8502 65.3135H41.726C41.726 64.5034 42.0181 64.1396 42.0181 63.583C42.0181 63.0265 41.6428 62.7305 41.6428 62.7305C41.6428 62.7305 41.2702 63.0265 41.2702 63.583C41.2702 64.1396 41.5638 64.5034 41.5638 65.3135H41.4381C41.4381 65.3135 41.4536 63.9243 40.7439 63.9243C40.4715 63.9243 40.312 64.1962 40.312 64.4016C40.312 64.6068 40.4362 64.8972 40.7664 64.8972C40.9118 64.8972 40.9541 64.8349 40.9541 64.8349C40.9541 64.8349 40.782 64.8023 40.782 64.6904C40.782 64.5772 40.9118 64.5772 40.9118 64.5772C41.0091 64.5772 41.1389 64.6267 41.1389 65.3135C41.1389 65.3135 40.9922 65.3065 40.9922 65.4352C40.9922 65.5641 41.1389 65.5543 41.1389 65.5543H41.4169C41.4169 65.5543 41.4057 65.7498 41.1079 65.9026C41.1079 65.9026 41.1319 65.9521 41.448 65.9521C41.448 65.9521 41.4804 66.1448 41.647 66.3133C41.8093 66.1448 41.8446 65.9521 41.8446 65.9521C42.1592 65.9521 42.1817 65.9026 42.1817 65.9026C41.8827 65.7498 41.8742 65.5543 41.8742 65.5543H42.1494C42.1494 65.5543 42.2975 65.5656 42.2975 65.4352C42.2975 65.3065 42.1494 65.3135 42.1494 65.3135C42.1494 64.6267 42.2805 64.5772 42.3779 64.5772C42.3779 64.5772 42.5092 64.5772 42.5092 64.6904C42.5092 64.8023 42.3328 64.8349 42.3328 64.8349C42.3328 64.8349 42.3779 64.8972 42.5218 64.8972C42.8549 64.8972 42.9734 64.6068 42.9734 64.4016C42.9734 64.1962 42.8182 63.9243 42.5473 63.9243Z" fill="#FFCB00"/>
<path d="M42.4769 38.1729C41.7643 38.1729 41.7799 39.5623 41.7799 39.5623H41.6556C41.6556 38.7508 41.952 38.3855 41.952 37.829C41.952 37.2795 41.571 36.9849 41.571 36.9849C41.571 36.9849 41.2013 37.2795 41.2013 37.829C41.2013 38.3855 41.4933 38.7508 41.4933 39.5623H41.3734C41.3734 39.5623 41.3847 38.1729 40.6736 38.1729C40.4026 38.1729 40.2417 38.4463 40.2417 38.6488C40.2417 38.8584 40.3645 39.1445 40.6975 39.1445C40.8401 39.1445 40.8852 39.0808 40.8852 39.0808C40.8852 39.0808 40.7103 39.0524 40.7103 38.9378C40.7103 38.8244 40.8401 38.8244 40.8401 38.8244C40.9374 38.8244 41.0672 38.8768 41.0672 39.5623C41.0672 39.5623 40.9205 39.5551 40.9205 39.6812C40.9205 39.8157 41.0672 39.8044 41.0672 39.8044H41.3452C41.3452 39.8044 41.3382 39.9984 41.0376 40.1514C41.0376 40.1514 41.0616 40.2051 41.3749 40.2051C41.3749 40.2051 41.4073 40.3921 41.5753 40.5593C41.7446 40.3921 41.7743 40.2051 41.7743 40.2051C42.0917 40.2051 42.1114 40.1514 42.1114 40.1514C41.8095 39.9984 41.801 39.8044 41.801 39.8044H42.0833C42.0833 39.8044 42.2286 39.8157 42.2286 39.6812C42.2286 39.5551 42.0789 39.5623 42.0789 39.5623C42.0789 38.8768 42.2102 38.8244 42.3104 38.8244C42.3104 38.8244 42.4389 38.8244 42.4389 38.9378C42.4389 39.0524 42.2639 39.0808 42.2639 39.0808C42.2639 39.0808 42.3104 39.1445 42.4515 39.1445C42.7832 39.1445 42.906 38.8584 42.906 38.6488C42.906 38.4463 42.7479 38.1729 42.4769 38.1729Z" fill="#FFCB00"/>
<path d="M49.2489 38.1729C48.5363 38.1729 48.5503 39.5623 48.5503 39.5623H48.4262C48.4262 38.7508 48.7182 38.3855 48.7182 37.829C48.7182 37.2795 48.3443 36.9849 48.3443 36.9849C48.3443 36.9849 47.969 37.2795 47.969 37.829C47.969 38.3855 48.2653 38.7508 48.2653 39.5623H48.1412C48.1412 39.5623 48.1539 38.1729 47.4454 38.1729C47.1702 38.1729 47.0137 38.4463 47.0137 38.6488C47.0137 38.8584 47.1392 39.1445 47.468 39.1445C47.6133 39.1445 47.6586 39.0808 47.6586 39.0808C47.6586 39.0808 47.485 39.0524 47.485 38.9378C47.485 38.8244 47.6133 38.8244 47.6133 38.8244C47.7093 38.8244 47.8406 38.8768 47.8406 39.5623C47.8406 39.5623 47.6953 39.5551 47.6953 39.6812C47.6953 39.8157 47.8406 39.8044 47.8406 39.8044H48.1186C48.1186 39.8044 48.1101 39.9984 47.8053 40.1514C47.8053 40.1514 47.835 40.2051 48.1454 40.2051C48.1454 40.2051 48.1779 40.3921 48.3472 40.5593C48.5136 40.3921 48.5405 40.2051 48.5405 40.2051C48.8651 40.2051 48.8834 40.1514 48.8834 40.1514C48.5842 39.9984 48.5729 39.8044 48.5729 39.8044H48.8523C48.8523 39.8044 48.999 39.8157 48.999 39.6812C48.999 39.5551 48.8495 39.5623 48.8495 39.5623C48.8495 38.8768 48.985 38.8244 49.081 38.8244C49.081 38.8244 49.208 38.8244 49.208 38.9378C49.208 39.0524 49.0345 39.0808 49.0345 39.0808C49.0345 39.0808 49.081 39.1445 49.2235 39.1445C49.558 39.1445 49.6792 38.8584 49.6792 38.6488C49.6792 38.4463 49.5171 38.1729 49.2489 38.1729Z" fill="#FFCB00"/>
<path d="M35.7074 38.1729C34.9948 38.1729 35.0103 39.5623 35.0103 39.5623H34.8834C34.8834 38.7508 35.1796 38.3855 35.1796 37.829C35.1796 37.2795 34.8057 36.9849 34.8057 36.9849C34.8057 36.9849 34.4317 37.2795 34.4317 37.829C34.4317 38.3855 34.7239 38.7508 34.7239 39.5623H34.6039C34.6039 39.5623 34.6152 38.1729 33.904 38.1729C33.6316 38.1729 33.4707 38.4463 33.4707 38.6488C33.4707 38.8584 33.5921 39.1445 33.9294 39.1445C34.0705 39.1445 34.1142 39.0808 34.1142 39.0808C34.1142 39.0808 33.9421 39.0524 33.9421 38.9378C33.9421 38.8244 34.0705 38.8244 34.0705 38.8244C34.1693 38.8244 34.3006 38.8768 34.3006 39.5623C34.3006 39.5623 34.1509 39.5551 34.1509 39.6812C34.1509 39.8157 34.3006 39.8044 34.3006 39.8044H34.5772C34.5772 39.8044 34.57 39.9984 34.2695 40.1514C34.2695 40.1514 34.2892 40.2051 34.6096 40.2051C34.6096 40.2051 34.6405 40.3921 34.8071 40.5593C34.9722 40.3921 35.0033 40.2051 35.0033 40.2051C35.3235 40.2051 35.3462 40.1514 35.3462 40.1514C35.0399 39.9984 35.0343 39.8044 35.0343 39.8044H35.3095C35.3095 39.8044 35.4576 39.8157 35.4576 39.6812C35.4576 39.5551 35.3095 39.5623 35.3095 39.5623C35.3095 38.8768 35.4408 38.8244 35.5381 38.8244C35.5381 38.8244 35.6693 38.8244 35.6693 38.9378C35.6693 39.0524 35.4971 39.0808 35.4971 39.0808C35.4971 39.0808 35.5381 39.1445 35.6821 39.1445C36.015 39.1445 36.1364 38.8584 36.1364 38.6488C36.1364 38.4463 35.9797 38.1729 35.7074 38.1729Z" fill="#FFCB00"/>
<path d="M46.3931 42.141C45.6861 42.141 45.6975 43.5318 45.6975 43.5318H45.5761C45.5761 42.7217 45.8668 42.3564 45.8668 41.7983C45.8668 41.2489 45.49 40.9487 45.49 40.9487C45.49 40.9487 45.1161 41.2489 45.1161 41.7983C45.1161 42.3564 45.4123 42.7217 45.4123 43.5318H45.291C45.291 43.5318 45.3023 42.141 44.5926 42.141C44.3202 42.141 44.1621 42.4158 44.1621 42.6225C44.1621 42.8265 44.2792 43.1139 44.6165 43.1139C44.7576 43.1139 44.8056 43.0503 44.8056 43.0503C44.8056 43.0503 44.6293 43.0219 44.6293 42.9087C44.6293 42.7939 44.7576 42.7939 44.7576 42.7939C44.8606 42.7939 44.9862 42.8407 44.9862 43.5318C44.9862 43.5318 44.8423 43.5246 44.8423 43.6507C44.8423 43.7838 44.9862 43.7739 44.9862 43.7739H45.2642C45.2642 43.7739 45.2558 43.9693 44.9538 44.1195C44.9538 44.1195 44.9764 44.1732 45.2953 44.1732C45.2953 44.1732 45.3263 44.3645 45.4957 44.533C45.6594 44.3645 45.6903 44.1732 45.6903 44.1732C46.0093 44.1732 46.0318 44.1195 46.0318 44.1195C45.7299 43.9693 45.7214 43.7739 45.7214 43.7739H45.9994C45.9994 43.7739 46.1504 43.7838 46.1504 43.6507C46.1504 43.5246 45.9951 43.5318 45.9951 43.5318C45.9951 42.8407 46.1334 42.7939 46.2322 42.7939C46.2322 42.7939 46.3565 42.7939 46.3565 42.9087C46.3565 43.0219 46.1829 43.0503 46.1829 43.0503C46.1829 43.0503 46.2322 43.1139 46.3719 43.1139C46.7078 43.1139 46.8235 42.8265 46.8235 42.6225C46.8235 42.4158 46.6669 42.141 46.3931 42.141Z" fill="#FFCB00"/>
<path d="M38.5624 42.141C37.8513 42.141 37.8639 43.5318 37.8639 43.5318H37.7426C37.7426 42.7217 38.0332 42.3564 38.0332 41.7983C38.0332 41.2489 37.6551 40.9487 37.6551 40.9487C37.6551 40.9487 37.2853 41.2489 37.2853 41.7983C37.2853 42.3564 37.5803 42.7217 37.5803 43.5318H37.4575C37.4575 43.5318 37.4703 42.141 36.7618 42.141C36.4852 42.141 36.3301 42.4158 36.3301 42.6225C36.3301 42.8265 36.4528 43.1139 36.7802 43.1139C36.9255 43.1139 36.9706 43.0503 36.9706 43.0503C36.9706 43.0503 36.7971 43.0219 36.7971 42.9087C36.7971 42.7939 36.9255 42.7939 36.9255 42.7939C37.0229 42.7939 37.1555 42.8407 37.1555 43.5318C37.1555 43.5318 37.0059 43.5246 37.0059 43.6507C37.0059 43.7838 37.154 43.7739 37.154 43.7739H37.4308C37.4308 43.7739 37.425 43.9693 37.1245 44.1195C37.1245 44.1195 37.1442 44.1732 37.4617 44.1732C37.4617 44.1732 37.4941 44.3645 37.6593 44.533C37.8272 44.3645 37.8555 44.1732 37.8555 44.1732C38.1772 44.1732 38.2012 44.1195 38.2012 44.1195C37.895 43.9693 37.8865 43.7739 37.8865 43.7739H38.1673C38.1673 43.7739 38.3154 43.7838 38.3154 43.6507C38.3154 43.5246 38.1673 43.5318 38.1673 43.5318C38.1673 42.8407 38.2972 42.7939 38.3944 42.7939C38.3944 42.7939 38.5243 42.7939 38.5243 42.9087C38.5243 43.0219 38.3493 43.0503 38.3493 43.0503C38.3493 43.0503 38.3944 43.1139 38.5371 43.1139C38.8714 43.1139 38.99 42.8265 38.99 42.6225C38.99 42.4158 38.8319 42.141 38.5624 42.141Z" fill="#FFCB00"/>
<path d="M55.4552 36.5394C54.744 36.5394 54.761 37.9286 54.761 37.9286H54.6339C54.6339 37.1116 54.9317 36.7504 54.9317 36.1967C54.9317 35.6416 54.5563 35.3457 54.5563 35.3457C54.5563 35.3457 54.181 35.6416 54.181 36.1967C54.181 36.7504 54.4744 37.1116 54.4744 37.9286H54.3489C54.3489 37.9286 54.3658 36.5394 53.6518 36.5394C53.3823 36.5394 53.2256 36.8099 53.2256 37.0153C53.2256 37.2206 53.3442 37.5081 53.6771 37.5081C53.8196 37.5081 53.8677 37.4501 53.8677 37.4501C53.8677 37.4501 53.6941 37.4175 53.6941 37.3041C53.6941 37.1895 53.8196 37.1895 53.8196 37.1895C53.9184 37.1895 54.0483 37.2361 54.0483 37.9286C54.0483 37.9286 53.9016 37.9216 53.9016 38.0448C53.9016 38.178 54.0483 38.1651 54.0483 38.1651H54.3235C54.3235 38.1651 54.3178 38.3648 54.0172 38.5193C54.0172 38.5193 54.0399 38.5702 54.3587 38.5702C54.3587 38.5702 54.3912 38.7599 54.5577 38.927C54.7201 38.7599 54.7553 38.5702 54.7553 38.5702C55.07 38.5702 55.0954 38.5193 55.0954 38.5193C54.7878 38.3648 54.782 38.1651 54.782 38.1651H55.0586C55.0586 38.1651 55.2069 38.1808 55.2069 38.0448C55.2069 37.9216 55.0586 37.9286 55.0586 37.9286C55.0586 37.2361 55.1913 37.1895 55.2887 37.1895C55.2887 37.1895 55.4171 37.1895 55.4171 37.3041C55.4171 37.4175 55.2436 37.4501 55.2436 37.4501C55.2436 37.4501 55.2887 37.5081 55.434 37.5081C55.7671 37.5081 55.8855 37.2206 55.8855 37.0153C55.8855 36.8099 55.7248 36.5394 55.4552 36.5394Z" fill="#FFCB00"/>
<path d="M29.5069 36.5394C28.8015 36.5394 28.8127 37.9286 28.8127 37.9286H28.6872C28.6872 37.1116 28.9849 36.7504 28.9849 36.1967C28.9849 35.6416 28.6067 35.3457 28.6067 35.3457C28.6067 35.3457 28.2341 35.6416 28.2341 36.1967C28.2341 36.7504 28.5291 37.1116 28.5291 37.9286H28.4049C28.4049 37.9286 28.419 36.5394 27.7078 36.5394C27.4354 36.5394 27.2803 36.8099 27.2803 37.0153C27.2803 37.2206 27.3959 37.5081 27.729 37.5081C27.8757 37.5081 27.9194 37.4501 27.9194 37.4501C27.9194 37.4501 27.7459 37.4175 27.7459 37.3041C27.7459 37.1895 27.8757 37.1895 27.8757 37.1895C27.9745 37.1895 28.1044 37.2361 28.1044 37.9286C28.1044 37.9286 27.9575 37.9216 27.9575 38.0448C27.9575 38.178 28.1044 38.1651 28.1044 38.1651H28.3796C28.3796 38.1651 28.3724 38.3648 28.0691 38.5193C28.0691 38.5193 28.093 38.5702 28.4106 38.5702C28.4106 38.5702 28.4429 38.7599 28.6095 38.927C28.7746 38.7599 28.8071 38.5702 28.8071 38.5702C29.1245 38.5702 29.143 38.5193 29.143 38.5193C28.8423 38.3648 28.8381 38.1651 28.8381 38.1651H29.1133C29.1133 38.1651 29.2614 38.1808 29.2614 38.0448C29.2614 37.9216 29.1105 37.9286 29.1105 37.9286C29.1105 37.2361 29.2474 37.1895 29.3448 37.1895C29.3448 37.1895 29.4703 37.1895 29.4703 37.3041C29.4703 37.4175 29.2967 37.4501 29.2967 37.4501C29.2967 37.4501 29.3448 37.5081 29.4831 37.5081C29.8188 37.5081 29.9402 37.2206 29.9402 37.0153C29.9402 36.8099 29.7821 36.5394 29.5069 36.5394Z" fill="#FFCB00"/>
<path d="M59.3759 40.3024C58.6633 40.3024 58.6803 41.6958 58.6803 41.6958H58.5546C58.5546 40.876 58.8467 40.5148 58.8467 39.9625C58.8467 39.4088 58.4714 39.1157 58.4714 39.1157C58.4714 39.1157 58.0989 39.4088 58.0989 39.9625C58.0989 40.5148 58.3937 40.876 58.3937 41.6958H58.2682C58.2682 41.6958 58.2851 40.3024 57.5724 40.3024C57.3016 40.3024 57.1421 40.5729 57.1421 40.7797C57.1421 40.9836 57.262 41.2724 57.595 41.2724C57.7375 41.2724 57.787 41.2143 57.787 41.2143C57.787 41.2143 57.6106 41.1819 57.6106 41.0671C57.6106 40.9538 57.7375 40.9538 57.7375 40.9538C57.8392 40.9538 57.969 41.0019 57.969 41.6958C57.969 41.6958 57.8181 41.6817 57.8181 41.8078C57.8181 41.9423 57.969 41.9309 57.969 41.9309H58.2442C58.2442 41.9309 58.24 42.1306 57.9365 42.2793C57.9365 42.2793 57.9592 42.3332 58.2738 42.3332C58.2738 42.3332 58.3077 42.5243 58.4771 42.69C58.6422 42.5243 58.6745 42.3332 58.6745 42.3332C58.9893 42.3332 59.0132 42.2793 59.0132 42.2793C58.7113 42.1306 58.7013 41.9309 58.7013 41.9309H58.9793C58.9793 41.9309 59.129 41.9438 59.129 41.8078C59.129 41.6817 58.9793 41.6958 58.9793 41.6958C58.9793 41.0019 59.1078 40.9538 59.2108 40.9538C59.2108 40.9538 59.3364 40.9538 59.3364 41.0671C59.3364 41.1819 59.1657 41.2143 59.1657 41.2143C59.1657 41.2143 59.2108 41.2724 59.3533 41.2724C59.685 41.2724 59.8063 40.9836 59.8063 40.7797C59.8063 40.5729 59.6469 40.3024 59.3759 40.3024Z" fill="#FFCB00"/>
<path d="M25.5399 40.1725C24.8288 40.1725 24.8386 41.5618 24.8386 41.5618H24.7158C24.7158 40.7475 25.0122 40.3864 25.0122 39.8326C25.0122 39.276 24.634 38.9844 24.634 38.9844C24.634 38.9844 24.26 39.276 24.26 39.8326C24.26 40.3864 24.555 40.7475 24.555 41.5618H24.4308C24.4308 41.5618 24.4476 40.1725 23.7365 40.1725C23.4655 40.1725 23.3032 40.4472 23.3032 40.6525C23.3032 40.8565 23.4246 41.1411 23.7576 41.1411C23.903 41.1411 23.9467 41.0859 23.9467 41.0859C23.9467 41.0859 23.7732 41.0548 23.7732 40.9357C23.7732 40.8253 23.903 40.8253 23.903 40.8253C24.0003 40.8253 24.1287 40.8749 24.1287 41.5618C24.1287 41.5618 23.982 41.5546 23.982 41.6793C23.982 41.8152 24.1287 41.8024 24.1287 41.8024H24.4081C24.4081 41.8024 24.4011 42.0007 24.0949 42.1523C24.0949 42.1523 24.1217 42.2074 24.4378 42.2074C24.4378 42.2074 24.4702 42.3959 24.6354 42.563C24.8033 42.3959 24.8316 42.2074 24.8316 42.2074C25.1533 42.2074 25.1745 42.1523 25.1745 42.1523C24.8753 42.0007 24.864 41.8024 24.864 41.8024H25.1448C25.1448 41.8024 25.2901 41.8152 25.2901 41.6793C25.2901 41.5546 25.142 41.5618 25.142 41.5618C25.142 40.8749 25.2717 40.8253 25.3705 40.8253C25.3705 40.8253 25.4962 40.8253 25.4962 40.9357C25.4962 41.0548 25.3254 41.0859 25.3254 41.0859C25.3254 41.0859 25.3705 41.1411 25.5144 41.1411C25.8475 41.1411 25.9647 40.8565 25.9647 40.6525C25.9647 40.4472 25.808 40.1725 25.5399 40.1725Z" fill="#FFCB00"/>
<path d="M52.9503 42.141C52.2406 42.141 52.2533 43.5318 52.2533 43.5318H52.129C52.129 42.7217 52.424 42.3564 52.424 41.7983C52.424 41.2489 52.05 40.9487 52.05 40.9487C52.05 40.9487 51.6747 41.2489 51.6747 41.7983C51.6747 42.3564 51.9683 42.7217 51.9683 43.5318H51.8454C51.8454 43.5318 51.8581 42.141 51.1498 42.141C50.8774 42.141 50.7207 42.4158 50.7207 42.6225C50.7207 42.8265 50.8407 43.1139 51.1696 43.1139C51.3163 43.1139 51.3628 43.0503 51.3628 43.0503C51.3628 43.0503 51.1864 43.0219 51.1864 42.9087C51.1864 42.7939 51.3163 42.7939 51.3163 42.7939C51.4165 42.7939 51.542 42.8407 51.542 43.5318C51.542 43.5318 51.3995 43.5246 51.3995 43.6507C51.3995 43.7838 51.542 43.7739 51.542 43.7739H51.8186C51.8186 43.7739 51.813 43.9693 51.5109 44.1195C51.5109 44.1195 51.5336 44.1732 51.851 44.1732C51.851 44.1732 51.8821 44.3645 52.05 44.533C52.2194 44.3645 52.2491 44.1732 52.2491 44.1732C52.5637 44.1732 52.5891 44.1195 52.5891 44.1195C52.2871 43.9693 52.2787 43.7739 52.2787 43.7739H52.5567C52.5567 43.7739 52.7048 43.7838 52.7048 43.6507C52.7048 43.5246 52.5525 43.5318 52.5525 43.5318C52.5525 42.8407 52.6879 42.7939 52.7852 42.7939C52.7852 42.7939 52.9136 42.7939 52.9136 42.9087C52.9136 43.0219 52.7401 43.0503 52.7401 43.0503C52.7401 43.0503 52.7852 43.1139 52.9278 43.1139C53.2608 43.1139 53.3822 42.8265 53.3822 42.6225C53.3822 42.4158 53.2241 42.141 52.9503 42.141Z" fill="#FFCB00"/>
<path d="M31.9838 42.141C31.2727 42.141 31.2853 43.5318 31.2853 43.5318H31.1625C31.1625 42.7217 31.4617 42.3564 31.4617 41.7983C31.4617 41.2489 31.0793 40.9487 31.0793 40.9487C31.0793 40.9487 30.7082 41.2489 30.7082 41.7983C30.7082 42.3564 31.0032 42.7217 31.0032 43.5318H30.8817C30.8817 43.5318 30.8917 42.141 30.1833 42.141C29.9109 42.141 29.7529 42.4158 29.7529 42.6225C29.7529 42.8265 29.8686 43.1139 30.2031 43.1139C30.3484 43.1139 30.3935 43.0503 30.3935 43.0503C30.3935 43.0503 30.2199 43.0219 30.2199 42.9087C30.2199 42.7939 30.3484 42.7939 30.3484 42.7939C30.4472 42.7939 30.5783 42.8407 30.5783 43.5318C30.5783 43.5318 30.4288 43.5246 30.4288 43.6507C30.4288 43.7838 30.5783 43.7739 30.5783 43.7739H30.855C30.855 43.7739 30.8479 43.9693 30.5446 44.1195C30.5446 44.1195 30.5685 44.1732 30.8845 44.1732C30.8845 44.1732 30.9184 44.3645 31.0793 44.533C31.2515 44.3645 31.2825 44.1732 31.2825 44.1732C31.6 44.1732 31.6226 44.1195 31.6226 44.1195C31.3178 43.9693 31.3122 43.7739 31.3122 43.7739H31.5902C31.5902 43.7739 31.7383 43.7838 31.7383 43.6507C31.7383 43.5246 31.5888 43.5318 31.5888 43.5318C31.5888 42.8407 31.7228 42.7939 31.8145 42.7939C31.8145 42.7939 31.9471 42.7939 31.9471 42.9087C31.9471 43.0219 31.7722 43.0503 31.7722 43.0503C31.7722 43.0503 31.8145 43.1139 31.9613 43.1139C32.2957 43.1139 32.4171 42.8265 32.4171 42.6225C32.4171 42.4158 32.2548 42.141 31.9838 42.141Z" fill="#FFCB00"/>
<path d="M56.8851 45.7665C56.1724 45.7665 56.1865 47.1543 56.1865 47.1543H56.061C56.061 46.3372 56.353 45.9746 56.353 45.4223C56.353 44.8686 55.9762 44.5728 55.9762 44.5728C55.9762 44.5728 55.6079 44.8686 55.6079 45.4223C55.6079 45.9746 55.9029 46.3372 55.9029 47.1543H55.7772C55.7772 47.1543 55.79 45.7665 55.0788 45.7665C54.8092 45.7665 54.6484 46.0356 54.6484 46.2395C54.6484 46.4449 54.7697 46.7323 55.1028 46.7323C55.2509 46.7323 55.2946 46.6714 55.2946 46.6714C55.2946 46.6714 55.1168 46.6402 55.1168 46.5298C55.1168 46.4165 55.2509 46.4165 55.2509 46.4165C55.3455 46.4165 55.4724 46.4646 55.4724 47.1543C55.4724 47.1543 55.3299 47.143 55.3299 47.2719C55.3299 47.4022 55.4724 47.3894 55.4724 47.3894H55.7533C55.7533 47.3894 55.7448 47.5919 55.4429 47.742C55.4429 47.742 55.464 47.7944 55.7829 47.7944C55.7829 47.7944 55.8139 47.9827 55.9819 48.1512C56.1498 47.9827 56.1794 47.7944 56.1794 47.7944C56.4997 47.7944 56.5181 47.742 56.5181 47.742C56.2189 47.5919 56.2091 47.3894 56.2091 47.3894H56.4913C56.4913 47.3894 56.6352 47.4022 56.6352 47.2719C56.6352 47.143 56.4857 47.1543 56.4857 47.1543C56.4857 46.4646 56.6198 46.4165 56.7157 46.4165C56.7157 46.4165 56.8426 46.4165 56.8426 46.5298C56.8426 46.6402 56.6691 46.6714 56.6691 46.6714C56.6691 46.6714 56.7157 46.7323 56.8597 46.7323C57.194 46.7323 57.3154 46.4449 57.3154 46.2395C57.3154 46.0356 57.1531 45.7665 56.8851 45.7665Z" fill="#FFCB00"/>
<path d="M28.083 45.7665C27.3718 45.7665 27.386 47.1543 27.386 47.1543H27.2603C27.2603 46.3372 27.5539 45.9746 27.5539 45.4223C27.5539 44.8686 27.1799 44.5728 27.1799 44.5728C27.1799 44.5728 26.8046 44.8686 26.8046 45.4223C26.8046 45.9746 27.0994 46.3372 27.0994 47.1543H26.9781C26.9781 47.1543 26.9908 45.7665 26.2782 45.7665C26.0073 45.7665 25.8506 46.0356 25.8506 46.2395C25.8506 46.4449 25.9692 46.7323 26.3021 46.7323C26.446 46.7323 26.4913 46.6714 26.4913 46.6714C26.4913 46.6714 26.3191 46.6402 26.3191 46.5298C26.3191 46.4165 26.446 46.4165 26.446 46.4165C26.5434 46.4165 26.6747 46.4646 26.6747 47.1543C26.6747 47.1543 26.5294 47.143 26.5294 47.2719C26.5294 47.4022 26.6747 47.3894 26.6747 47.3894H26.9555C26.9555 47.3894 26.9428 47.5919 26.6436 47.742C26.6436 47.742 26.6635 47.7944 26.9823 47.7944C26.9823 47.7944 27.0148 47.9827 27.1799 48.1512C27.3493 47.9827 27.3789 47.7944 27.3789 47.7944C27.6978 47.7944 27.7203 47.742 27.7203 47.742C27.417 47.5919 27.4084 47.3894 27.4084 47.3894H27.688C27.688 47.3894 27.8347 47.4022 27.8347 47.2719C27.8347 47.143 27.6866 47.1543 27.6866 47.1543C27.6866 46.4646 27.8191 46.4165 27.9151 46.4165C27.9151 46.4165 28.0463 46.4165 28.0463 46.5298C28.0463 46.6402 27.8728 46.6714 27.8728 46.6714C27.8728 46.6714 27.9151 46.7323 28.059 46.7323C28.3935 46.7323 28.5135 46.4449 28.5135 46.2395C28.5135 46.0356 28.3526 45.7665 28.083 45.7665Z" fill="#FFCB00"/>
<path d="M37.0482 65.4355C36.3356 65.4355 36.3525 66.8248 36.3525 66.8248H36.224C36.224 66.0119 36.519 65.6451 36.519 65.0914C36.519 64.5376 36.1423 64.2432 36.1423 64.2432C36.1423 64.2432 35.7697 64.5376 35.7697 65.0914C35.7697 65.6451 36.0633 66.0119 36.0633 66.8248H35.9418C35.9418 66.8248 35.9532 65.4355 35.2462 65.4355C34.9738 65.4355 34.8145 65.7046 34.8145 65.9113C34.8145 66.1153 34.9329 66.3999 35.2688 66.3999C35.4127 66.3999 35.455 66.3433 35.455 66.3433C35.455 66.3433 35.2843 66.3136 35.2843 66.1973C35.2843 66.0855 35.4127 66.0855 35.4127 66.0855C35.5087 66.0855 35.6398 66.1309 35.6398 66.8248C35.6398 66.8248 35.4917 66.8134 35.4917 66.9395C35.4917 67.0754 35.6398 67.0656 35.6398 67.0656H35.918C35.918 67.0656 35.9094 67.2609 35.6089 67.4111C35.6089 67.4111 35.6314 67.4634 35.9489 67.4634C35.9489 67.4634 35.9813 67.6533 36.1479 67.8217C36.313 67.6533 36.3455 67.4634 36.3455 67.4634C36.6587 67.4634 36.6856 67.4111 36.6856 67.4111C36.3836 67.2609 36.3751 67.0656 36.3751 67.0656H36.6545C36.6545 67.0656 36.7984 67.0754 36.7984 66.9395C36.7984 66.8134 36.6545 66.8248 36.6545 66.8248C36.6545 66.1309 36.783 66.0855 36.8804 66.0855C36.8804 66.0855 37.0087 66.0855 37.0087 66.1973C37.0087 66.3136 36.8365 66.3433 36.8365 66.3433C36.8365 66.3433 36.8804 66.3999 37.0229 66.3999C37.3572 66.3999 37.4786 66.1153 37.4786 65.9113C37.4786 65.7046 37.3177 65.4355 37.0482 65.4355Z" fill="#FFCB00"/>
<path d="M29.268 68.3634C28.5625 68.3634 28.5723 69.7554 28.5723 69.7554H28.4482C28.4482 68.9398 28.7459 68.5786 28.7459 68.0249C28.7459 67.467 28.3677 67.1768 28.3677 67.1768C28.3677 67.1768 27.9923 67.467 27.9923 68.0249C27.9923 68.5786 28.2887 68.9398 28.2887 69.7554H28.1659C28.1659 69.7554 28.1773 68.3634 27.4646 68.3634C27.1937 68.3634 27.0371 68.641 27.0371 68.8407C27.0371 69.046 27.1584 69.3363 27.4929 69.3363C27.6298 69.3363 27.6805 69.2755 27.6805 69.2755C27.6805 69.2755 27.5041 69.2457 27.5041 69.1324C27.5041 69.0163 27.6298 69.0163 27.6298 69.0163C27.7328 69.0163 27.8654 69.063 27.8654 69.7554C27.8654 69.7554 27.7186 69.7484 27.7186 69.8717C27.7186 70.0076 27.8626 69.9976 27.8626 69.9976H28.1406C28.1406 69.9976 28.1364 70.1917 27.8288 70.3389C27.8288 70.3389 27.8541 70.4012 28.1731 70.4012C28.1731 70.4012 28.2012 70.5897 28.3705 70.7538C28.5343 70.5897 28.5667 70.4012 28.5667 70.4012C28.8856 70.4012 28.9082 70.3389 28.9082 70.3389C28.6062 70.1917 28.5978 69.9976 28.5978 69.9976H28.8744C28.8744 69.9976 29.0225 70.0104 29.0225 69.8717C29.0225 69.7484 28.8744 69.7554 28.8744 69.7554C28.8744 69.063 29.0042 69.0163 29.1016 69.0163C29.1016 69.0163 29.2313 69.0163 29.2313 69.1324C29.2313 69.2457 29.0563 69.2755 29.0563 69.2755C29.0563 69.2755 29.1016 69.3363 29.2469 69.3363C29.5814 69.3363 29.6985 69.046 29.6985 68.8407C29.6985 68.641 29.5432 68.3634 29.268 68.3634Z" fill="#FFCB00"/>
<path d="M34.6389 68.9819C33.9292 68.9819 33.9376 70.3711 33.9376 70.3711H33.8206C33.8206 69.5555 34.1098 69.1914 34.1098 68.6406C34.1098 68.0854 33.7316 67.7896 33.7316 67.7896C33.7316 67.7896 33.3576 68.0854 33.3576 68.6406C33.3576 69.1914 33.6554 69.5555 33.6554 70.3711H33.5298C33.5298 70.3711 33.544 68.9819 32.8355 68.9819C32.5604 68.9819 32.4038 69.251 32.4038 69.4563C32.4038 69.6645 32.5237 69.9505 32.8568 69.9505C32.9979 69.9505 33.0458 69.8867 33.0458 69.8867C33.0458 69.8867 32.8708 69.857 32.8708 69.7437C32.8708 69.6291 32.9979 69.6291 32.9979 69.6291C33.0981 69.6291 33.2307 69.6814 33.2307 70.3696C33.2307 70.3696 33.0825 70.357 33.0825 70.4901C33.0825 70.6218 33.2307 70.609 33.2307 70.609H33.5059C33.5059 70.609 33.4987 70.8045 33.1939 70.9559C33.1939 70.9559 33.2222 71.0098 33.5354 71.0098C33.5354 71.0098 33.5693 71.1981 33.7344 71.3652C33.901 71.1981 33.932 71.0098 33.932 71.0098C34.2523 71.0098 34.2749 70.9559 34.2749 70.9559C33.9729 70.8045 33.9645 70.609 33.9645 70.609H34.2411C34.2411 70.609 34.3892 70.6218 34.3892 70.4901C34.3892 70.357 34.2411 70.3696 34.2411 70.3696C34.2411 69.6814 34.3709 69.6291 34.4697 69.6291C34.4697 69.6291 34.5994 69.6291 34.5994 69.7437C34.5994 69.857 34.4259 69.8867 34.4259 69.8867C34.4259 69.8867 34.4697 69.9505 34.6136 69.9505C34.9494 69.9505 35.0652 69.6645 35.0652 69.4563C35.0652 69.251 34.9071 68.9819 34.6389 68.9819Z" fill="#FFCB00"/>
<path d="M40.2012 68.9819C39.4913 68.9819 39.5041 70.3711 39.5041 70.3711H39.3771C39.3771 69.5555 39.6791 69.1914 39.6791 68.6406C39.6791 68.0854 39.2953 67.7896 39.2953 67.7896C39.2953 67.7896 38.9241 68.0854 38.9241 68.6406C38.9241 69.1914 39.2219 69.5555 39.2219 70.3711H39.0949C39.0949 70.3711 39.1075 68.9819 38.3992 68.9819C38.1283 68.9819 37.9688 69.251 37.9688 69.4563C37.9688 69.6645 38.0902 69.9505 38.4231 69.9505C38.5656 69.9505 38.6109 69.8867 38.6109 69.8867C38.6109 69.8867 38.4373 69.857 38.4373 69.7437C38.4373 69.6291 38.5656 69.6291 38.5656 69.6291C38.6644 69.6291 38.7985 69.6814 38.7985 70.3696C38.7985 70.3696 38.6461 70.357 38.6461 70.4901C38.6461 70.6218 38.7943 70.609 38.7943 70.609H39.0737C39.0737 70.609 39.0666 70.8045 38.759 70.9559C38.759 70.9559 38.7858 71.0098 39.1005 71.0098C39.1005 71.0098 39.133 71.1981 39.3009 71.3652C39.466 71.1981 39.4985 71.0098 39.4985 71.0098C39.8146 71.0098 39.8371 70.9559 39.8371 70.9559C39.5352 70.8045 39.5294 70.609 39.5294 70.609H39.8061C39.8061 70.609 39.9515 70.6218 39.9515 70.4901C39.9515 70.357 39.8061 70.3696 39.8061 70.3696C39.8061 69.6814 39.933 69.6291 40.0346 69.6291C40.0346 69.6291 40.1659 69.6291 40.1659 69.7437C40.1659 69.857 39.9881 69.8867 39.9881 69.8867C39.9881 69.8867 40.0346 69.9505 40.18 69.9505C40.5116 69.9505 40.6315 69.6645 40.6315 69.4563C40.6315 69.251 40.4721 68.9819 40.2012 68.9819Z" fill="#FFCB00"/>
<path d="M44.9058 68.9819C44.196 68.9819 44.2086 70.3711 44.2086 70.3711H44.0859C44.0859 69.5555 44.3794 69.1914 44.3794 68.6406C44.3794 68.0854 44.004 67.7896 44.004 67.7896C44.004 67.7896 43.6302 68.0854 43.6302 68.6406C43.6302 69.1914 43.9278 69.5555 43.9278 70.3711H43.8037C43.8037 70.3711 43.8164 68.9819 43.1051 68.9819C42.8328 68.9819 42.6748 69.251 42.6748 69.4563C42.6748 69.6645 42.7919 69.9505 43.1278 69.9505C43.2703 69.9505 43.3154 69.8867 43.3154 69.8867C43.3154 69.8867 43.1418 69.857 43.1418 69.7437C43.1418 69.6291 43.2703 69.6291 43.2703 69.6291C43.3705 69.6291 43.5003 69.6814 43.5003 70.3696C43.5003 70.3696 43.355 70.357 43.355 70.4901C43.355 70.6218 43.5003 70.609 43.5003 70.609H43.7769C43.7769 70.609 43.7713 70.8045 43.4707 70.9559C43.4707 70.9559 43.4919 71.0098 43.8066 71.0098C43.8066 71.0098 43.8404 71.1981 44.0068 71.3652C44.1691 71.1981 44.2044 71.0098 44.2044 71.0098C44.5233 71.0098 44.5445 70.9559 44.5445 70.9559C44.2411 70.8045 44.2341 70.609 44.2341 70.609H44.512C44.512 70.609 44.6602 70.6218 44.6602 70.4901C44.6602 70.357 44.512 70.3696 44.512 70.3696C44.512 69.6814 44.6405 69.6291 44.7421 69.6291C44.7421 69.6291 44.8692 69.6291 44.8692 69.7437C44.8692 69.857 44.6984 69.8867 44.6984 69.8867C44.6984 69.8867 44.7421 69.9505 44.8846 69.9505C45.2163 69.9505 45.3362 69.6645 45.3362 69.4563C45.3362 69.251 45.181 68.9819 44.9058 68.9819Z" fill="#FFCB00"/>
<path d="M50.4564 68.9819C49.748 68.9819 49.7564 70.3711 49.7564 70.3711H49.6351C49.6351 69.5555 49.9329 69.1914 49.9329 68.6406C49.9329 68.0854 49.5533 67.7896 49.5533 67.7896C49.5533 67.7896 49.1808 68.0854 49.1808 68.6406C49.1808 69.1914 49.4728 69.5555 49.4728 70.3711H49.3501C49.3501 70.3711 49.3614 68.9819 48.6515 68.9819C48.3807 68.9819 48.2212 69.251 48.2212 69.4563C48.2212 69.6645 48.3453 69.9505 48.677 69.9505C48.8195 69.9505 48.8661 69.8867 48.8661 69.8867C48.8661 69.8867 48.694 69.857 48.694 69.7437C48.694 69.6291 48.8195 69.6291 48.8195 69.6291C48.9169 69.6291 49.0523 69.6814 49.0523 70.3696C49.0523 70.3696 48.9014 70.357 48.9014 70.4901C48.9014 70.6218 49.0467 70.609 49.0467 70.609H49.3289C49.3289 70.609 49.3205 70.8045 49.0171 70.9559C49.0171 70.9559 49.0397 71.0098 49.3572 71.0098C49.3572 71.0098 49.3896 71.1981 49.5562 71.3652C49.7211 71.1981 49.7522 71.0098 49.7522 71.0098C50.0698 71.0098 50.0923 70.9559 50.0923 70.9559C49.7917 70.8045 49.7805 70.609 49.7805 70.609H50.0598C50.0598 70.609 50.2081 70.6218 50.2081 70.4901C50.2081 70.357 50.0598 70.3696 50.0598 70.3696C50.0598 69.6814 50.1911 69.6291 50.2899 69.6291C50.2899 69.6291 50.4169 69.6291 50.4169 69.7437C50.4169 69.857 50.2404 69.8867 50.2404 69.8867C50.2404 69.8867 50.2899 69.9505 50.4352 69.9505C50.7641 69.9505 50.884 69.6645 50.884 69.4563C50.884 69.251 50.7274 68.9819 50.4564 68.9819Z" fill="#FFCB00"/>
<path d="M55.8199 68.381C55.1143 68.381 55.1255 69.7759 55.1255 69.7759H55.0028C55.0028 68.9601 55.2934 68.5906 55.2934 68.0397C55.2934 67.4889 54.9167 67.1914 54.9167 67.1914C54.9167 67.1914 54.5485 67.4889 54.5485 68.0397C54.5485 68.5906 54.8419 68.9601 54.8419 69.7759H54.7192C54.7192 69.7759 54.7305 68.381 54.0192 68.381C53.7496 68.381 53.5889 68.653 53.5889 68.8625C53.5889 69.0635 53.7116 69.3497 54.0432 69.3497C54.1885 69.3497 54.2308 69.2916 54.2308 69.2916C54.2308 69.2916 54.0601 69.2632 54.0601 69.15C54.0601 69.0367 54.1885 69.0367 54.1885 69.0367C54.2845 69.0367 54.4144 69.0806 54.4144 69.7759C54.4144 69.7759 54.2691 69.7604 54.2691 69.8919C54.2691 70.0251 54.4144 70.0152 54.4144 70.0152H54.6896C54.6896 70.0152 54.6825 70.2107 54.3847 70.3622C54.3847 70.3622 54.4044 70.4117 54.7234 70.4117C54.7234 70.4117 54.7545 70.6015 54.9195 70.77C55.0874 70.6015 55.1213 70.4117 55.1213 70.4117C55.4374 70.4117 55.4586 70.3622 55.4586 70.3622C55.1552 70.2107 55.1509 70.0152 55.1509 70.0152H55.4247C55.4247 70.0152 55.5728 70.0251 55.5728 69.8919C55.5728 69.7604 55.4247 69.7759 55.4247 69.7759C55.4247 69.0806 55.556 69.0367 55.6534 69.0367C55.6534 69.0367 55.7831 69.0367 55.7831 69.15C55.7831 69.2632 55.6095 69.2916 55.6095 69.2916C55.6095 69.2916 55.6534 69.3497 55.7987 69.3497C56.1318 69.3497 56.2502 69.0635 56.2502 68.8625C56.2502 68.653 56.0951 68.381 55.8199 68.381Z" fill="#FFCB00"/>
<path d="M53.3941 72.1398C52.6857 72.1398 52.697 73.5362 52.697 73.5362H52.5756C52.5756 72.7204 52.8706 72.3523 52.8706 71.8043C52.8706 71.2492 52.491 70.9531 52.491 70.9531C52.491 70.9531 52.1184 71.2492 52.1184 71.8043C52.1184 72.3523 52.4106 72.7204 52.4106 73.5362H52.2877C52.2877 73.5362 52.3018 72.1398 51.5935 72.1398C51.3225 72.1398 51.1616 72.4145 51.1616 72.6227C51.1616 72.8252 51.2788 73.1128 51.6175 73.1128C51.7614 73.1128 51.8051 73.0519 51.8051 73.0519C51.8051 73.0519 51.6302 73.0207 51.6302 72.9145C51.6302 72.7998 51.7614 72.7998 51.7614 72.7998C51.8559 72.7998 51.9885 72.8437 51.9885 73.5362C51.9885 73.5362 51.8432 73.5249 51.8432 73.6508C51.8432 73.7797 51.9871 73.7755 51.9871 73.7755H52.2679C52.2679 73.7755 52.2525 73.968 51.9575 74.1211C51.9575 74.1211 51.9773 74.1748 52.2934 74.1748C52.2934 74.1748 52.3272 74.366 52.4966 74.5289C52.6603 74.366 52.69 74.1748 52.69 74.1748C53.0088 74.1748 53.0287 74.1211 53.0287 74.1211C52.7295 73.968 52.721 73.7755 52.721 73.7755H53.0004C53.0004 73.7755 53.1485 73.7868 53.1485 73.6508C53.1485 73.5249 52.9962 73.5362 52.9962 73.5362C52.9962 72.8437 53.1317 72.7998 53.2303 72.7998C53.2303 72.7998 53.3588 72.7998 53.3588 72.9145C53.3588 73.0207 53.181 73.0519 53.181 73.0519C53.181 73.0519 53.2303 73.1128 53.3686 73.1128C53.7045 73.1128 53.8231 72.8252 53.8231 72.6227C53.8231 72.4145 53.6678 72.1398 53.3941 72.1398Z" fill="#FFCB00"/>
<path d="M31.6968 72.1398C30.9841 72.1398 31.0011 73.5362 31.0011 73.5362H30.8797C30.8797 72.7204 31.1677 72.3523 31.1677 71.8043C31.1677 71.2492 30.7923 70.9531 30.7923 70.9531C30.7923 70.9531 30.4197 71.2492 30.4197 71.8043C30.4197 72.3523 30.7132 72.7204 30.7132 73.5362H30.5919C30.5919 73.5362 30.6017 72.1398 29.8962 72.1398C29.6225 72.1398 29.4644 72.4145 29.4644 72.6227C29.4644 72.8252 29.5858 73.1128 29.9159 73.1128C30.0584 73.1128 30.1065 73.0519 30.1065 73.0519C30.1065 73.0519 29.9329 73.0207 29.9329 72.9145C29.9329 72.7998 30.0584 72.7998 30.0584 72.7998C30.1572 72.7998 30.2913 72.8437 30.2913 73.5362C30.2913 73.5362 30.1432 73.5249 30.1432 73.6508C30.1432 73.7797 30.2913 73.7755 30.2913 73.7755H30.5679C30.5679 73.7755 30.5566 73.968 30.2574 74.1211C30.2574 74.1211 30.2828 74.1748 30.5947 74.1748C30.5947 74.1748 30.6314 74.366 30.7979 74.5289C30.9645 74.366 30.9969 74.1748 30.9969 74.1748C31.3116 74.1748 31.3313 74.1211 31.3313 74.1211C31.0322 73.968 31.0236 73.7755 31.0236 73.7755H31.3002C31.3002 73.7755 31.4513 73.7868 31.4513 73.6508C31.4513 73.5249 31.3002 73.5362 31.3002 73.5362C31.3002 72.8437 31.4315 72.7998 31.5303 72.7998C31.5303 72.7998 31.6587 72.7998 31.6587 72.9145C31.6587 73.0207 31.4865 73.0519 31.4865 73.0519C31.4865 73.0519 31.5303 73.1128 31.6714 73.1128C32.0072 73.1128 32.1271 72.8252 32.1271 72.6227C32.1271 72.4145 31.9677 72.1398 31.6968 72.1398Z" fill="#FFCB00"/>
<path d="M37.0482 73.2179C36.3356 73.2179 36.3483 74.61 36.3483 74.61H36.224C36.224 73.797 36.519 73.436 36.519 72.8795C36.519 72.3229 36.1423 72.0283 36.1423 72.0283C36.1423 72.0283 35.7697 72.3229 35.7697 72.8795C35.7697 73.436 36.0633 73.797 36.0633 74.61H35.9404C35.9404 74.61 35.9532 73.2179 35.2462 73.2179C34.9738 73.2179 34.8145 73.4955 34.8145 73.6994C34.8145 73.9004 34.9329 74.1908 35.266 74.1908C35.4127 74.1908 35.455 74.1299 35.455 74.1299C35.455 74.1299 35.2843 74.0987 35.2843 73.9869C35.2843 73.8708 35.4127 73.8708 35.4127 73.8708C35.5087 73.8708 35.6398 73.9203 35.6398 74.61C35.6398 74.61 35.4917 74.6001 35.4917 74.7232C35.4917 74.862 35.637 74.8521 35.637 74.8521H35.9165C35.9165 74.8521 35.9094 75.0476 35.6046 75.1991C35.6046 75.1991 35.6286 75.2529 35.9475 75.2529C35.9475 75.2529 35.9799 75.4441 36.1465 75.6126C36.313 75.4441 36.3427 75.2529 36.3427 75.2529C36.6587 75.2529 36.6828 75.1991 36.6828 75.1991C36.3807 75.0476 36.3751 74.8521 36.3751 74.8521H36.6545C36.6545 74.8521 36.797 74.8648 36.797 74.7232C36.797 74.6001 36.6517 74.61 36.6517 74.61C36.6517 73.9203 36.7816 73.8708 36.8788 73.8708C36.8788 73.8708 37.0087 73.8708 37.0087 73.9869C37.0087 74.0987 36.8337 74.1299 36.8337 74.1299C36.8337 74.1299 36.8788 74.1908 37.0229 74.1908C37.3572 74.1908 37.4786 73.9004 37.4786 73.6994C37.4786 73.4955 37.3163 73.2179 37.0482 73.2179Z" fill="#FFCB00"/>
<path d="M48.0426 73.2179C47.3328 73.2179 47.3454 74.61 47.3454 74.61H47.2241C47.2241 73.797 47.519 73.436 47.519 72.8795C47.519 72.3229 47.1394 72.0283 47.1394 72.0283C47.1394 72.0283 46.7712 72.3229 46.7712 72.8795C46.7712 73.436 47.0618 73.797 47.0618 74.61H46.9405C46.9405 74.61 46.9518 73.2179 46.2419 73.2179C45.9711 73.2179 45.813 73.4955 45.813 73.6994C45.813 73.9004 45.9287 74.1908 46.2603 74.1908C46.407 74.1908 46.4523 74.1299 46.4523 74.1299C46.4523 74.1299 46.2786 74.0987 46.2786 73.9869C46.2786 73.8708 46.407 73.8708 46.407 73.8708C46.5072 73.8708 46.6357 73.9203 46.6357 74.61C46.6357 74.61 46.4904 74.6001 46.4904 74.7232C46.4904 74.862 46.6357 74.8521 46.6357 74.8521H46.9151C46.9151 74.8521 46.9052 75.0476 46.6089 75.1991C46.6089 75.1991 46.6287 75.2529 46.9433 75.2529C46.9433 75.2529 46.9772 75.4441 47.1451 75.6126C47.3087 75.4441 47.3398 75.2529 47.3398 75.2529C47.6588 75.2529 47.6785 75.1991 47.6785 75.1991C47.3765 75.0476 47.368 74.8521 47.368 74.8521H47.6516C47.6516 74.8521 47.7971 74.8648 47.7971 74.7232C47.7971 74.6001 47.6516 74.61 47.6516 74.61C47.6516 73.9203 47.7787 73.8708 47.8761 73.8708C47.8761 73.8708 48.0087 73.8708 48.0087 73.9869C48.0087 74.0987 47.8338 74.1299 47.8338 74.1299C47.8338 74.1299 47.8761 74.1908 48.0242 74.1908C48.3517 74.1908 48.4758 73.9004 48.4758 73.6994C48.4758 73.4955 48.3164 73.2179 48.0426 73.2179Z" fill="#FFCB00"/>
<path d="M42.5449 74.4468C41.8351 74.4468 41.8493 75.8374 41.8493 75.8374H41.725C41.725 75.0232 42.0186 74.662 42.0186 74.1055C42.0186 73.5546 41.6432 73.2573 41.6432 73.2573C41.6432 73.2573 41.2693 73.5546 41.2693 74.1055C41.2693 74.662 41.5629 75.0232 41.5629 75.8374H41.4386C41.4386 75.8374 41.4513 74.4468 40.743 74.4468C40.4706 74.4468 40.3125 74.7216 40.3125 74.9241C40.3125 75.1294 40.4353 75.4169 40.7669 75.4169C40.9109 75.4169 40.9546 75.3575 40.9546 75.3575C40.9546 75.3575 40.781 75.3249 40.781 75.2129C40.781 75.0983 40.9109 75.0983 40.9109 75.0983C41.0082 75.0983 41.138 75.1463 41.138 75.8374C41.138 75.8374 40.9913 75.829 40.9913 75.9565C40.9913 76.0868 41.138 76.0739 41.138 76.0739H41.416C41.416 76.0739 41.4062 76.2751 41.107 76.4251C41.107 76.4251 41.1282 76.4804 41.4428 76.4804C41.4428 76.4804 41.4781 76.6673 41.6447 76.833C41.8098 76.6673 41.8437 76.4804 41.8437 76.4804C42.1597 76.4804 42.1808 76.4251 42.1808 76.4251C41.8831 76.2751 41.8747 76.0739 41.8747 76.0739H42.1499C42.1499 76.0739 42.298 76.091 42.298 75.9565C42.298 75.829 42.1499 75.8374 42.1499 75.8374C42.1499 75.1463 42.2796 75.0983 42.3756 75.0983C42.3756 75.0983 42.5054 75.0983 42.5054 75.2129C42.5054 75.3249 42.3319 75.3575 42.3319 75.3575C42.3319 75.3575 42.3756 75.4169 42.5209 75.4169C42.8526 75.4169 42.9739 75.1294 42.9739 74.9241C42.9739 74.7216 42.8173 74.4468 42.5449 74.4468Z" fill="#FFCB00"/>
<path d="M48.0426 65.4355C47.3328 65.4355 47.3498 66.8248 47.3498 66.8248H47.2241C47.2241 66.0119 47.519 65.6451 47.519 65.0914C47.519 64.5376 47.1451 64.2432 47.1451 64.2432C47.1451 64.2432 46.7712 64.5376 46.7712 65.0914C46.7712 65.6451 47.066 66.0119 47.066 66.8248H46.9405C46.9405 66.8248 46.956 65.4355 46.2419 65.4355C45.9711 65.4355 45.813 65.7046 45.813 65.9113C45.813 66.1153 45.9315 66.3999 46.2603 66.3999C46.407 66.3999 46.4523 66.3433 46.4523 66.3433C46.4523 66.3433 46.2786 66.3136 46.2786 66.1973C46.2786 66.0855 46.407 66.0855 46.407 66.0855C46.5115 66.0855 46.6357 66.1309 46.6357 66.8248C46.6357 66.8248 46.4904 66.8134 46.4904 66.9395C46.4904 67.0754 46.6357 67.0656 46.6357 67.0656H46.9151C46.9151 67.0656 46.9109 67.2609 46.6089 67.4111C46.6089 67.4111 46.6287 67.4634 46.9433 67.4634C46.9433 67.4634 46.98 67.6533 47.1451 67.8217C47.3087 67.6533 47.344 67.4634 47.344 67.4634C47.6588 67.4634 47.6813 67.4111 47.6813 67.4111C47.3765 67.2609 47.3723 67.0656 47.3723 67.0656H47.6516C47.6516 67.0656 47.7985 67.0754 47.7985 66.9395C47.7985 66.8134 47.6516 66.8248 47.6516 66.8248C47.6516 66.1309 47.7787 66.0855 47.8789 66.0855C47.8789 66.0855 48.0087 66.0855 48.0087 66.1973C48.0087 66.3136 47.838 66.3433 47.838 66.3433C47.838 66.3433 47.8789 66.3999 48.0242 66.3999C48.3573 66.3999 48.4758 66.1153 48.4758 65.9113C48.4758 65.7046 48.3164 65.4355 48.0426 65.4355Z" fill="#FFCB00"/>
</g>
<defs>
<clipPath id="clip0_153_280">
<rect width="257" height="96" fill="white"/>
</clipPath>
</defs>
</svg>
