<?xml version="1.0" encoding="UTF-8"?>
<svg id="Layer_1" data-name="Layer 1" xmlns="http://www.w3.org/2000/svg" viewBox="0 0 31.842 20.8401">
  <path d="m10.9829,4.9826c.0243.0576.0337.1319.0758.1699.1458.1319.3055.2484.4543.3772.0453.0392.0825.0951.1045.1509.0135.0342.0046.0965-.0197.1202-.0209.0204-.0813.0144-.1179.0018-.0705-.0244-.1364-.0618-.2175-.0772.058.0423.1102.104.1751.1234.1827.0547.3307.1291.3448.3491.0019.0293.0441.0622.0748.0824.2751.1814.5458.3706.8297.5372.2815.1652.5988.2059.9159.23.0042-.0175.0084-.0351.0126-.0526-.1685-.0379-.3377-.0731-.5054-.1144-.4991-.1228-.8868-.4047-1.1468-.8457-.1283-.2175-.005-.4294.1022-.611.1238-.2097.2815-.4023.4429-.5861.1582-.1801.2263-.1818.3881-.0147.5223.5396,1.0376,1.0861,1.5549,1.6306.0894.0941.0903.1929.0714.3273-.0501.3568-.0655.7194-.0781,1.0802-.0081.2348.0164.4705.0172.7059.0001.0357-.0494.0715-.0759.1073-.0315-.0271-.0939-.061-.0897-.0803.0458-.2089-.1302-.337-.1757-.5093-.084-.3182-.1509-.6408-.2301-.9604-.0127-.0514-.0523-.0962-.0795-.1441-.0279.0414-.0753.0806-.0802.1246-.0165.146-.1221.113-.2005.0999-.3741-.0626-.7594-.0891-1.0854-.324-.0086.0149-.0173.0298-.0259.0448.0877.0687.1703.1455.2644.2039.1081.067.1283.1356.0364.2265-.1571.1553-.3119.3133-.4762.4606-.0481.0431-.1239.0585-.1896.0781-.0767.0229-.1562.0364-.2806.0644-.0281-.0428-.0768-.1184-.1269-.1931-.0233-.0347-.0442-.0872-.0755-.0953-.0255-.0066-.0672.0385-.0977.0653-.0393.0346-.0745.0739-.1114.1111-.0169-.0174-.0513-.0409-.0478-.0513.0194-.0565.0345-.1256.076-.1615.1913-.1653.3942-.317.5859-.4818.0926-.0796.1697-.1773.2538-.2668-.0145-.0149-.0291-.0298-.0436-.0447-.1597.1436-.3366.2725-.4753.4342-.2496.291-.5528.3262-.8961.2461-.0223-.0052-.0468-.0007-.114-.0007.1619.1155.2095.2122.0615.345-.0925.083-.0073.131.0792.146.1029.0179.2162.0166.2569.1916-.085-.0222-.141-.0431-.1987-.0506-.1621-.0209-.3248-.0454-.4877-.0485-.0503-.0009-.1261.0509-.1488.0984-.1672.3493-.3243.7034-.4831,1.0567-.0093.0207-.0061.0469.0262.086.0683-.1413.1383-.2818.2045-.424.0773-.1662.1435-.3383.2309-.4989.0324-.0596.1131-.1352.1685-.1327.237.011.4728.0484.7342.0792-.1856.4053-.3576.7718-.5217,1.1418-.1313.2961-.2554.5956-.3758.8964-.0133.0334.0188.0849.0298.128.0612-.0293.1544-.0428.1781-.0907.1098-.2216.2032-.4516.297-.6809.1494-.3651.2939-.7322.4418-1.0979.0207-.0512.0491-.0993.1046-.2099.1022.2021.1807.3573.2591.5125.0231-.3967-.2928-.6607-.464-.9811.0243-.0118.0485-.0235.0728-.0353.0312.0184.0655.0332.0932.0559.4323.3546.5597.9524.3208,1.5609-.1275.3246-.2757.6409-.4126.9619-.0455.1067-.1038.14-.2339.1303-.3229-.024-.6485-.0161-.973-.0141-.1606.001-.2287-.0533-.2102-.2266.0189-.1764.0188-.3573.0034-.5341-.0093-.1068-.0643-.2095-.0975-.3144-.0143-.0452-.0491-.1017-.0344-.1357.2034-.4709.4083-.9414.6284-1.4045.0324-.0681.1399-.1122.2219-.1423.1242-.0457.1813-.0781.1362-.2438-.036-.1323.0248-.2981.0659-.4424.0467-.1642.1166-.3221.1815-.4807.0493-.1207.0053-.1999-.1041-.2461-.2863-.1209-.5747-.2367-.8617-.3558-.0605-.0251-.1188-.0553-.1781-.0832.0084-.0198.0169-.0396.0253-.0594.169.062.3393.1207.5066.1868.1894.0749.3749.1601.565.2331.0531.0204.1518.0379.1683.0141.0353-.0508.0591-.1429.0353-.1934-.0337-.0714-.1047-.1439-.1773-.175-.3725-.1593-.7515-.3032-1.1249-.4603-.0307-.0129-.037-.0836-.0546-.1275.062-.0168.141-.0664.1831-.0447.1855.0959.3587.2153.5398.3202.0917.0531.1908.0934.2838.1382.1452-.2219.1085-.304-.0935-.4265-.3364-.204-.6568-.4344-.9863-.6501-.3296-.2158-.6612-.4286-.9941-.6392-.0724-.0458-.1543-.0763-.2343-.115-.1493.3308-.2326.6458-.2021.9886.0057.0641-.0678.1353-.1023.1986.372.1128.8176-.1819,1.1644.0738.1663-.0172.2924-.0302.4441-.0458-.0855.1019-.1462.1585-.1858.2272-.0241.042-.041.1261-.0178.151.1304.1402.1043.3085.1024.4714-.0041.3688-.0182.7376-.0171,1.1064.0001.0442.0602.1098.1073.1286.2618.1049.5293.1955.7917.299.0412.0162.0693.0713.0954.1134.0038.0061-.0492.0617-.0564.0579-.039-.0207-.0748-.0502-.1059-.0823-.0208-.0215-.0286-.0729-.0479-.0761-.337-.0553-.6374-.3861-1.0236-.1142-.0929.0654-.2581.0307-.3903.0367-.1003.0046-.2011.0009-.3248.0009.0015-.0154.008-.0846.0111-.1166-.0776-.0458-.1327-.0979-.1954-.1097-.057-.0107-.1417.0019-.1808.0392-.4089.3896-.8109.7863-1.2156,1.1803-.0074.0072-.0238.0052-.036.0075l.0042.0041c.0193-.0392.0304-.0863.0593-.1163.2762-.2862.5549-.57.834-.8533.1102-.1118.234-.2125.3293-.3356.033-.0426.0215-.1499-.0091-.2062-.1234-.227-.262-.4458-.3954-.6673-.0163-.0271-.0521-.0529-.0513-.0784.0108-.3173-.237-.5145-.3532-.772.1196.106.2714.1924.3501.3228.0934.1549.11.354.1852.5227.0978.2195.2142.4316.3352.6396.0577.0991.1446.1812.2183.271.0162-.0124.0323-.0247.0485-.0371-.2489-.3516-.4513-.7239-.5513-1.154.4463-.0718.8718-.1372,1.2958-.2115.0727-.0127.1388-.0635.208-.0967-.0086-.0193-.0172-.0387-.0259-.058-.4167.0694-.8331.1405-1.2502.2076-.2875.0463-.2795.0391-.424-.2187-.0556-.0992-.1523-.1799-.243-.2535-.0744-.0603-.1294-.023-.142.071-.0358.0227-.0866.0372-.1045.0698-.0476.0869-.0572.2068-.1237.2692-.7495.7032-1.3592,1.5196-1.9136,2.3769-.1985.307-.3323.656-.493.9871-.0174.0358-.0176.0799-.01.1271.496-1.1638,1.2943-2.119,2.093-3.0718.1545-.1843.3599-.3259.5701-.4767-.1012.2789-.3351.5214-.2164.8537.1257-.1105.1177-.3628.372-.3998-.1303.284-.2744.517-.5303.6822-.1396.0901-.2514.2321-.3557.3664-.4602.5927-.9136,1.1906-1.3678,1.7879-.0353.0465-.0588.1019-.0724.1626.6475-.6769,1.0838-1.5252,1.7446-2.1876.0231.0197.0463.0393.0694.059-.0682.0745-.141.1453-.2039.224-.1822.2279-.3656.4551-.5388.6898-.2376.3219-.4708.6473-.6973.977-.211.307-.4974.4517-.8669.4436-.1503-.0033-.3007-.0005-.4777-.0005.0997-.2167.1688-.4097.2717-.5826.3059-.5138.6154-1.0259.9418-1.5267.2936-.4503.6009-.8927.9236-1.3224.1381-.1839.2705-.4021.5582-.4134.0511-.002.0973-.1284.1564-.2126-.3799-.0411-.6674.1182-.8986.3432-.5283.5139-1.0524,1.0351-1.5388,1.588-.474.5388-.8983,1.1214-1.3464,1.6832-.0661.0829-.1388.1619-.2173.2328-.0269.0243-.0895.036-.1203.0211-.027-.013-.0513-.0753-.044-.1086.0407-.185.0764-.3732.1418-.5501.1344-.3634.2953-.7171.4262-1.0817.0415-.1155.0211-.2529.0316-.3801.004-.0487.0012-.1056.0253-.1438.2767-.439.5513-.8796.8404-1.3105.2012-.3.4084-.5988.6414-.874.2447-.2891.5185-.5546.7907-.8189.0692-.0672.1807-.0911.2727-.1348-.0087-.0243-.0174-.0487-.0261-.073-.0631.0108-.1305.0107-.1886.034-.3537.1421-.7117.2759-1.0563.438-.7409.3485-1.4819.6982-2.2089,1.0745-.659.3411-1.2969.7228-1.9496,1.0766-.2078.1126-.4322.1972-.6948.1503.0939-.3133.3592-.4411.587-.6026.0188-.0134.0685.0167.1043.0261.0398.0432.079.0868.1277.141-.0983.0601-.1716.1048-.2448.1496.0129.0199.0258.0398.0387.0597.0869-.0569.1706-.1196.2613-.1697.5613-.3101,1.1213-.6229,1.6875-.9239.4996-.2656.9985-.535,1.5126-.7701.6812-.3115,1.3756-.5943,2.0673-.8821.1336-.0556.28-.084.4231-.1107.0474-.0088.1058.0219.1532.0462.0128.0066.011.0792.0039.0813-.0461.0138-.0954.0193-.1439.0221-.0564.0032-.1131.0007-.1999.0007.1006.1633.2331.1675.3283.1068.0644-.041.0871-.1649.1044-.2563.0119-.063-.0173-.1338-.0281-.2011.0151-.0049.0301-.0098.0452-.0147.0375.0345.075.069.1324.1219-.0167-.2064-.0309-.3835-.0452-.5605-.0127.0002-.0254.0005-.0381.0007-.0106.1152-.0212.2305-.0281.3065-2.1396.7054-4.117,1.6621-5.9538,2.9395-.023-.0619-.0401-.1078-.0571-.1536.0785-.0363.1631-.0636.2343-.111.132-.088.2501-.1974.3845-.2812.9181-.5727,1.8657-1.0932,2.8564-1.528.6686-.2934,1.3476-.5672,2.0364-.8085.2515-.0881.4084-.1746.3842-.4575-.0021-.0244.0115-.0497.013-.0749.0138-.2408.0532-.2707.3008-.2125.3894.0915.7762.1955,1.1681.2748.1591.0322.2377.0877.2302.2577-.009.202-.0021.4047-.0021.607.1575-.3836-.0313-.8268.2417-1.1896-.0602.047-.1026.0995-.1281.1592-.0444.1037-.111.1121-.2148.0934-.5909-.1063-1.1496-.392-1.8009-.3179.1228-.1095.2256-.2011.3569-.3182.009-.0715.0261-.2066.0432-.3427-.1723.0243-.3568.0518-.5418.0757-.1046.0135-.1804.0407-.1745.1741.0018.0413-.061.0853-.0943.1281-.0183-.0176-.0366-.0353-.0549-.0529.013-.3899.3272-.4086.6269-.4547-.1446-.0127-.2792-.0139-.4057.0176-.3003.0746-.3835.2938-.2459.5732.0265.0538.0155.1646-.0237.2051-.117.1209-.2434.244-.3895.3234-.7537.4095-1.5282.7817-2.2094,1.3144-.1739.136-.3597.3007-.5633.3449-.3519.0764-.566.3257-.8232.5228-.2216.1698-.4307.3566-.638.5439-.1925.174-.3754.3587-.5619.5395-.052.0227-.1046.0446-.1572.0666.0397-.0749.062-.17.1217-.2216.4991-.4317,1.0071-.8532,1.5075-1.2834.1054-.0906.192-.1837.2102-.3552.0134-.1264.159-.2492.2653-.3536.8259-.8122,1.7448-1.4998,2.778-2.0274.2313-.1181.4718-.2334.7216-.2954.2011-.0499.4235-.0289.6347-.0141.0616.0043.1172.095.1729.1437.3183-.1496.641-.0754.9629.0052.0545.0136.1036.0508.1582.0615.2549.0496.5096.1199.7669.1328.2942.0148.5246.1427.7294.325.0744.0662.1058.1866.1419.2877.0266.0746.0291.1578.0092.2691-.0903-.0784-.1807-.1566-.2709-.2353-.0813-.0709-.1558-.152-.245-.2107-.0993-.0654-.1834-.0484-.2015.0907l.006-.0047c-.2529.054-.4665.4058-.2888.607.1466.166.293.3321.4376.4998.4099.4756.8181.9527,1.2288,1.4276.1063.123.2193.2403.3292.3602l.0463-.0345c-.0124-.0373-.0296-.0738-.0359-.1121-.0067-.0401-.003-.0819-.0038-.123.0402.0063.0804.0126.1206.019l-.0052-.0074Zm-7.9119,4.1151c.0128.0025.0255.005.0383.0075.3299-.4087.657-.8197.9904-1.2256.6057-.7373,1.2192-1.4683,1.9441-2.0942.2197-.1897.4385-.3897.7482-.4341.0418-.006.0963-.0686.1058-.1133.0087-.041-.0336-.0941-.0567-.1403-.0718-.1434-.1606-.2806-.2138-.4305-.0586-.1652-.044-.3156.203-.3188-.216.0367-.4413.0558-.6058.1657-.2232.1491-.4077.3604-.5948.5583-.3623.3834-.7266.766-1.0676,1.1679-.2826.333-.571.6715-.7874,1.0475-.2328.4048-.3919.8532-.5682,1.2886-.0668.165-.0915.347-.1355.5213Zm5.7041-6.1296c-.026.0803-.0471.1184-.0497.1578-.0165.252-.0144.5062-.0476.7557-.0236.1773.0496.2683.1851.3556.4749.3062.944.6215,1.4171.9305.1234.0806.2534.151.3804.2261.0171-.0129.0342-.0257.0513-.0386-.0226-.0647-.0343-.1363-.0702-.1926-.0578-.0907-.129-.1733-.1987-.2558-.41-.4854-.8201-.9707-1.2327-1.454-.1332-.156-.2739-.3056-.4351-.4848Zm-5.8925.9379c.447-.354.8836-.7224,1.3441-1.058.4569-.333.9379-.6331,1.4083-.9477-1.0147.5398-1.969,1.1624-2.7524,2.0057Zm10.1966,1.8085c-.0802.1583-.1466.2717-.1937.3927-.016.0409.0034.1365.0295.1464.1633.0617.3332.1062.5008.1564.0063-.0228.0126-.0456.0189-.0684-.1001-.0274-.2046-.0445-.2984-.086-.0532-.0235-.1164-.0823-.1249-.1336-.0094-.0567.0239-.1391.0674-.1785.023-.0208.1225.0096.1609.0453.1242.1158.2306.2506.3547.3665.0825.077.1835.1342.2762.2002.0118-.0174.0235-.0347.0353-.0521-.2736-.2611-.5473-.5223-.8267-.7889Zm-6.8945-1.3447c.0279.0093.0557.0187.0836.028.1248-.1224.2496-.2447.3744-.3671-.0074-.0244-.0149-.0489-.0223-.0733-.1325,0-.3228-.0526-.3827.0134-.0742.0817-.0402.2616-.053.3991Zm4.7636,6.1265c.025.0128.0501.0256.0751.0384.1604-.3746.3208-.7491.4811-1.1237-.0184-.008-.0368-.0159-.0551-.0239-.167.3697-.3341.7394-.5011,1.1091Zm1.2213-3.8077c-.0768-.1633-.3334-.2751-.5942-.2344.2096.0827.402.1585.5942.2344ZM5.7447,2.5207c-.0075-.0133-.0149-.0266-.0224-.0399-.2199.1169-.4399.2337-.6598.3506.0061.0117.0121.0234.0182.0352.2213-.1153.4427-.2306.664-.3459Zm-1.5832.8099c.0066.011.0132.022.0199.0331.1768-.102.3535-.204.5303-.306-.0093-.0156-.0186-.0311-.0279-.0467l-.5223.3196Zm3.662.4077q.3049.1325.3964.0423c-.1362-.0145-.2663-.0284-.3964-.0423Zm3.2879,2.8554c-.0222-.0081-.0444-.0163-.0666-.0244-.0538.1536-.1076.3072-.1614.4609.0175.0065.035.0129.0525.0194.0585-.1519.1169-.3039.1754-.4558Zm-2.5574-4.5967c-.1803-.0121-.361-.0241-.5511-.0368.1863.0961.3657.1371.5511.0368Zm-5.4835,2.0703c.0103.0117.0206.0234.031.0351.1428-.1042.2855-.2084.4283-.3126l-.0291-.039c-.1434.1055-.2868.211-.4302.3165Z" fill="#ed1c24"/>
  <path d="m21.3468,13.671c-.0744.065-.112.1047-.156.1352-.4335.3006-.8644.6052-1.3049.8951-.1003.066-.2339.109-.3537.1126-.4577.0136-.916.0094-1.374.0056-.0986-.0008-.158.0121-.1568.1289.0104,1.0567.0182,2.1134.0275,3.1701.0002.018.008.0359.0154.0676h1.6478c0-.3595.0021-.7188-.0037-1.0781-.0005-.0316-.0489-.0695-.0831-.0924-.4332-.2904-.8692-.5766-1.3006-.8697-.0552-.0375-.0879-.1079-.1311-.1631.0628-.0208.1252-.0584.1883-.0598.4009-.0088.8021-.017,1.2028-.008.1071.0024.2262.0449.3169.1041.4688.3059.9286.6258,1.3954.9349.1196.0792.1689.1755.1629.3178-.0115.2735-.0058.5477-.0204.821-.0035.0659-.0412.1539-.0925.1894-.3868.2677-.7822.523-1.1724.7858-.2699.1818-.5518.296-.8905.2767-.3233-.0184-.6491.0042-.9736.013-.2189.0059-.3962-.0641-.5772-.1991-.3557-.2653-.7301-.5089-1.1142-.7313-.2016-.1168-.2954-.2521-.2952-.4818.0008-.9677-.0034-1.9355-.014-2.9031-.0019-.1766.0459-.2919.2032-.3917.4618-.293.9091-.6089,1.3681-.9065.0803-.0521.1896-.082.286-.0831,1.0057-.0117,2.0115-.0157,3.0172-.0203.0459-.0002.092.0148.1824.0303Z" fill="#ed1c24"/>
  <path d="m24.6745,15.9063c.5871,0,1.1196.0003,1.6521,0,.5154-.0003,1.0308-.0014,1.5462-.0017.0986,0,.1529-.0356.1514-.1469-.0036-.2604-.0043-.521.0048-.7812.0046-.1334-.0413-.1799-.1755-.1756-.4135.0132-.828.0335-1.2406.016-.1742-.0074-.3613-.0736-.5138-.1624-.4394-.2559-.8645-.5362-1.2941-.8087-.0571-.0362-.1077-.0825-.1613-.1242.0031-.024.0063-.048.0094-.072.1915,0,.383-.0011.5745.0002.8085.0055,1.6171.0187,2.4256.0135.2591-.0017.4798.0517.6946.2047.404.2879.8195.5606,1.2412.8219.135.0836.1548.1848.1536.317-.0063.7258-.0125,1.4517-.0159,2.1775-.0014.3056.0069.6113.0037.9169-.0005.0468-.0271.1134-.0634.1363-.2029.1281-.4159.2403-.6191.368-.3015.1896-.5946.3928-.8982.5788-.0768.047-.1796.0704-.271.0718-.9296.0145-1.8593.0223-2.7889.0315-.1267.0013-.2534.0002-.4251.0002.0728-.0655.1164-.1139.1685-.1501.3972-.2758.7874-.5633,1.1986-.8166.1644-.1013.3737-.1653.5669-.1773.3994-.0249.8017-.0064,1.2027,0,.1521.0024.2123-.0492.2031-.2117-.0122-.2154-.0088-.4339.0138-.6484.0186-.177-.0488-.2263-.2106-.2235-.3373.0058-.6766-.0194-1.0118.0077-.3505.0283-.6262-.1017-.899-.2954-.3628-.2577-.7397-.4956-1.1093-.7438-.0291-.0195-.0492-.0525-.1129-.1227Z" fill="#ed1c24"/>
  <path d="m23.3825,8.3892c.0596.0442.113.1068.1798.1293.3249.1095.6556.2021.9803.3125.4559.1549.9091.3178,1.3613.4834.0821.0301.1542.0883.2295.1357.537.3374,1.0739.6751,1.6102,1.0138.0498.0314.0948.0703.1421.1057-.0107.0213-.0214.0426-.0321.0639-.0777-.0343-.1594-.0618-.2326-.104-.6779-.3898-1.342-.8059-2.0357-1.1649-.4364-.2259-.9143-.3734-1.3779-.5443-.3455-.1274-.697-.2388-1.0475-.3522-.6395-.2069-1.2803-.4101-1.9206-.6146-.4029-.1287-.8052-.259-1.2092-.384-.1325-.041-.272-.06-.4038-.1027-.2036-.066-.3341-.2107-.3748-.4205-.0312-.161-.1512-.1496-.2479-.1213-.049.0143-.1.1176-.1001.1808-.0001.0984.0424.1968.0667.2952.012.0486.0236.0973.0141.1516-.1584-.1524-.1966-.3486-.2001-.5497-.0026-.1493-.0502-.1956-.1948-.1471-.4396.1474-.8803.2915-1.3213.4348-.1084.0352-.2193.0623-.3834.1083-.0033-.1906-.0147-.3623-.0029-.5324.0026-.0377.0819-.0856.1342-.1018.223-.0691.4489-.1291.6743-.1904.2975-.081.5955-.1597.893-.2408.0267-.0073.0507-.0247.0759-.0374-.0029-.0165-.0058-.033-.0088-.0495-.1197.0143-.2452.0104-.358.0463-.3084.0981-.6076.2267-.9183.3155-.1627.0465-.342.0348-.5038.0485-.0177-.033-.0304-.0517-.0283-.0535.1876-.1631.2068-.3663.1731-.5991-.0088-.0605.0934-.137.1507-.2144-.0533-.02-.1092-.041-.1993-.0748.2148-.3197.4959-.5272.8288-.7396.0052.1108.0086.1819.0125.2651.1038.032.2094.0645.3389.1044-.0365.0573-.0571.101-.0879.1358-.0686.0775-.1385.1378-.0525.26.0856.1217.186.1269.2991.0852.1893-.0698.3735-.1533.5606-.2288.3159-.1275.6344-.2487.9479-.3817.1907-.0809.374-.1791.5578-.2681.0073-.2794.0688-.334.3631-.3333.3413.0008.6826.0002,1.0239.0002,0-.0175,0-.0349,0-.0524-.4382,0-.8797-.0319-1.3134.0126-.2412.0248-.4731.1687-.7026.2734-.4905.2238-.9767.4573-1.4653.6854-.0138.0064-.0354-.0038-.1076-.0138.1495-.0798.2587-.1399.3695-.1969.0962-.0495.1934-.0972.2916-.1427.3264-.1516.3807-.2513.3562-.6146-.0107-.159-.0018-.3194-.0018-.4792-.0217-.0017-.0434-.0034-.0651-.0051-.0114.0809-.0287.1615-.0328.2427-.0057.1142-.0096.2297.0003.3433.0153.1761-.0211.2888-.2305.3077-.1033.0093-.2007.0847-.3008.1302-.0098-.0191-.0195-.0382-.0293-.0573.0894-.0447.175-.101.269-.1313.133-.043.2026-.111.1926-.261-.0104-.1575.0075-.3168-.0021-.4744-.009-.1477-.0931-.1842-.2156-.0948-.2003.1462-.392.304-.5915.4514-.2023.1495-.4138.2865-.6131.4397-.1661.1277-.3203.2709-.4798.4072-.0436.0372-.084.0995-.1316.1056-.0724.0093-.1593-.0047-.2205-.0413-.0248-.0148-.0232-.1399.0091-.173.1812-.1853.3748-.3583.5661-.5336.0174-.016.048-.0176.0725-.026l-.0555-.0635c-.2542.2041-.5085.4083-.7973.6401.131.1814.2658.3683.4081.5653-.1755-.0485-.1872-.065-.5714-.7764.1837-.237.3606-.4651.5506-.7103.0174.0534.0368.1128.0666.2043.0498-.0531.0922-.0915.1265-.1361.1134-.1476.1711-.1482.2611.0081.0432.075.0911.1523.1106.2347.0345.146.1082.1621.2179.0865.1882-.1298.3724-.2654.5591-.3973.1918-.1355.3843-.2698.5772-.4038.1069-.0743.2046-.1524.1802-.258-.1101-.042-.1847-.0814-.264-.0961-.0392-.0073-.0938.0221-.1296.05-.2126.1658-.4186.3401-.6333.5031-.1024.0777-.219.1367-.3288.2039.017-.056.0337-.1118.0504-.1675.3812-.1202.6279-.4144.897-.6802-.2949.1869-.5759.3924-.8544.6011-.0215.0161-.0257.0555-.0379.084-.046-.003-.0921-.006-.1984-.0129.0947-.078.1437-.1203.1948-.16.1943-.151.4297-.2703.5738-.4593.1883-.2471.4422-.2956.7016-.3604.1684-.0421.3421-.0628.5548-.1003-.1712-.2564-.316-.4847-.4772-.7008-.0211-.0283-.1436-.018-.1895.0153-.2665.1931-.5252.3972-.7842.6006-.0641.0503-.1357.1023-.1759.17-.1786.3008-.3478.6072-.5175.9132-.0134.0241-.0043.0607-.0049.075.0995.0655.1857.1222.2719.179-.0131.0475-.0261.0951-.0507.1845-.0534-.0725-.0732-.1086-.1013-.136-.2482-.242-.2416-.2375-.0676-.5462.2053-.3643.416-.7278.5857-1.1088.0799-.1795.0695-.3993.1001-.6008-.0229-.0096-.0458-.0191-.0687-.0287-.0739.0792-.1654.1482-.2189.2394-.3376.5754-.6683,1.1549-.9978,1.735-.1352.238-.2598.4821-.3941.7207-.0301.0534-.0803.0955-.1227.1444-.0887-.0822-.1677-.1556-.238-.2208.0892-.1832.1724-.373.2751-.5514.0256-.0445.1193-.0811.1731-.0717.1312.023.2149-.0095.2806-.1268.2701-.4822.5448-.9618.8183-1.442.0565-.0993.0993-.2126.1761-.293.2497-.2613.51-.5127.7709-.763.0956-.0917.2028-.1716.3074-.2535.1745-.1366.2745-.3008.1945-.5236.0829-.0486.1516-.089.2436-.1429.033.0731.0676.1427.0963.2146.2168.5417.4352,1.0828.646,1.6268.0378.0976.0579.2076.0596.3124.004.2417.1709.2734.3524.3124.08.0172.171.0616.2219.1228.2635.3174.5119.6473.7745.9653.0569.0689.1444.1246.2291.1558.1548.057.333.0638.4737.1417.1703.0943.32.2318.4634.3668.149.1403.2802.2996.4184.4513.1261.1384.2559.2738.3749.4181.0714.0866.1201.1915.188.2813.1792.2368.3728.4632.5422.7066.1166.1675.214.3512.2968.538.0412.0929.0246.2099.0449.314.01.0515.0319.1132.0698.1447.1457.1213.2913.2466.4528.3443.3646.2204.742.4195,1.1075.6383.2606.156.5118.3278.7631.4987.0353.024.0669.0837.0657.1259-.0048.1687.0987.2448.2274.3194.5605.3247,1.1181.6545,1.6745.9862.0509.0303.0854.088.1276.133-.0139.0179-.0279.0358-.0418.0538-.1108-.0649-.2211-.1305-.3324-.1944-.4298-.2469-.8601-.4929-1.2896-.7402-.1045-.0601-.2068-.1239-.3101-.1861-.116-.0699-.1759-.1623-.1872-.3075-.0188-.2413-.2456-.3102-.412-.4086-.6072-.3592-1.2262-.6983-1.8345-1.0557-.0883-.0519-.142-.1624-.212-.2455-.1221-.145-.2431-.2911-.3672-.4344-.0785-.0906-.1618-.1769-.2242-.2891.0915.0462.183.0924.2745.1386.1125.123.2249.246.3374.369-.0054-.2319-.1826-.2891-.3422-.364-.1958-.1866-.392-.3728-.5872-.5599-.0591-.0567-.1152-.1166-.1737-.174-.3756-.3687-.7498-.7389-1.129-1.104-.0622-.0599-.1468-.0967-.2212-.1443q.1192-.1433.3632.1388c-.0324-.1464-.0544-.31-.109-.4618-.0235-.0652-.1148-.106-.1746-.1574-.0362.0407-.0512.0497-.0515.0591-.0085.2742-.0134.2854-.3031.3074-.2023.0154-.4071.0023-.6088.0221-.2621.0257-.5193-.0073-.7795.15-.3035.1835-.6641.2784-1.0075.3879-.2239.0714-.4059.1942-.5939.3272-.1636.1157-.3647.1784-.5492.2645.0084.0192.0168.0384.0252.0576.0865-.0379.1736-.0743.2592-.114.1309-.0607.2418-.0851.2959.0998.0261.0892.2906.1403.3454.0694.0256-.0331.0298-.0977.0169-.1399-.0077-.0253-.0679-.0508-.1028-.0486-.0929.0058-.233.0954-.2422-.0655-.0096-.1673.1565-.1279.2634-.1312.1828-.0057.3658-.0016.5009-.0016-.1357.1776-.2992.3915-.4583.5998-.0785-.0121-.1996-.0686-.2631-.0301-.0671.0407-.0792.172-.1153.2637.017.0102.034.0203.0511.0305.0508-.0148.1016-.0296.1339-.0389.0081.0513-.0019.1315.0301.1553.0426.0317.1468.0473.1728.0202.0483-.0504.059-.1366.1032-.256.0363.0523.0845.0913.0914.1365.0619.407.2547.6557.6837.7742.9169.2532,1.8176.5645,2.7274.844.2405.0739.49.1183.7353.1762,0,0-.006-.0041-.006-.0041Zm-4.0335-7.3174c-.0799.0114-.1385.0253-.1974.027-.1773.0053-.3287.21-.2894.3854.0175.0782.0095.1619.0225.2415.0181.1104.0167.2376.0735.3255.1747.2706.373.5261.5623.7873.074.102.3226.1678.4278.1047.0294-.0176.0574-.0729.0527-.1061-.026-.1808-.0625-.3602-.0928-.5255-.073.1262-.1478.0656-.1595-.0505-.0159-.1572-.0566-.2923-.1638-.4078-.0118-.0127-.0105-.0366-.0191-.0533-.0839-.1616-.1692-.3225-.2527-.4843-.0205-.0397-.0361-.0819-.054-.1229.0137-.0105.0275-.021.0412-.0316.061.0499.122.0998.183.1498.009-.0082.018-.0165.0271-.0247-.0553-.0735-.1106-.147-.1613-.2144Zm1.8117,3.2008c.0089-.0192.0179-.0385.0268-.0577-.0517-.0607-.1016-.1231-.1555-.1819-.1156-.1261-.2329-.2508-.3503-.3753-.0515-.0547-.098-.1177-.1587-.1596-.1523-.105-.2033-.0792-.2459.0985-.0205.0855-.0525.1688-.085.2508-.0846.2129-.1725.4245-.2577.6333.1904-.0677.3832-.1658.5867-.2003.2077-.0352.426-.0078.6396-.0078Zm-2.0439-1.0107c-.0006.0131-.0013.0263-.0019.0394.0302,0,.0619.006.0904-.001.1412-.0348.2797-.0891.4227-.106.1724-.0203.3564-.0857.4991.1107.0421.0579.1792.0563.2738.0608.0299.0014.0774-.0618.0893-.1034.0068-.0238-.0372-.0866-.066-.0923-.1774-.0347-.3606-.0944-.5349-.0768-.2605.0263-.5153.1096-.7725.1686Zm-.3875-1.3025c-.0526.3313-.255.4842-.4876.6121-.0347.0191-.0628.0518-.0888.0826-.0032.0037.0297.0522.0396.0501.0407-.0085.0856-.0203.1171-.0457.186-.15.3686-.3041.5533-.4576-.035-.0632-.0702-.1269-.1337-.2415Zm.3614,1.7767c.0061.0261.0122.0522.0182.0783.1178-.0263.2361-.0504.3531-.0795.1232-.0306.2446-.0679.3678-.0986.1048-.0261.2382.0116.3097-.085-.0084-.0195-.0167-.039-.0251-.0584-.3412.0811-.6825.1621-1.0237.2432Zm-1.5789,2.4713c.1166-.0358.2333-.0716.3885-.1192-.2032-.105-.3105-.0348-.3885.1192Z" fill="#ed1c24"/>
  <path d="m14.2069,13.6394c.3972.2646.7616.5072,1.1257.7502.1376.0918.2737.1859.4117.2771.1302.0861.2106.1956.2068.3616-.0223.9735-.0443,1.947-.0606,2.9207-.0074.4439-.0013.888-.0013,1.379-.1784-.1011-.3241-.1742-.46-.2625-.3574-.2322-.7069-.4766-1.0672-.704-.1236-.078-.1779-.1708-.1742-.3111.0069-.2609.0042-.5222.0165-.7829.0065-.1371-.0216-.1831-.1779-.1802-.509.0094-1.0186-.0006-1.5274-.018-.0736-.0025-.1447-.0864-.2166-.1331-.4425-.2874-.8871-.5716-1.3249-.8659-.0707-.0475-.1575-.1392-.1587-.2117-.0118-.7184-.0071-1.437-.0071-2.1942.0917.051.1632.0848.2286.1281.4511.2985.8987.6025,1.3527.8964.1224.0793.1652.1709.1578.3146-.0131.2541-.0008.5094-.01.7638-.0046.1282.0462.1664.1672.1648.4456-.006.8914-.0114,1.3369-.004.1596.0027.1873-.0585.1856-.2036-.0077-.6795-.0034-1.3592-.0034-2.0849Z" fill="#ed1c24"/>
  <path d="m22.4488,14.805h-1.593c-.0071-.0179-.0143-.0357-.0214-.0536.1303-.0916.2608-.1828.3907-.2748.3267-.2311.6489-.4691.9824-.69.1016-.0673.2333-.1211.3526-.1242.4767-.0125.954-.0012,1.431-.0019.1147-.0002.1543.0486.1541.162-.0024,1.4013-.0024,2.8027-.0003,4.204.0002.1484-.0554.2397-.1861.3224-.3976.2516-.7831.5225-1.1735.7854-.0316.0213-.0631.0458-.0984.0581-.075.026-.1524.0448-.2289.0666-.0041-.0709-.0093-.1417-.0119-.2127-.0014-.0381.0026-.0764.0026-.1146,0-1.3186,0-2.6371,0-3.9557,0-.044,0-.0879,0-.1711Z" fill="#ed1c24"/>
  <path d="m11.9021,4.6563c.0218-.0329.0436-.0657.071-.1071-.0609-.0202-.1282-.0336-.1869-.0637-.2238-.1144-.2228-.1165-.2737.1482-.0483-.0781-.0966-.1562-.153-.2474-.0252.0184-.0575.042-.117.0855-.226-.2991-.4458-.6047-.6817-.8973-.1665-.2065-.3522-.3978-.5347-.5909-.0926-.098-.1335-.1475-.0101-.2872.3103-.3514.6636-.6325,1.0948-.8041.2265-.0901.4702-.1563.7118-.1845.2761-.0322.5586-.0078.8383-.0121.7461-.0115,1.4243.2218,2.0066.6632.3059.2319.5423.5662.7753.8801.1815.2446.1409.3256-.1141.4768.0185.136.0366.2691.0489.3601-.1804-.0054-.3338-.0128-.4872-.0139-.1715-.0012-.344.0155-.5145.0033-.61-.0437-1.1471.1762-1.6662.455-.1205.0647-.2178.1727-.326.2605-.1739.1411-.2357.1324-.3705-.04-.0297-.038-.0779-.0614-.1176-.0915,0,0,.0066.0068.0066.0068Zm.2784-2.3275c-.2013.2352-.1476.47.1339.5679.1772.0616.37.1001.557.1051.17.0045.3695-.0499.4102-.24.0402-.1879-.1019-.3123-.2724-.3867-.0229-.01-.0543-.0217-.0625-.0408-.0382-.0893-.0696-.1816-.1034-.2728.0784-.0251.1645-.0849.2339-.0694.32.0712.6409.1472.9503.254.1811.0625.3581.1652.5065.287.1804.1479.3354.3292.4885.5071.0927.1077.1569.2394.2422.3541.0352.0473.0921.0784.1392.1168.0139-.0125.0278-.0251.0416-.0376-.0294-.0587-.0489-.1257-.0899-.1747-.1996-.2385-.396-.4808-.6115-.7044-.1251-.1298-.2698-.2584-.4311-.3319-.3387-.1543-.6926-.2759-1.0436-.4019-.0874-.0314-.1871-.0402-.281-.0393-.4821.0044-.9642.0152-1.4463.0247-.0376.0007-.0787.0005-.1119.0152-.4771.2107-.9496.4267-1.2796.8597-.0885.1161-.1001.1209-.0096.2239.3011-.3447.5667-.7322,1.0682-.8241.0271-.005.054-.0301.0739-.0522.1331-.1482.2224-.1527.3816-.0373.1051.0762.222.1364.3348.2018.0577.0335.1178.0627.1809.096Zm-.0758,2.3489c.1259.0605.2417-.0171.3497-.1076.3287-.2753.7078-.4576,1.1221-.541.3823-.077.7747-.1037,1.0833-.1426-.5977-.0434-1.2617-.0033-1.8675.3579-.2325.1386-.4583.2883-.6876.4332Zm-1.8351-1.6627c.0071.0503-.0024.1129.0242.1486.1053.1416.2601.2588.3251.4149.0892.2145.241.3507.412.4817.0979.0749.1985.1463.2978.2192l.0726-.0728c-.4942-.2864-.7722-.7511-1.1317-1.1916Zm1.514-.5741c-.0096.0003-.0192.0007-.0288.001.0588.1615.0924.3393.1832.4802.1022.1585.0955.2797.0066.4341-.0596.1035-.0779.2308-.1147.3474.0307.0103.0615.0207.0922.031.0741-.2031.1488-.406.2209-.6098.0051-.0144-.0058-.0372-.0145-.0533-.1144-.2105-.2297-.4205-.3448-.6307Zm1.6279.5261c-.1702.0615-.3365.1538-.5117.1758-.1746.0219-.3581-.0267-.5378-.0444.3667.0918.7372.1948,1.0495-.1313Zm.5154.0197c.0104-.0175.0209-.035.0313-.0524-.1502-.0773-.3004-.1547-.4709-.2425.053.2817.326.1568.4396.2949Zm-2.9446-.6332c-.0113-.0147-.0227-.0293-.034-.044-.1368.1207-.2736.2414-.4104.3621.0092.0101.0185.0203.0277.0304.1389-.1162.2778-.2324.4167-.3486Z" fill="#ed1c24"/>
  <path d="m11.8973,10.9931c.0803-.0044.1421-.0108.2039-.0109.6873-.0004,1.3745.0001,2.0618.0005.0509,0,.102-.0021.1527.0018.5725.0447.835.5711.5384,1.0683-.0229.0383-.017.133.0122.157.236.1943.261.4532.1905.7115-.0874.3203-.347.467-.663.4736-.7123.0148-1.425.0131-2.1376.0115-.3702-.0008-.3648-.0071-.3616-.3834.0051-.6045.0023-1.209.0027-1.8135,0-.0683,0-.1366,0-.2165Zm1.5953,1.7487c.1711,0,.3421-.0013.5132.0005.0983.0011.2048.0104.2038-.1301-.001-.1382-.1083-.132-.2058-.1326-.3548-.0025-.7096-.0049-1.0644-.0087-.0924-.001-.1879-.0067-.192.1225-.0043.1348.0916.1481.194.1481.1837,0,.3674,0,.5511.0003Zm-.0473-.8557v.0063c.1589,0,.3188.0101.4763-.0049.0647-.0062.1659-.0563.1777-.1043.0287-.1172-.0576-.1681-.1713-.168-.3372.0005-.6747-.0055-1.0115.0075-.0595.0023-.116.0839-.1738.1288.056.0448.1087.1225.1685.1284.1766.0173.3559.0062.5342.0062Z" fill="#ed1c24"/>
  <path d="m9.4959,13.4014c-.3882,0-.7764-.0041-1.1644.0022-.1381.0022-.1866-.0383-.1845-.1851.0096-.6744.0108-1.3491.0052-2.0236-.0013-.1541.0392-.2129.202-.2114.751.0065,1.5021.0072,2.253,0,.6164-.0058.8426.3475.8245.8701-.0106.3048.0161.6121-.0113.9148-.0375.4138-.208.5778-.6279.6164-.3096.0285-.6226.0208-.9341.0276-.1208.0026-.2417.0004-.3625.0004,0-.0038,0-.0075,0-.0113Zm.299-.669v-.0075c.2158,0,.4322-.0102.6471.0032.1737.0108.2249-.0639.2185-.2222-.0089-.222-.0163-.4446-.0086-.6664.0049-.1414-.0401-.1905-.1841-.1873-.4315.0097-.8637.0189-1.2947.0037-.1657-.0059-.1991.051-.1947.1917.0075.241.0145.4825.0076.7233-.004.1404.0499.1719.1806.1646.2089-.0115.4188-.0031.6283-.0031Z" fill="#ed1c24"/>
  <path d="m29.9256,11.606c-.4772,0-.959,0-1.4408,0-.1974,0-.3953-.0076-.592.0041-.0531.0032-.1027.0646-.1538.0992.0391.0572.0662.1374.1203.1657.0623.0325.1485.0244.2243.0248.4012.002.8025.0022,1.2037.0008.5672-.002.7665.3646.6634.9226-.0847.4589-.2904.5774-.7645.5809-.5603.0041-1.1209.0079-1.6811-.0028-.2102-.004-.4473.0088-.5458-.2528-.0177-.0469-.0324-.0961-.0396-.1456-.022-.1523.0178-.2304.2009-.2256.5218.0136,1.0441.0089,1.5663.0079.1011-.0002.2057-.0039.3018-.0305.0474-.0131.0792-.0823.1181-.1261-.0447-.0376-.0857-.082-.1357-.1104-.0302-.0171-.0746-.0123-.1126-.0121-.4136.0015-.8274-.0033-1.2407.0081-.5213.0144-.756-.2117-.7383-.7336.0028-.0825.0124-.1651.0231-.247.0522-.3994.166-.5216.6008-.5422.6291-.0298,1.2607-.0125,1.8912-.0051.3781.0045.5711.2219.531.6199Z" fill="#ed1c24"/>
  <path d="m3.7977,12.5727c.3215.2696.6081.5099.9057.7594-.2941.1562-.9062.0914-1.1145-.0887-.4042-.3495-.8113-.6957-1.218-1.0423-.0174-.0149-.043-.0202-.0958-.044v1.2442c-.2794,0-.532.005-.784-.0055-.0373-.0016-.1023-.0765-.1027-.1179-.0062-.7561-.0046-1.5123-.0046-2.2773.0566-.0084.0989-.0201.1413-.0201.6558.0003,1.3116-.0003,1.9673.0056.1455.0013.2922.0184.4359.0428.3494.0595.4567.1733.4882.5257.0141.1578.0143.3183.0033.4764-.0223.321-.1329.4348-.4514.4927-.0417.0076-.082.0231-.1708.0488Zm-1.5118-.5545c.1548,0,.3048,0,.4549,0,.2288,0,.4578.0038.6865-.0016.1269-.003.2082-.08.1996-.2052-.003-.0433-.0861-.1148-.1339-.116-.3984-.0094-.797-.0053-1.207-.0053v.3281Z" fill="#ed1c24"/>
  <path d="m15.9702,6.6953c-.3974.0304-.7947.065-1.1926.0838-.0334.0016-.1146-.1216-.1002-.155.0489-.1128-.017-.1608-.0787-.2253-.479-.5015-.9559-1.005-1.4345-1.5069-.0524-.0549-.1085-.1074-.1685-.1536-.1349-.1038-.1376-.1539.0267-.2164.2485-.0946.5005-.1927.7599-.2439.6428-.127,1.2648-.056,1.8464.2685.1971.11.33.2286.2977.5015-.047.3966-.0403.8001-.0442,1.2008-.0015.1522-.0448.2073-.2063.2126-.2827.0093-.5643.051-.8981.0843.4246.14.836-.1447,1.204.0468-.0039.0343-.0078.0687-.0116.103Z" fill="#ed1c24"/>
  <path d="m25.0918,12.1441c.5458.4165,1.0715.8177,1.5971,1.2188-.0085.0172-.017.0343-.0255.0515-.2704,0-.5429-.022-.8106.0048-.4946.0495-.7415-.3348-1.0671-.578-.1775-.1326-.3296-.2989-.4955-.4474-.0299-.0268-.0711-.0409-.1366-.0774v1.0856c-.2797,0-.538.0051-.7958-.0058-.036-.0015-.0984-.0817-.0986-.1257-.0024-.7129.0029-1.4259.0074-2.1389.0007-.1144.0426-.171.1752-.1587.1769.0164.3563.0122.5344.0084.1232-.0026.1707.0485.1687.1703-.0045.2709-.0014.542-.0014.8587.1114-.0847.1931-.1397.2666-.204.2776-.2431.5517-.4901.8292-.7332.0416-.0364.0937-.0852.1417-.0862.3646-.0072.7295-.004,1.0943-.004.006.017.0121.034.0181.0511-.4597.3641-.9195.7283-1.4016,1.1101Z" fill="#ed1c24"/>
  <path d="m17.07,12.9301c.098-.1664.1864-.3398.3-.4947.0315-.0429.138-.0293.2093-.0451.0537-.0118.1286-.0138.1522-.0486.0199-.0293-.011-.1047-.0361-.1506-.0714-.1307-.1512-.2568-.2556-.4313-.0862.1522-.1534.2692-.2189.3871-.2164.389-.4284.7806-.6528,1.165-.0313.0536-.1212.0998-.1859.1025-.2717.0113-.5441.0048-.864.0048.0968-.1833.1673-.328.2476-.4671.3596-.6221.7204-1.2436,1.0867-1.8618.0293-.0495.1032-.0992.1587-.102.2796-.0139.5602-.0187.8401-.0112.0617.0017.1474.0511.1786.1041.3709.6305.7353,1.2649,1.0967,1.9009.0705.124.1212.2591.2005.4315-.3151,0-.5806.0051-.8456-.0043-.0521-.0018-.1347-.0496-.148-.0931-.1086-.3544-.3943-.3195-.6672-.3188-.1825.0005-.3649,0-.5474,0-.0163-.0224-.0326-.0448-.0489-.0672Z" fill="#ed1c24"/>
  <path d="m20.4609,5.8949c-.1794-.2802-.1017-.5289-.0338-.7721.0125-.0447.1-.0941.1554-.0972.3811-.0214.7629-.0279,1.1442-.0462.1193-.0057.1728.0441.1993.1545.0525.2184.0007.4167-.1975.56.034-.1113.0679-.2225.1019-.3338-.0173-.0067-.0346-.0134-.0519-.0202.0297.2037-.2217.2838-.1607.5186.0201.0775-.0229.247-.1955.2117-.1535-.0314-.2404.0023-.1998.1997-.0169.0034-.0338.0067-.0506.0101-.0579-.063-.1157-.126-.1775-.1933.1225-.0583.2133-.1015.3226-.1534-.6404-.1653-.6946-.1499-.7196.1655.1843.0818.3592.1599.5347.2368.0228.01.0526.0261.0716.0191.1589-.0584.2789-.1085.4082.1005.0782.1264.3035.1653.4665.2349.4957.2117,1.0045.3962,1.4871.6341.5972.2946,1.1755.6282,1.7577.9526.3997.2227.794.4552,1.1864.6906.0905.0543.1708.1321.2397.2127.0231.0271.0147.1182-.0124.1414-.0323.0277-.1134.0367-.1507.015-1.2478-.7253-2.5515-1.3373-3.8894-1.8717-.9901-.3955-2.0009-.7389-3.0026-1.1055-.0239-.0087-.0506-.013-.0714-.0266-.088-.0575-.2152-.1001-.2502-.1816-.0403-.0939.192-.3091.3358-.3113.1893-.0029.379.0256.5686.0406.0481.0038.0963.0075.1842.0143Z" fill="#ed1c24"/>
  <path d="m21.587,13.4221c-.406-.0183-.8153-.0111-1.2172-.0622-.3912-.0497-.5218-.2018-.5446-.5861-.0226-.3805-.0272-.7646-.0026-1.1447.0281-.436.2616-.6374.7095-.6429.6367-.0078,1.2735-.0056,1.9103-.0016.3364.0021.3365.0079.3519.3437.0026.0572.0032.1146.0055.1718.0052.1315-.0599.1776-.1881.1761-.6174-.0076-1.2348-.0074-1.8522-.016-.1134-.0016-.167.0329-.1665.1491.001.2543-.0016.5087-.0024.7631-.0005.1516.1043.1474.2121.1464.592-.0052,1.1842-.0026,1.7761-.0161.1773-.004.2495.0491.2197.2271-.0072.0432-.0001.0889.0008.1335.0071.3481.0071.3461-.3536.3422-.2859-.0031-.5718-.0006-.8577-.0006-.0002.0057-.0004.0115-.0007.0172Z" fill="#ed1c24"/>
  <path d="m6.3095,13.4025c-.3948,0-.7895-.0032-1.1842.0016-.151.0018-.2153-.0477-.2138-.2104.0067-.6931,0-1.3864.0068-2.0795.0004-.045.0716-.1282.11-.1283.8337-.0011,1.6675.0087,2.5012.0117.1415.0005.1987.0536.1749.1946-.0073.0434-.0033.089-.0025.1335q.0062.3217-.3259.3208c-.4711-.0011-.9424.0019-1.4134-.0055-.1234-.0019-.1689.0288-.1641.1595.0094.2541.0053.5089-.0017.7632-.0038.1378.0649.1792.1867.1773.4136-.0064.8273-.0111,1.2409-.0174.0636-.001.1271-.0108.1906-.0096.2753.0051.2922.0235.2838.2916q-.0126.4024-.4152.403c-.3247.0003-.6494,0-.9742,0v-.006Z" fill="#ed1c24"/>
  <path d="m8.1249,13.8474c-.0483-.16-.0082-.231.1778-.229.4883.0054.9768-.0083,1.4652-.0119.0892-.0007.129.0304.0776.1297-.183.353-.3549.7119-.5405,1.0635-.1646.3119-.338.6193-.5186.9221-.0211.0353-.1129.0284-.198.0105.1975-.1574.1878-.3367.1636-.5447-.0146-.1257.073-.2634.1154-.3954.0972-.3026.1966-.6045.2912-.9079.0193-.0618.0214-.1289.0314-.1936-.0244-.0103-.0488-.0206-.0732-.0309-.049.0964-.1156.1878-.144.2899-.1614.581-.3137,1.1646-.4752,1.7701-.272-.114-.2772.0767-.3248.2629-.2107.8254-.4507,1.6436-.6504,2.4715-.1548.6418-.2655,1.2943-.3964,1.942-.0062.0309-.0142.0624-.0278.0905-.0677.1399.0079.163.1265.171.1109.0075.2228.0244.3301.0529.1161.0308.1794.029.2216-.1141.2696-.9142.5435-1.8273.8317-2.7358.1998-.63.4047-1.2598.6437-1.8755.2895-.7458.6159-1.4774.9313-2.213.0282-.0658.0937-.1157.1419-.173.0244.014.0488.028.0733.0419-.0645.1599-.1246.3216-.1943.4792-.2488.5633-.5362,1.1125-.7445,1.6903-.4526,1.2556-.8692,2.5243-1.2922,3.7905-.1066.3192-.1863.6477-.27.9741-.0629.2455-.1242.2919-.3756.2523-.1558-.0245-.3148-.0358-.4664-.0757-.0489-.0129-.12-.1063-.1114-.1487.153-.7533.2998-1.5086.4827-2.255.2011-.8208.4323-1.6345.6626-2.4478.0508-.1795-.037-.2364-.1694-.2732-.0962-.0267-.1685-.0524-.1465-.1748.0819-.4562.1576-.9136.2445-1.3688.0161-.0844.0731-.1611.1109-.241-.0211.1818-.0348.3643-.0643.5443-.0418.2549-.0953.508-.1438.7618.0156.003.0313.006.0469.0089.076-.3703.1569-.7396.2233-1.1116.0108-.0604-.0424-.1322-.066-.1987Zm.8515,1.1299c.2-.1035.6716-1.1409.5918-1.3097-.241.4242-.3941.8523-.5918,1.3097Z" fill="#ed1c24"/>
  <path d="m23.3884,8.3933c-.4509-.1518-.9003-.3079-1.3529-.4545-.7728-.2502-1.5483-.4923-2.3204-.7446-.0721-.0235-.1536-.082-.1873-.1468-.1005-.1933-.1793-.3979-.2903-.6524.1203.0323.1781.0444.2336.0632,1.0295.3495,2.0648.6828,3.0863,1.0543,1.2329.4484,2.3993,1.0482,3.5639,1.6471.1673.086.2915.256.4356.3872-.0125.0217-.0251.0435-.0376.0652-.0704-.0388-.1448-.0718-.2101-.1178-.0803-.0566-.1435-.1478-.2306-.1826-.3642-.1453-.7318-.2832-1.1033-.4085-.5287-.1784-1.062-.3434-1.5931-.5141.0003,0,.0062.0041.0062.0041Z" fill="#ed1c24"/>
  <path d="m18.5446,7.937c-.0051.0734-.0111.1594-.0138.1984-.0885.0985-.1575.1753-.212.2359.0517.0738.0836.1194.1156.165-.0602.0347-.1195.0975-.1807.0994-.2658.0082-.5322-.0066-.7982-.0026-.2218.0033-.3376-.0788-.3929-.2986-.0329-.1311-.0684-.2615-.1027-.3922.0213-.0067.0427-.0134.064-.0201.0405.1256.0811.2513.1216.3769.0221-.0073.0442-.0146.0663-.022-.0005-.2507-.17-.4522-.1915-.6968-.0184.0044-.0369.0088-.0553.0132-.0186.0498-.0372.0996-.0591.158-.1264-.1805-.0786-.2801.1082-.3387.4664-.1463.9298-.3032,1.3904-.4672.2334-.0831.2197-.0904.3071.1339.066.1693.0326.38.207.5104.0127.0095-.049.1186-.0761.1813-.0165-.0045-.033-.0091-.0495-.0136-.0079-.0495-.0158-.099-.0236-.1484-.0147-.0017-.0293-.0033-.044-.005-.014.0685-.0603.1554-.0343.201.0352.0615.121.1157.1938.1305.3536.072.7152.1093,1.0647.1963,1.3841.3449,2.7451.7663,4.0709,1.2944.8383.334,1.6702.6843,2.5028,1.0323.0766.032.1382.1001.2067.1515-.0103.021-.0207.042-.031.063-.1881-.0749-.3753-.1519-.5644-.2242-.2714-.1037-.5484-.1939-.8149-.3086-.2384-.1027-.4585-.2498-.6996-.3442-.7577-.2967-1.5135-.6016-2.285-.8582-.7654-.2547-1.5448-.4708-2.3263-.6721-.4094-.1055-.8368-.1399-1.2547-.2142-.0644-.0115-.1214-.065-.2093-.1146Z" fill="#ed1c24"/>
  <path d="m5.3171,10.3208c.0917.0795.1883.1631.316.2738.0297-.1066.0635-.1751.0652-.2444.005-.1959.0051-.3927-.0095-.5879-.008-.1063.0131-.1686.1255-.1523.101.0147.2633-.0797.2684.1346.0019.0788.0136.1573.0273.3061.2521-.3233.5073-.525.9132-.3979-.1811.1474-.3573.2908-.5625.4579.2073.1688.3965.3229.6062.4938-.4705.1705-.6925-.1304-.9288-.3987-.0192.0074-.0383.0147-.0575.0221,0,.1009-.0034.2019.0009.3025.0045.1038-.029.1529-.1434.1436-.1725-.0141-.3474-.0055-.5187-.0269-.0992-.0124-.2034-.0491-.2873-.103-.1057-.0679-.1899-.1683-.2894-.2472-.0457-.0362-.1055-.0546-.1903-.0967,0,.1072-.0157.1835.0034.2498.0358.1246-.002.1854-.1271.1924-.1963.011-.3928.0184-.5893.0267-.0123.0005-.0308-.0002-.0365-.0078-.1287-.1701-.3126-.186-.504-.1927-.0067-.0002-.034-.131-.0079-.1747.0358-.0598.1137-.0945.1941-.1556-.0452-.0497-.0832-.0916-.1398-.154-.0952.1793-.1813.333-.2592.4907-.0723.1462-.2522.234-.3921.1662-.032-.0155-.0596-.113-.0414-.1474.1461-.2752.2964-.5489.4607-.8135.0848-.1365.4348-.1088.5144.0321.1377.2436.2692.4907.4043.7358.0258.0468.056.0912.0842.1367.0218-.0037.0436-.0074.0654-.0111,0-.0945.0019-.189-.0004-.2834-.0043-.1782-.0088-.3565-.0177-.5345-.0049-.099.0188-.1567.1348-.1545.2672.0051.5347.0063.8019.001.192-.0038.2707.0985.3026.2724.0308.1672.0489.3202-.1563.3895-.0084.0028-.0116.0212-.0296.0567Zm-.6782-.27c.3005.072.4611.0319.4942-.116-.2982-.0445-.3978-.0236-.4942.116Z" fill="#ed1c24"/>
  <path d="m7.1705,9.6076c.1115,0,.1931,0,.2746,0,.5811.0002,1.1623.0012,1.7434.0005.2894-.0003.4126.1196.388.4072-.0058.0673-.0601.1531-.1178.1888-.1304.0806-.099.1403-.004.2139.0774.06.1536.1217.2584.2049-.487.1504-.6624-.2883-.9984-.449-.0082.1391-.0135.2498-.0216.3603-.0081.11-.068.1541-.1785.1462-.2036-.0146-.4076-.0278-.6116-.0324-.246-.0055-.4921-.0013-.7324-.0013v-1.039Zm1.1718.2637c-.2792.022-.5486.0432-.8179.0644.0019.0158.0039.0316.0058.0474.149.0066.3002.0009.446.0259.0574.0098.103.0881.1539.1353-.0487.0373-.0964.1047-.1462.1063-.1498.0049-.3005-.0158-.4874-.0291-.0411.0545-.0044.1013.1081.1124.2464.0243.493.0475.7376.071v-.5335Zm.3659.0488l-.0263.0518c.0449.0345.0871.093.1353.0985.1058.0121.2154.003.3219-.0101.0313-.0038.0573-.0502.0857-.0771-.028-.021-.0553-.059-.0841-.0603-.1439-.0063-.2882-.0029-.4324-.0029Z" fill="#ed1c24"/>
  <path d="m16.2592,8.2431c.153-.0641.2602-.1522.3445-.134.1172.0254.2172.1304.3246.2014-.0074.0166-.0148.0331-.0222.0497-.0607-.0254-.1254-.0442-.1813-.0776-.1232-.0738-.2139-.098-.3192.0505-.0627.0884-.2022.1224-.3031.1787.0219-.1603.0528-.2862.0538-.4124.0032-.4112.0701-.8408-.0254-1.2294-.1481-.6027-.0517-1.1984-.085-1.7955-.0021-.0372.0304-.0763.0468-.1145.04.0239.0914.0388.1183.073.3213.4078.5156.863.5207,1.3913.0021.2172.0466.436.0303.6509-.0319.4207-.143.8191-.5026,1.1679Zm-.0133-2.1538c.2296-.1277.2367-.3554.0508-.4936-.0155.1503-.0325.3156-.0508.4936Z" fill="#ed1c24"/>
  <path d="m18.4584.3896c-.0544.0348-.1119.0655-.1625.1051-.1552.1216-.3094.2447-.461.3709-.1641.1367-.3277.138-.5063.0249-.0408-.0258-.123-.03-.1626-.0058-.1183.0723-.2308.1571-.3341.2498-.0787.0706-.2329.1285-.0933.283.0138.0153-.0321.0849-.0507.1291-.0532.126-.0838.2411.0225.368.0491.0587.0414.165.0237.2573-.0866-.2125-.2672-.3639-.2276-.6467.0455-.3252.2757-.4508.4791-.6121.1379-.1094.3148-.169.471-.2566.0334-.0187.0499-.0653.0796-.0935.1325-.1256.2611-.2569.4067-.3652.0228-.017.1261.0742.2336.1412.03-.0486.0875-.1223.1236-.2053.0481-.1103.1063-.1567.2349-.1229.1025.0269.2176.0043.3217.0277.0947.0213.1931.0608.2688.1194.0471.0365.0917.1648.0741.1803-.063.0557-.1503.091-.2339.1135-.0431.0116-.0983-.0185-.1471-.0328-.1289-.0377-.2107-.0288-.2396.1386-.0282.1633.081.2257.1687.3086.0092.0087.0669-.0338.1072-.0553.0885.1432.0157.2344-.0834.3148-.2014.1634-.4049.3242-.6301.5042-.1349-.1827-.2753-.3728-.43-.5824.2586-.192.527-.3912.7953-.5904l-.048-.0675Zm.6387-.1184c-.145-.1495-.4013-.1505-.6425-.0283.2046.009.4079.0179.6425.0283Z" fill="#ed1c24"/>
  <path d="m12.9107,7.2404v1.5081c.3791-.239.718-.4527,1.0569-.6664.0124.0212.0249.0424.0373.0636-.2668.1744-.5217.372-.804.516-.2335.1191-.3329.3239-.46.5204-.0439.0678-.09.1615-.1553.1834-.2483.0833-.3073.3036-.3992.5016-.0936.2017-.1784.4075-.2729.6088-.0271.0578-.0745.1062-.1126.1588-.0178-.0086-.0356-.0171-.0533-.0257.0213-.0728.0346-.1491.0652-.2177.1345-.3017.289-.5956.4044-.9042.0463-.1238.029-.2811.0075-.418-.0301-.1919-.0857-.3805-.1413-.5673-.0228-.0765-.0795-.1423-.1113-.217-.0311-.073-.0901-.1982-.0667-.2182.0702-.0599.1739-.0821.2663-.1142.0719-.025.1598-.0246.2167-.0674.1263-.0949.2423-.2052.3527-.3187.0408-.0419.058-.1092.0787-.1675.0192-.0539.0286-.1113.0424-.1672l.0484.0087Z" fill="#ed1c24"/>
  <path d="m1.3471,9.6111c.3609,0,.6969-.0029,1.0328.0014.1333.0017.2054.0651.2061.2146.0009.2033.0292.4063.0345.6097.0037.1432-.097.2005-.2231.2041-.3053.0086-.6109.0152-.916.0068-.046-.0013-.1263-.0862-.1283-.135-.0122-.2916-.006-.5839-.006-.9016Zm.3751.6271c0,.0417-.0001.0835-.0002.1252.1605,0,.321.0022.4814-.0028.0194-.0006.0513-.0394.0523-.0617.0009-.0194-.0332-.0574-.0527-.0579-.1601-.0048-.3205-.0027-.4807-.0027Zm.0353-.3028c.0023.0127.0047.0253.007.038h.4319c-.0012-.0127-.0023-.0253-.0035-.038h-.4355Z" fill="#ed1c24"/>
  <path d="m15.3636,4.2629c.1778-.1208.2684-.2133.1579-.3905-.0264-.0424.0434-.168.0977-.2301.0442-.0506.1315-.0636.1996-.0932.016.0119.0321.0238.0481.0357-.054.0754-.1081.1508-.1914.2671.0798-.0132.1281-.0217.1765-.0292.0633-.0097.1267-.0187.1901-.0279-.024.0576-.0439.1175-.0735.1721-.0189.0348-.0521.0617-.1109.1284.3236-.1051.5046-.2782.6217-.5508.3082-.7173.6362-1.4261.9557-2.1386.0131-.0293.0203-.0613.0302-.0921.0252.0158.0504.0316.0756.0474-.0169.0646-.0249.1332-.052.1932-.3375.7459-.6707,1.494-1.0211,2.2339-.1257.2654-.2933.5111-.4465.763-.0137.0225-.0727.0428-.0933.0318-.179-.0959-.354-.1993-.5644-.3201Z" fill="#ed1c24"/>
  <path d="m6.6128,12.4871c-.1655,0-.3312-.0045-.4966.0014-.1265.0045-.1862-.0353-.1821-.1737.0147-.5046-.06-.4113.4087-.4166.261-.0029.5223.0054.7832.0002.1248-.0025.1642.0452.1659.1682.0057.4203.0097.4204-.4117.4241-.0891.0008-.1783.0001-.2675.0001,0-.0012,0-.0025,0-.0037Z" fill="#ed1c24"/>
  <path d="m15.4413,7.0446c.061.105.122.21.1831.3149.0672.1154.1269.2361.2034.345.1585.2257.2603.4556.0971.7294-.2695.0457-.4855-.1427-.4858-.414-.0003-.2539-.03-.5078-.0471-.7617-.0042-.0622-.0094-.1243-.0142-.1864.0212-.0091.0424-.0181.0635-.0272Z" fill="#ed1c24"/>
  <path d="m30.2961,11.4314c.0798.0243.171.0315.2374.0759.401.2685.7937.5493,1.1948.8175.1399.0936.1593.1557.0099.2621-.1178.0838-.2054.2091-.3194.2997-.0432.0344-.1349.0507-.1833.0287-.2252-.1023-.4436-.2198-.6632-.3343-.0563-.0293-.1271-.0557-.1569-.1044-.0394-.0645-.045-.1496-.0652-.2259.0657.0095.1447-.0013.1948.0318.2593.1715.5112.3543.7774.5414.0962-.0981.1969-.1849.2773-.2875.0729-.093.0123-.1582-.0741-.2139-.3953-.2549-.7883-.5136-1.1815-.7718-.025-.0164-.0447-.0409-.0668-.0616.0062-.0192.0125-.0384.0187-.0577Z" fill="#ed1c24"/>
  <path d="m15.2316,7.0898c-.0251.3137-.0551.6272-.0733.9413-.0102.1764-.0819.2965-.2455.3694-.0764.0341-.142.0923-.265.1748.0116-.26-.0467-.5075.0452-.6704.1584-.2809.2215-.6303.4898-.8449.0162.0099.0325.0199.0487.0298Z" fill="#ed1c24"/>
  <path d="m21.5949,6.0738c.2107.1544.3753.2783.5435.3968.0805.0568.1641.1121.2532.1533.3786.175.76.3437,1.1397.5163.2249.1023.4493.2056.6718.313.057.0275.1058.0723.135.1482-.859-.3887-1.718-.7774-2.5831-1.1688.1747-.1744-.1863-.1617-.1601-.3588Z" fill="#ed1c24"/>
  <path d="m11.024,4.7221c.2782.2072.5587.4114.8312.6258.0283.0222.009.1048.0118.1594-.086-.0012-.1967.0315-.2537-.0097-.2194-.1588-.4217-.3413-.6304-.515,0,0,.0052.0074.0052.0074.0131-.0913.0263-.1825.0394-.2738l-.0035.0058Z" fill="#ed1c24"/>
  <path d="m11.9021,4.6563s-.0066-.0067-.0066-.0068c-.0083.0877-.0166.1755-.0218.2303.0914.0605.221.1042.2665.1916.0285.0547-.0695.1753-.1243.2963-.238-.1972-.4487-.366-.6506-.5449-.0341-.0302-.03-.1037-.0394-.1407.2106-.0095.3934-.0177.5761-.026Z" fill="#ed1c24"/>
  <path d="m9.1483,2.3509c.1069.1105.2232.2134.3185.3332.1841.2312.3546.4732.5337.7084.2626.3449.5277.688.7921,1.0316.0767.0997.1542.1988.2314.2981,0,0,.0035-.0058.0035-.0058-.0807-.0513-.1822-.086-.2386-.1567-.3466-.4344-.6831-.8769-1.0228-1.3168-.1237-.1602-.2536-.3161-.3685-.4824-.0908-.1314-.1629-.2756-.2433-.4142l-.006.0047Z" fill="#ed1c24"/>
  <path d="m17.1069,1.111c.3929-.1339.9532.3247.8818.7284-.261-.3034-.3902-.7408-.8818-.7284Z" fill="#ed1c24"/>
  <path d="m8.3497,4.533c.3287.21.6458.4126.9629.6152-.1744.0369-.9465-.4823-.9629-.6152Z" fill="#ed1c24"/>
  <path d="m6.9683,8.575c-.0998.1361-.198.2733-.2997.4079-.092.1218-.1854.2428-.2833.3599-.0357.0427-.086.0732-.1296.1093l-.0584-.059c.2585-.2713.5169-.5425.7753-.8138,0,0-.0043-.0042-.0043-.0042Z" fill="#ed1c24"/>
  <path d="m16.4574,2.03c.068.1751.1361.3502.2041.5253-.0225.0086-.045.0172-.0675.0258-.0641-.1772-.2505-.307-.1985-.5293.0206-.0073.0413-.0145.0619-.0218Z" fill="#ed1c24"/>
  <path d="m16.3015,2.366c.0659.1893.1277.3667.1895.544-.232-.1614-.3017-.4043-.1895-.544Z" fill="#ed1c24"/>
  <path d="m16.2543,3.3068c-.1105-.155-.1924-.3186-.1255-.5835.0815.2185.1444.3868.2072.5552-.0272.0094-.0545.0189-.0817.0283Z" fill="#ed1c24"/>
  <path d="m16.1019,3.5921c-.0858-.1103-.2484-.1902-.1269-.4151.0761.1452.1387.2645.2012.3838-.0248.0104-.0495.0209-.0743.0313Z" fill="#ed1c24"/>
  <path d="m16.9853,1.1458c.0481.0859.1056.1432.0945.1796-.0155.0509-.0822.0862-.127.1281-.0328-.0466-.0912-.0933-.091-.1398.0001-.0442.0614-.0883.1235-.1679Z" fill="#ed1c24"/>
  <path d="m25.0926,10.1009c.0941.1335.1882.2671.2822.4006-.0175.0138-.035.0276-.0525.0414-.1-.1295-.1999-.259-.2999-.3885.0234-.0178.0468-.0357.0702-.0535Z" fill="#ed1c24"/>
</svg>